<svg width="42" height="43" viewBox="0 0 42 43" fill="none" xmlns="http://www.w3.org/2000/svg">
<g filter="url(#filter0_di_228_416)">
<rect x="1" y="1.31964" width="40" height="40" rx="10" fill="white" shape-rendering="crispEdges"/>
<rect x="1.5" y="1.81964" width="39" height="39" rx="9.5" stroke="#DEDFE4" shape-rendering="crispEdges"/>
<g clip-path="url(#clip0_228_416)">
<path d="M10.0913 21.0019C10.091 18.953 10.6677 16.9455 11.7554 15.2092C12.8431 13.4729 14.3977 12.078 16.2414 11.1842C18.085 10.2905 20.1431 9.93397 22.1799 10.1556C24.2168 10.3772 26.15 11.1679 27.7583 12.4372H26.0987C25.9549 12.4386 25.8175 12.4967 25.7164 12.5988C25.6152 12.701 25.5584 12.839 25.5584 12.9827C25.5584 13.1265 25.6152 13.2645 25.7164 13.3666C25.8175 13.4688 25.9549 13.5269 26.0987 13.5282H29.1846C29.3293 13.5282 29.468 13.4708 29.5703 13.3685C29.6726 13.2662 29.7301 13.1274 29.7301 12.9827V9.8967C29.7301 9.75202 29.6726 9.61325 29.5703 9.51095C29.468 9.40864 29.3293 9.35116 29.1846 9.35116C29.0399 9.35116 28.9012 9.40864 28.7989 9.51095C28.6966 9.61325 28.6391 9.75202 28.6391 9.8967V11.744C26.2604 9.78149 23.2175 8.80994 20.1416 9.03086C17.0658 9.25177 14.1931 10.6482 12.1192 12.9305C10.0454 15.2128 8.92965 18.2057 9.00344 21.2886C9.07723 24.3715 10.3349 27.3077 12.5155 29.4881C12.6178 29.5904 12.7566 29.6479 12.9012 29.6479C13.0459 29.6479 13.1846 29.5904 13.2869 29.4881C13.3892 29.3858 13.4467 29.2471 13.4467 29.1024C13.4467 28.9577 13.3892 28.819 13.2869 28.7167C12.2706 27.706 11.4649 26.5037 10.9164 25.1794C10.3678 23.8552 10.0874 22.4353 10.0913 21.0019Z" fill="#2D3C58"/>
<path d="M16.2342 30.8192C15.9247 30.6686 15.6183 30.5011 15.3238 30.3216C15.2004 30.2462 15.052 30.223 14.9114 30.257C14.7708 30.291 14.6494 30.3795 14.574 30.503C14.4987 30.6265 14.4754 30.7748 14.5094 30.9155C14.5434 31.0561 14.6319 31.1774 14.7554 31.2528C15.0796 31.4507 15.4168 31.6348 15.7575 31.8005C15.8874 31.8621 16.0364 31.8699 16.1721 31.8223C16.3077 31.7746 16.419 31.6753 16.4819 31.546C16.5447 31.4167 16.554 31.2677 16.5076 31.1317C16.4613 30.9955 16.363 30.8833 16.2342 30.8192Z" fill="#2D3C58"/>
<path d="M30.8239 16.2445C30.8551 16.3089 30.8988 16.3666 30.9523 16.4142C31.0058 16.4619 31.0682 16.4985 31.1359 16.522C31.2036 16.5455 31.2752 16.5555 31.3467 16.5513C31.4183 16.5471 31.4882 16.5289 31.5527 16.4976C31.6172 16.4664 31.6749 16.4227 31.7225 16.3692C31.7701 16.3157 31.8067 16.2534 31.8302 16.1857C31.8537 16.118 31.8637 16.0464 31.8595 15.9748C31.8553 15.9033 31.8371 15.8333 31.8059 15.7689C31.6415 15.4292 31.4577 15.092 31.2598 14.7664C31.2226 14.7052 31.1736 14.652 31.1158 14.6096C31.0579 14.5673 30.9924 14.5368 30.9228 14.5199C30.7822 14.4856 30.6338 14.5087 30.5101 14.5839C30.3865 14.6591 30.2978 14.7803 30.2636 14.9209C30.2293 15.0615 30.2523 15.21 30.3275 15.3336C30.5075 15.6295 30.6745 15.936 30.8239 16.2445Z" fill="#2D3C58"/>
<path d="M22.2962 31.8358C21.9518 31.8767 21.6034 31.9011 21.2603 31.9093C21.1177 31.9139 20.9825 31.9742 20.8838 32.0773C20.7851 32.1805 20.7308 32.3181 20.7325 32.4608C20.7341 32.6035 20.7917 32.7398 20.8927 32.8406C20.9938 32.9414 21.1303 32.9986 21.2729 32.9999H21.286C21.6632 32.9911 22.0459 32.9641 22.4242 32.9194C22.4954 32.9111 22.5643 32.8888 22.6268 32.8539C22.6895 32.8189 22.7446 32.772 22.789 32.7157C22.8334 32.6594 22.8663 32.595 22.8859 32.526C22.9054 32.457 22.9111 32.3848 22.9027 32.3137C22.8943 32.2424 22.8719 32.1736 22.8368 32.111C22.8019 32.0485 22.7548 31.9934 22.6985 31.9491C22.6422 31.9047 22.5777 31.8719 22.5087 31.8524C22.4397 31.833 22.3674 31.8273 22.2962 31.8358Z" fill="#2D3C58"/>
<path d="M19.1901 31.7622C18.8507 31.7054 18.5095 31.6317 18.176 31.5423C18.1067 31.5236 18.0345 31.5187 17.9633 31.528C17.8921 31.5373 17.8235 31.5606 17.7613 31.5964C17.6992 31.6323 17.6447 31.68 17.601 31.737C17.5573 31.7939 17.5254 31.8589 17.5068 31.9282C17.4883 31.9975 17.4836 32.0698 17.493 32.1409C17.5025 32.212 17.5259 32.2806 17.5618 32.3427C17.5978 32.4048 17.6457 32.4592 17.7027 32.5027C17.7597 32.5463 17.8248 32.5782 17.8942 32.5965C18.2613 32.6946 18.6368 32.7759 19.0105 32.8381C19.0814 32.8503 19.1539 32.8483 19.224 32.8324C19.294 32.8165 19.3602 32.7868 19.4188 32.7452C19.4774 32.7036 19.5272 32.6508 19.5653 32.5899C19.6034 32.529 19.6291 32.4612 19.641 32.3903C19.6528 32.3194 19.6505 32.2469 19.6342 32.1769C19.6179 32.1069 19.588 32.0409 19.546 31.9825C19.5041 31.9241 19.4511 31.8745 19.39 31.8367C19.329 31.7989 19.261 31.7737 19.1901 31.7622Z" fill="#2D3C58"/>
<path d="M32.4676 20.7389C32.323 20.7354 32.1829 20.7895 32.078 20.8892C31.9732 20.989 31.9124 21.1262 31.9087 21.2708C31.9 21.6158 31.8749 21.9643 31.8339 22.3067C31.8168 22.4504 31.8574 22.595 31.9469 22.7087C32.0363 22.8225 32.1673 22.8961 32.311 22.9133C32.3327 22.9157 32.3546 22.917 32.3764 22.9171C32.5098 22.9168 32.6384 22.8678 32.7381 22.7792C32.8378 22.6907 32.9016 22.5687 32.9175 22.4363C32.9623 22.0599 32.9899 21.6772 32.9993 21.2981C33.0011 21.2264 32.9888 21.1552 32.9631 21.0883C32.9374 21.0214 32.8987 20.9602 32.8493 20.9083C32.8 20.8564 32.7408 20.8147 32.6753 20.7857C32.6098 20.7566 32.5392 20.7407 32.4676 20.7389Z" fill="#2D3C58"/>
<path d="M30.7944 26.9788C30.6747 26.8977 30.5276 26.8673 30.3856 26.8945C30.2435 26.9216 30.118 27.0039 30.0365 27.1235C29.8427 27.4087 29.633 27.6881 29.413 27.9537C29.3663 28.0087 29.3309 28.0725 29.3089 28.1413C29.287 28.2101 29.279 28.2826 29.2853 28.3546C29.2916 28.4265 29.3121 28.4965 29.3456 28.5604C29.3792 28.6244 29.4251 28.681 29.4808 28.727C29.5364 28.7731 29.6006 28.8077 29.6697 28.8287C29.7388 28.8497 29.8114 28.8568 29.8832 28.8496C29.9551 28.8424 30.0248 28.8209 30.0883 28.7866C30.1518 28.7521 30.2078 28.7055 30.2531 28.6493C30.495 28.3573 30.7259 28.0502 30.939 27.7364C30.9793 27.6772 31.0075 27.6106 31.022 27.5405C31.0365 27.4703 31.0371 27.398 31.0237 27.3277C31.0102 27.2573 30.983 27.1903 30.9437 27.1304C30.9044 27.0706 30.8536 27.0191 30.7944 26.9788Z" fill="#2D3C58"/>
<path d="M31.5446 18.1877C31.633 18.5202 31.7066 18.861 31.7633 19.202C31.7845 19.3294 31.85 19.4451 31.9485 19.5286C32.0469 19.6122 32.1718 19.6581 32.3009 19.6583C32.331 19.6582 32.3609 19.6557 32.3906 19.6509C32.4613 19.6391 32.529 19.6136 32.5898 19.5757C32.6506 19.5378 32.7034 19.4883 32.7451 19.4301C32.7868 19.3717 32.8165 19.3059 32.8327 19.2361C32.8489 19.1662 32.8512 19.0939 32.8394 19.0233C32.7773 18.6483 32.6963 18.2725 32.5991 17.9069C32.561 17.768 32.4697 17.6497 32.3447 17.578C32.2199 17.5062 32.0717 17.4867 31.9325 17.5237C31.7933 17.5608 31.6744 17.6514 31.6018 17.7758C31.5292 17.9002 31.5085 18.0483 31.5446 18.1877Z" fill="#2D3C58"/>
<path d="M27.9427 29.4196C27.676 29.6401 27.3967 29.8498 27.1124 30.0424C27.0531 30.0826 27.0024 30.1341 26.9629 30.1939C26.9236 30.2537 26.8963 30.3207 26.8828 30.391C26.8693 30.4614 26.8698 30.5337 26.8842 30.6039C26.8987 30.6741 26.9268 30.7407 26.967 30.7999C27.0072 30.8592 27.0587 30.91 27.1185 30.9495C27.1783 30.9888 27.2453 31.0161 27.3157 31.0296C27.386 31.0431 27.4583 31.0426 27.5285 31.0281C27.5986 31.0137 27.6652 30.9856 27.7246 30.9454C28.0373 30.7336 28.3444 30.5032 28.638 30.2608C28.6936 30.2152 28.7396 30.1592 28.7735 30.0958C28.8074 30.0324 28.8284 29.963 28.8354 29.8914C28.8423 29.8199 28.8351 29.7477 28.8141 29.679C28.793 29.6103 28.7586 29.5464 28.7128 29.491C28.6671 29.4356 28.6108 29.3898 28.5472 29.3562C28.4837 29.3226 28.4142 29.3019 28.3426 29.2953C28.2711 29.2887 28.1989 29.2962 28.1302 29.3176C28.0617 29.3389 27.9979 29.3736 27.9427 29.4196Z" fill="#2D3C58"/>
<path d="M32.0783 23.9792C31.9405 23.9354 31.791 23.9482 31.6625 24.0145C31.534 24.0809 31.4371 24.1955 31.393 24.3332C31.2887 24.6605 31.1666 24.9874 31.0306 25.3052C31.0008 25.3712 30.9845 25.4426 30.9826 25.515C30.9807 25.5875 30.9933 25.6595 31.0196 25.727C31.0459 25.7946 31.0853 25.8562 31.1357 25.9083C31.186 25.9604 31.2463 26.0019 31.3129 26.0305C31.3795 26.059 31.4511 26.074 31.5235 26.0746C31.596 26.0752 31.6678 26.0613 31.7348 26.0338C31.8019 26.0063 31.8628 25.9658 31.9139 25.9145C31.9651 25.8632 32.0056 25.8022 32.0329 25.7351C32.1832 25.3853 32.3174 25.0249 32.4322 24.6646C32.454 24.5963 32.4622 24.5245 32.4562 24.4531C32.4502 24.3817 32.4302 24.3122 32.3974 24.2486C32.3645 24.1849 32.3194 24.1283 32.2646 24.0821C32.2099 24.0359 32.1466 24.001 32.0783 23.9792Z" fill="#2D3C58"/>
<path d="M25.2954 31.0352C24.9808 31.1701 24.6537 31.2918 24.3232 31.3973C24.2549 31.419 24.1916 31.454 24.1369 31.5002C24.0821 31.5464 24.0371 31.603 24.0042 31.6666C23.9713 31.7303 23.9513 31.7998 23.9453 31.8712C23.9393 31.9425 23.9474 32.0144 23.9691 32.0826C23.9909 32.1509 24.0259 32.2142 24.0721 32.2689C24.1183 32.3236 24.1748 32.3687 24.2385 32.4016C24.3022 32.4344 24.3716 32.4545 24.443 32.4605C24.5144 32.4665 24.5863 32.4584 24.6545 32.4367C25.0181 32.3208 25.3782 32.1868 25.7248 32.0384C25.8578 31.9814 25.9627 31.874 26.0165 31.7396C26.0703 31.6053 26.0685 31.4551 26.0116 31.322C25.9546 31.189 25.8471 31.0841 25.7128 31.0303C25.5784 30.9765 25.4284 30.9783 25.2954 31.0352Z" fill="#2D3C58"/>
<path d="M16.3884 19.8874C16.3884 18.9934 15.8002 18.277 14.8906 18.0621C14.3907 17.9437 13.8655 17.9983 13.4006 18.2169C12.9358 18.4354 12.5587 18.8051 12.331 19.2655C12.299 19.3296 12.2799 19.3994 12.2748 19.4709C12.2697 19.5424 12.2788 19.6141 12.3014 19.6821C12.3241 19.75 12.3599 19.8129 12.4069 19.867C12.4538 19.9212 12.511 19.9655 12.575 19.9975C12.6391 20.0296 12.7089 20.0487 12.7804 20.0538C12.8518 20.0589 12.9236 20.0498 12.9916 20.0272C13.0596 20.0045 13.1224 19.9687 13.1765 19.9218C13.2307 19.8748 13.275 19.8177 13.307 19.7536C13.4235 19.5118 13.6194 19.3174 13.8621 19.2028C14.1047 19.0882 14.3793 19.0604 14.6399 19.124C14.7942 19.1604 15.2973 19.3231 15.2973 19.8874C15.2973 20.4564 14.6402 20.8952 13.9444 21.3599C13.1611 21.8828 12.2735 22.4755 12.2735 23.4568C12.2735 23.6014 12.331 23.7402 12.4333 23.8425C12.5356 23.9448 12.6744 24.0023 12.819 24.0023H15.8428C15.9876 24.0023 16.1263 23.9448 16.2286 23.8425C16.3309 23.7402 16.3884 23.6014 16.3884 23.4568C16.3884 23.3121 16.3309 23.1733 16.2286 23.071C16.1263 22.9687 15.9876 22.9112 15.8428 22.9112H13.6816C13.9101 22.6947 14.2332 22.4789 14.5502 22.2672C15.412 21.6918 16.3884 21.0397 16.3884 19.8874Z" fill="#2D3C58"/>
<path d="M21.5485 21.6839C21.5485 21.5392 21.491 21.4005 21.3887 21.2982C21.2864 21.1959 21.1476 21.1384 21.0029 21.1384H20.5597V18.2403C20.5597 18.1273 20.5246 18.0172 20.4592 17.925C20.3939 17.8328 20.3016 17.7632 20.195 17.7257C20.0884 17.6882 19.9728 17.6848 19.8642 17.7158C19.7555 17.7469 19.6592 17.8109 19.5885 17.899L16.8268 21.3427C16.7626 21.4229 16.7222 21.5197 16.7105 21.6218C16.6989 21.7239 16.7163 21.8273 16.7608 21.9199C16.8052 22.0126 16.875 22.0909 16.962 22.1456C17.049 22.2004 17.1497 22.2294 17.2525 22.2295H19.4686V23.7637C19.468 23.8358 19.4815 23.9074 19.5086 23.9741C19.5358 24.0409 19.5758 24.1017 19.6265 24.1529C19.6772 24.2041 19.7377 24.2448 19.8041 24.2725C19.8707 24.3003 19.9421 24.3146 20.0141 24.3146C20.0863 24.3146 20.1576 24.3003 20.2241 24.2725C20.2907 24.2448 20.351 24.2041 20.4018 24.1529C20.4525 24.1017 20.4926 24.0409 20.5197 23.9741C20.5468 23.9074 20.5604 23.8358 20.5597 23.7637V22.2295H21.0029C21.1476 22.2295 21.2864 22.172 21.3887 22.0697C21.491 21.9674 21.5485 21.8286 21.5485 21.6839ZM19.4686 21.1384H18.3895L19.4686 19.7924V21.1384Z" fill="#2D3C58"/>
<path d="M24.339 17.3987C24.2687 17.3845 24.1963 17.3843 24.126 17.3981C24.0557 17.4119 23.9888 17.4395 23.9291 17.4793C23.8695 17.519 23.8183 17.5702 23.7785 17.6298C23.7386 17.6894 23.711 17.7563 23.697 17.8266L22.4696 23.9637C22.4555 24.034 22.4554 24.1063 22.4693 24.1765C22.4832 24.2468 22.5108 24.3137 22.5505 24.3733C22.5902 24.4329 22.6414 24.4841 22.7008 24.524C22.7603 24.5639 22.8271 24.5916 22.8974 24.6057C22.9676 24.6197 23.0399 24.6199 23.1102 24.6059C23.1805 24.5921 23.2474 24.5645 23.3069 24.5248C23.3666 24.485 23.4178 24.4339 23.4577 24.3745C23.4975 24.3149 23.5253 24.2482 23.5394 24.1779L24.7668 18.0407C24.7809 17.9705 24.781 17.8982 24.7672 17.8279C24.7533 17.7575 24.7257 17.6907 24.686 17.6311C24.6462 17.5714 24.5951 17.5202 24.5356 17.4803C24.476 17.4404 24.4093 17.4127 24.339 17.3987Z" fill="#2D3C58"/>
<path d="M27.1385 24.0025C27.2462 24.0025 27.3515 23.9706 27.4412 23.9107C27.5308 23.851 27.6008 23.7661 27.6422 23.6666L29.6879 18.7569C29.7225 18.674 29.7361 18.5838 29.7274 18.4944C29.7188 18.405 29.6882 18.3191 29.6384 18.2443C29.5885 18.1696 29.5209 18.1083 29.4417 18.066C29.3625 18.0236 29.274 18.0015 29.1842 18.0015H26.4225C26.2778 18.0015 26.139 18.0589 26.0367 18.1613C25.9344 18.2636 25.877 18.4023 25.877 18.547C25.877 18.6917 25.9344 18.8305 26.0367 18.9328C26.139 19.0351 26.2778 19.0926 26.4225 19.0926H28.3659L26.6351 23.247C26.6007 23.3299 26.5872 23.4201 26.5959 23.5094C26.6047 23.5987 26.6353 23.6845 26.685 23.7592C26.7348 23.8339 26.8022 23.8952 26.8813 23.9376C26.9604 23.98 27.0488 24.0024 27.1385 24.0025Z" fill="#2D3C58"/>
</g>
</g>
<defs>
<filter id="filter0_di_228_416" x="0" y="0.319641" width="42" height="41.9999" filterUnits="userSpaceOnUse" color-interpolation-filters="sRGB">
<feFlood flood-opacity="0" result="BackgroundImageFix"/>
<feColorMatrix in="SourceAlpha" type="matrix" values="0 0 0 0 0 0 0 0 0 0 0 0 0 0 0 0 0 0 127 0" result="hardAlpha"/>
<feMorphology radius="1" operator="dilate" in="SourceAlpha" result="effect1_dropShadow_228_416"/>
<feOffset/>
<feComposite in2="hardAlpha" operator="out"/>
<feColorMatrix type="matrix" values="0 0 0 0 0.882353 0 0 0 0 0.882353 0 0 0 0 0.882353 0 0 0 1 0"/>
<feBlend mode="normal" in2="BackgroundImageFix" result="effect1_dropShadow_228_416"/>
<feBlend mode="normal" in="SourceGraphic" in2="effect1_dropShadow_228_416" result="shape"/>
<feColorMatrix in="SourceAlpha" type="matrix" values="0 0 0 0 0 0 0 0 0 0 0 0 0 0 0 0 0 0 127 0" result="hardAlpha"/>
<feOffset dy="-2"/>
<feGaussianBlur stdDeviation="0.5"/>
<feComposite in2="hardAlpha" operator="arithmetic" k2="-1" k3="1"/>
<feColorMatrix type="matrix" values="0 0 0 0 0 0 0 0 0 0 0 0 0 0 0 0 0 0 0.1 0"/>
<feBlend mode="normal" in2="shape" result="effect2_innerShadow_228_416"/>
</filter>
<clipPath id="clip0_228_416">
<rect width="24" height="24" fill="white" transform="translate(9 9)"/>
</clipPath>
</defs>
</svg>
