<svg width="38" height="38" viewBox="0 0 38 38" fill="none" xmlns="http://www.w3.org/2000/svg">
<g clip-path="url(#clip0_228_1080)">
<path d="M24 12.1875H13.5C13.1519 12.1875 12.8181 12.3258 12.5719 12.5719C12.3258 12.8181 12.1875 13.1519 12.1875 13.5V16.125C12.1888 16.3561 12.2518 16.5827 12.3699 16.7812C12.2518 16.9798 12.1888 17.2064 12.1875 17.4375V20.0625C12.1888 20.2936 12.2518 20.5202 12.3699 20.7188C12.2518 20.9173 12.1888 21.1439 12.1875 21.375V24C12.1875 24.3481 12.3258 24.682 12.5719 24.9281C12.8181 25.1742 13.1519 25.3125 13.5 25.3125H24C24.3481 25.3125 24.682 25.1742 24.9281 24.9281C25.1742 24.682 25.3125 24.3481 25.3125 24V21.375C25.3112 21.1439 25.2482 20.9173 25.1301 20.7188C25.2482 20.5202 25.3112 20.2936 25.3125 20.0625V17.4375C25.3112 17.2064 25.2482 16.9798 25.1301 16.7812C25.2482 16.5827 25.3112 16.3561 25.3125 16.125V13.5C25.3125 13.1519 25.1742 12.8181 24.9281 12.5719C24.682 12.3258 24.3481 12.1875 24 12.1875ZM13.5 24V21.375H24V24H13.5ZM24 20.0625H13.5V17.4375H24V20.0625ZM24 16.125H13.5V13.5H24V16.125Z" fill="white"/>
<path d="M21.5625 14.0625H22.5V15.9375H21.5625V14.0625Z" fill="white"/>
<path d="M15 14.0625H19.6875V15.9375H15V14.0625Z" fill="white"/>
<path d="M21.5625 17.8125H22.5V19.6875H21.5625V17.8125Z" fill="white"/>
<path d="M15 17.8125H19.6875V19.6875H15V17.8125Z" fill="white"/>
<path d="M21.5625 21.5625H22.5V23.4375H21.5625V21.5625Z" fill="white"/>
<path d="M15 21.5625H19.6875V23.4375H15V21.5625Z" fill="white"/>
<path d="M34.4606 6.06067C35.136 6.06268 35.7927 5.839 36.3265 5.42516C36.8602 5.01131 37.2404 4.43102 37.4067 3.77642C37.573 3.12182 37.5158 2.43042 37.2443 1.81201C36.9728 1.19361 36.5024 0.683642 35.9079 0.363081C35.3134 0.0425198 34.6289 -0.0702595 33.9631 0.04265C33.2971 0.15556 32.6881 0.487686 32.2325 0.986295C31.7769 1.4849 31.501 2.12141 31.4485 2.79476C31.396 3.46811 31.5699 4.13971 31.9427 4.70291L25.563 11.0826C23.8432 9.54855 21.655 8.64135 19.3543 8.50852V5.97486C19.9238 5.82779 20.4202 5.47802 20.7505 4.99113C21.0806 4.50423 21.2218 3.91364 21.1478 3.33004C21.0737 2.74644 20.7892 2.20991 20.3478 1.82102C19.9063 1.43212 19.3383 1.21757 18.75 1.21757C18.1617 1.21757 17.5937 1.43212 17.1522 1.82102C16.7108 2.20991 16.4263 2.74644 16.3522 3.33004C16.2782 3.91364 16.4194 4.50423 16.7495 4.99113C17.0798 5.47802 17.5762 5.82779 18.1457 5.97486V8.50852C15.845 8.64135 13.6568 9.54855 11.937 11.0826L5.5573 4.70291C5.97188 4.07654 6.13906 3.31854 6.02641 2.5759C5.91376 1.83326 5.52932 1.15893 4.94765 0.683685C4.36597 0.208441 3.62853 -0.0338387 2.87834 0.00383667C2.12815 0.041512 1.4187 0.356457 0.887565 0.887587C0.356437 1.41872 0.0414925 2.12818 0.00381709 2.87837C-0.0338582 3.62855 0.208422 4.36599 0.683666 4.94767C1.15891 5.52934 1.83325 5.91378 2.57588 6.02642C3.31852 6.13907 4.07653 5.9719 4.70289 5.55732L11.0826 11.9371C9.54855 13.6569 8.64135 15.845 8.50845 18.1457H5.97484C5.82777 17.5762 5.47801 17.0798 4.99112 16.7496C4.50421 16.4194 3.91362 16.2782 3.33002 16.3522C2.74643 16.4263 2.20989 16.7108 1.821 17.1522C1.43211 17.5937 1.21756 18.1617 1.21756 18.75C1.21756 19.3383 1.43211 19.9064 1.821 20.3478C2.20989 20.7892 2.74643 21.0737 3.33002 21.1478C3.91362 21.2219 4.50421 21.0806 4.99112 20.7505C5.47801 20.4202 5.82777 19.9239 5.97484 19.3543H8.50845C8.64135 21.655 9.54855 23.8432 11.0826 25.563L4.70289 31.9427C4.07653 31.5281 3.31852 31.361 2.57588 31.4736C1.83325 31.5863 1.15891 31.9707 0.683666 32.5523C0.208422 33.134 -0.0338582 33.8715 0.00381709 34.6217C0.0414925 35.3719 0.356437 36.0813 0.887565 36.6124C1.4187 37.1435 2.12815 37.4585 2.87834 37.4962C3.62853 37.5338 4.36597 37.2916 4.94765 36.8163C5.52932 36.3411 5.91376 35.6668 6.02641 34.9241C6.13906 34.1815 5.97188 33.4235 5.5573 32.7971L11.937 26.4174C13.6568 27.9515 15.845 28.8587 18.1457 28.9916V31.5251C17.5762 31.6722 17.0798 32.022 16.7495 32.5089C16.4194 32.9958 16.2782 33.5863 16.3522 34.17C16.4263 34.7536 16.7108 35.2901 17.1522 35.679C17.5937 36.0679 18.1617 36.2824 18.75 36.2824C19.3383 36.2824 19.9063 36.0679 20.3478 35.679C20.7892 35.2901 21.0737 34.7536 21.1478 34.17C21.2218 33.5863 21.0806 32.9958 20.7505 32.5089C20.4202 32.022 19.9238 31.6722 19.3543 31.5251V28.9916C21.655 28.8587 23.8432 27.9515 25.563 26.4174L31.9427 32.7971C31.5281 33.4235 31.361 34.1815 31.4736 34.9241C31.5863 35.6668 31.9707 36.3411 32.5523 36.8163C33.134 37.2916 33.8715 37.5338 34.6217 37.4962C35.3719 37.4585 36.0813 37.1435 36.6124 36.6124C37.1435 36.0813 37.4585 35.3719 37.4962 34.6217C37.5338 33.8715 37.2916 33.134 36.8163 32.5523C36.3411 31.9707 35.6668 31.5863 34.9241 31.4736C34.1815 31.361 33.4235 31.5281 32.7971 31.9427L26.4174 25.563C27.9515 23.8432 28.8587 21.655 28.9916 19.3543H31.5251C31.6722 19.9239 32.022 20.4202 32.5089 20.7505C32.9958 21.0806 33.5863 21.2219 34.17 21.1478C34.7536 21.0737 35.2901 20.7892 35.679 20.3478C36.0679 19.9064 36.2824 19.3383 36.2824 18.75C36.2824 18.1617 36.0679 17.5937 35.679 17.1522C35.2901 16.7108 34.7536 16.4263 34.17 16.3522C33.5863 16.2782 32.9958 16.4194 32.5089 16.7496C32.022 17.0798 31.6722 17.5762 31.5251 18.1457H28.9916C28.8587 15.845 27.9515 13.6569 26.4174 11.9371L32.7971 5.55732C33.2899 5.88543 33.8686 6.06055 34.4606 6.06067ZM3.03937 4.85216C2.68084 4.85216 2.33036 4.74583 2.03225 4.54665C1.73415 4.34746 1.5018 4.06435 1.3646 3.7331C1.22739 3.40187 1.1915 3.03738 1.26144 2.68574C1.33139 2.3341 1.50403 2.0111 1.75756 1.75757C2.01107 1.50406 2.33407 1.33141 2.68572 1.26146C3.03736 1.19151 3.40185 1.22741 3.73309 1.36462C4.06432 1.50182 4.34744 1.73417 4.54664 2.03228C4.74582 2.33038 4.85214 2.68086 4.85214 3.03939C4.85214 3.52016 4.66115 3.98125 4.32119 4.32121C3.98123 4.66117 3.52015 4.85216 3.03937 4.85216ZM3.64363 19.9585C3.40461 19.9585 3.17095 19.8877 2.97221 19.7549C2.77348 19.622 2.61858 19.4333 2.52711 19.2125C2.43564 18.9916 2.41171 18.7486 2.45834 18.5143C2.50497 18.2798 2.62007 18.0645 2.78908 17.8955C2.9581 17.7265 3.17343 17.6113 3.40786 17.5647C3.64228 17.5181 3.88528 17.542 4.10611 17.6335C4.32693 17.725 4.51568 17.8799 4.64847 18.0786C4.78126 18.2773 4.85214 18.511 4.85214 18.75C4.85214 19.0706 4.72481 19.3779 4.49817 19.6045C4.27153 19.8312 3.96415 19.9585 3.64363 19.9585ZM3.03937 36.2734C2.68084 36.2734 2.33036 36.1671 2.03225 35.9679C1.73415 35.7687 1.5018 35.4856 1.3646 35.1544C1.22739 34.8231 1.1915 34.4586 1.26144 34.107C1.33139 33.7553 1.50403 33.4323 1.75756 33.1788C2.01107 32.9253 2.33407 32.7527 2.68572 32.6827C3.03736 32.6128 3.40185 32.6486 3.73309 32.7859C4.06432 32.923 4.34744 33.1554 4.54664 33.4535C4.74582 33.7516 4.85214 34.1021 4.85214 34.4606C4.85214 34.9414 4.66115 35.4025 4.32119 35.7425C3.98123 36.0824 3.52015 36.2734 3.03937 36.2734ZM34.4606 32.6479C34.8191 32.6479 35.1696 32.7542 35.4677 32.9534C35.7659 33.1525 35.9982 33.4357 36.1354 33.7669C36.2726 34.0981 36.3085 34.4627 36.2386 34.8142C36.1686 35.1659 35.996 35.4889 35.7425 35.7425C35.4889 35.996 35.1659 36.1686 34.8142 36.2386C34.4627 36.3085 34.0981 36.2726 33.7669 36.1354C33.4357 35.9982 33.1525 35.7659 32.9534 35.4677C32.7542 35.1696 32.6479 34.8191 32.6479 34.4606C32.6479 33.9799 32.8388 33.5188 33.1788 33.1788C33.5188 32.8388 33.9799 32.6479 34.4606 32.6479ZM33.8563 17.5415C34.0954 17.5415 34.3291 17.6124 34.5277 17.7451C34.7265 17.878 34.8815 18.0667 34.9729 18.2875C35.0644 18.5084 35.0883 18.7514 35.0416 18.9858C34.995 19.2202 34.88 19.4356 34.7109 19.6045C34.5419 19.7736 34.3266 19.8887 34.0921 19.9353C33.8577 19.982 33.6147 19.958 33.3939 19.8665C33.1731 19.775 32.9843 19.6201 32.8515 19.4214C32.7188 19.2227 32.6479 18.989 32.6479 18.75C32.6479 18.4295 32.7752 18.1221 33.0018 17.8955C33.2285 17.6688 33.5359 17.5415 33.8563 17.5415ZM17.5415 3.64364C17.5415 3.40462 17.6124 3.17097 17.7451 2.97223C17.878 2.77349 18.0667 2.61859 18.2875 2.52713C18.5084 2.43566 18.7514 2.41173 18.9858 2.45836C19.2202 2.50499 19.4355 2.62009 19.6045 2.7891C19.7735 2.95811 19.8887 3.17345 19.9353 3.40788C19.982 3.64231 19.958 3.8853 19.8665 4.10612C19.775 4.32695 19.6201 4.51569 19.4214 4.64849C19.2227 4.78128 18.989 4.85216 18.75 4.85216C18.4294 4.85216 18.1221 4.72483 17.8955 4.49819C17.6688 4.27155 17.5415 3.96416 17.5415 3.64364ZM19.9585 33.8563C19.9585 34.0954 19.8876 34.3291 19.7549 34.5277C19.622 34.7265 19.4333 34.8815 19.2125 34.9729C18.9916 35.0644 18.7486 35.0883 18.5142 35.0416C18.2798 34.995 18.0645 34.88 17.8955 34.7109C17.7265 34.5419 17.6113 34.3266 17.5647 34.0921C17.518 33.8577 17.542 33.6147 17.6335 33.3939C17.725 33.1731 17.8799 32.9843 18.0786 32.8515C18.2773 32.7188 18.511 32.6479 18.75 32.6479C19.0706 32.6479 19.3779 32.7752 19.6045 33.0018C19.8312 33.2285 19.9585 33.5359 19.9585 33.8563ZM27.8138 18.75C27.8138 20.5427 27.2822 22.295 26.2863 23.7856C25.2904 25.2761 23.8748 26.4379 22.2186 27.1239C20.5624 27.8099 18.74 27.9894 16.9817 27.6397C15.2235 27.29 13.6085 26.4267 12.3409 25.1591C11.0733 23.8915 10.2101 22.2765 9.86032 20.5183C9.5106 18.76 9.69007 16.9376 10.3761 15.2814C11.0621 13.6252 12.2239 12.2097 13.7144 11.2137C15.205 10.2178 16.9573 9.68617 18.75 9.68617C21.1531 9.68888 23.4569 10.6447 25.1561 12.3439C26.8553 14.0431 27.8111 16.347 27.8138 18.75ZM34.4606 1.22662C34.8191 1.22662 35.1696 1.33294 35.4677 1.53213C35.7659 1.73132 35.9982 2.01444 36.1354 2.34568C36.2726 2.67691 36.3085 3.0414 36.2386 3.39304C36.1686 3.74468 35.996 4.06769 35.7425 4.32121C35.4889 4.57473 35.1659 4.74738 34.8142 4.81733C34.4627 4.88727 34.0981 4.85137 33.7669 4.71417C33.4357 4.57697 33.1525 4.34461 32.9534 4.04651C32.7542 3.7484 32.6479 3.39792 32.6479 3.03939C32.6479 2.55862 32.8388 2.09753 33.1788 1.75757C33.5188 1.41761 33.9799 1.22662 34.4606 1.22662Z" fill="white"/>
</g>
<defs>
<clipPath id="clip0_228_1080">
<rect width="37.5" height="37.5" fill="white"/>
</clipPath>
</defs>
</svg>
