<svg width="168" height="168" viewBox="0 0 168 168" fill="none" xmlns="http://www.w3.org/2000/svg">
<g clip-path="url(#clip0_359_450)">
<g clip-path="url(#clip1_359_450)">
<g clip-path="url(#clip2_359_450)">
<mask id="mask0_359_450" style="mask-type:luminance" maskUnits="userSpaceOnUse" x="-1" y="0" width="169" height="168">
<path d="M65.8701 0.000192453L-0.00390625 101.428L101.424 167.302L167.298 65.8742L65.8701 0.000192453Z" fill="white"/>
</mask>
<g mask="url(#mask0_359_450)">
<path d="M144.372 70.5093C136.898 72.2025 129.424 73.8957 121.94 75.5823C119.488 76.1383 120.188 79.9676 122.634 79.4216C127.538 78.3095 132.436 77.2074 137.341 76.0952C131.496 82.1197 124.186 87.1353 115.67 88.0795C111.961 88.483 108.061 88.0266 104.549 86.6833C106.68 80.2941 106.958 73.2495 105.545 66.7217C104.688 62.777 102.418 56.0817 97.1217 57.0409C92.3486 57.9067 89.9278 64.41 89.3976 68.5794C88.3339 76.9451 92.7887 84.4528 99.6105 88.5809C96.1946 95.9956 89.49 101.433 81.49 103.159C75.0357 104.548 68.3512 103.25 63.3672 99.1335C66.2116 94.0878 67.8953 88.1867 68.8134 82.5098C69.604 77.673 68.5028 72.2854 63.5961 70.137C58.4298 67.8776 54.7226 72.32 53.1728 76.7934C51.6813 81.0884 51.7526 85.9081 53.0891 90.2228C54.175 93.7692 55.9776 96.944 58.3307 99.5828C54.7302 104.527 49.4677 108.233 43.0889 106.686C34.7857 104.683 29.3792 95.8206 28.4676 87.7877C28.2351 85.7476 28.3312 83.6901 28.6357 81.6669C29.0018 79.1936 25.1084 79.0156 24.7422 81.489C23.2584 91.4564 27.7282 102.204 36.1853 107.812C40.7572 110.854 46.1887 111.728 51.3792 109.864C55.3609 108.441 58.7128 105.7 61.2557 102.363C64.7141 105.142 68.9392 106.963 73.6014 107.467C83.2918 108.511 93.2077 104.035 99.256 96.4983C100.79 94.5813 102.053 92.5032 103.086 90.2902C103.784 90.5704 104.501 90.82 105.229 91.0327C115.993 94.0869 126.932 90.1013 135.33 83.2545C136.769 82.0832 138.119 80.8258 139.415 79.5187C137.249 84.3854 135.083 89.2521 132.921 94.1357C132.497 95.0997 133.195 96.2893 134.122 96.6171C135.18 96.9863 136.169 96.374 136.603 95.4164C139.909 87.9731 143.214 80.5298 146.53 73.0933C147.158 71.7271 145.723 70.2045 144.372 70.5093ZM58.0448 75.4871C59.0349 73.8516 60.4724 72.8817 62.3219 73.8088C63.9045 74.5915 64.7752 76.1376 65.0805 77.8213C65.4687 79.977 65.0025 82.2267 64.5212 84.3224C63.9249 86.9059 63.2413 89.4904 62.3388 91.9904C61.8521 93.3614 61.2249 94.771 60.4801 96.1622C56.0852 90.5391 54.1665 81.8804 58.0448 75.4871ZM94.5538 77.538C93.0051 73.994 92.6801 69.8315 93.9176 66.1501C94.5068 64.3987 95.5132 62.4275 97.0085 61.2791C98.6575 60.0281 99.976 62.2834 100.589 63.6045C102.305 67.3141 102.653 72.0398 102.52 76.0636C102.422 79.0571 101.927 82.0385 101.032 84.904C98.2478 83.1528 95.9533 80.7114 94.5538 77.538Z" fill="url(#paint0_linear_359_450)"/>
</g>
</g>
</g>
</g>
<defs>
<linearGradient id="paint0_linear_359_450" x1="24.4609" y1="83.8937" x2="107.713" y2="83.8937" gradientUnits="userSpaceOnUse">
<stop stop-color="#085BDF"/>
<stop offset="1" stop-color="#5D39D3"/>
</linearGradient>
<clipPath id="clip0_359_450">
<rect width="167.575" height="167.575" fill="white" transform="translate(0 -0.000244141)"/>
</clipPath>
<clipPath id="clip1_359_450">
<rect width="167.575" height="167.575" fill="white" transform="translate(0 -0.000244141)"/>
</clipPath>
<clipPath id="clip2_359_450">
<rect width="167.575" height="167.575" fill="white" transform="translate(0 -0.000244141)"/>
</clipPath>
</defs>
</svg>
