<svg width="56" height="56" viewBox="0 0 56 56" fill="none" xmlns="http://www.w3.org/2000/svg">
<g id="Frame" clip-path="url(#clip0_1_610)">
<path id="Vector" d="M50.3273 0.644775H6.06068C3.0047 0.644775 0.527344 3.12213 0.527344 6.17811V50.4448C0.527344 53.5008 3.0047 55.9781 6.06068 55.9781H50.3273C53.3833 55.9781 55.8607 53.5008 55.8607 50.4448V6.17811C55.8607 3.12213 53.3833 0.644775 50.3273 0.644775Z" fill="url(#paint0_linear_1_610)"/>
<g id="Clip path group">
<mask id="mask0_1_610" style="mask-type:luminance" maskUnits="userSpaceOnUse" x="9" y="9" width="38" height="38">
<g id="b">
<path id="Vector_2" d="M46.6389 9.86865H9.75V46.7575H46.6389V9.86865Z" fill="white"/>
</g>
</mask>
<g mask="url(#mask0_1_610)">
<g id="Group">
<path id="Vector_3" d="M16.2051 13.863C14.6798 13.863 13.4385 15.1043 13.4385 16.6297C13.4385 18.1551 14.6798 19.3964 16.2051 19.3964C17.7305 19.3964 18.9718 18.1551 18.9718 16.6297C18.9718 15.1043 17.7305 13.863 16.2051 13.863ZM16.2051 18.1667C15.3579 18.1667 14.6681 17.4775 14.6681 16.6297C14.6681 15.7818 15.3579 15.0926 16.2051 15.0926C17.0524 15.0926 17.7422 15.7818 17.7422 16.6297C17.7422 17.4775 17.0524 18.1667 16.2051 18.1667Z" fill="#2D3C58"/>
<path id="Vector_4" d="M40.4908 16.3231C40.8304 16.3231 41.1057 16.0479 41.1057 15.7084C41.1057 15.3688 40.8304 15.0935 40.4908 15.0935C40.1513 15.0935 39.876 15.3688 39.876 15.7084C39.876 16.0479 40.1513 16.3231 40.4908 16.3231Z" fill="#2D3C58"/>
<path id="Vector_5" d="M38.0318 16.3231C38.3714 16.3231 38.6466 16.0479 38.6466 15.7084C38.6466 15.3688 38.3714 15.0935 38.0318 15.0935C37.6923 15.0935 37.417 15.3688 37.417 15.7084C37.417 16.0479 37.6923 16.3231 38.0318 16.3231Z" fill="#2D3C58"/>
<path id="Vector_6" d="M41.7203 18.1671C42.0599 18.1671 42.3351 17.8919 42.3351 17.5523C42.3351 17.2128 42.0599 16.9375 41.7203 16.9375C41.3808 16.9375 41.1055 17.2128 41.1055 17.5523C41.1055 17.8919 41.3808 18.1671 41.7203 18.1671Z" fill="#2D3C58"/>
<path id="Vector_7" d="M39.2612 18.1671C39.6008 18.1671 39.8761 17.8919 39.8761 17.5523C39.8761 17.2128 39.6008 16.9375 39.2612 16.9375C38.9218 16.9375 38.6465 17.2128 38.6465 17.5523C38.6465 17.8919 38.9218 18.1671 39.2612 18.1671Z" fill="#2D3C58"/>
<path id="Vector_8" d="M35.5718 16.3231C35.9113 16.3231 36.1866 16.0479 36.1866 15.7084C36.1866 15.3688 35.9113 15.0935 35.5718 15.0935C35.2323 15.0935 34.957 15.3688 34.957 15.7084C34.957 16.0479 35.2323 16.3231 35.5718 16.3231Z" fill="#2D3C58"/>
<path id="Vector_9" d="M36.8023 18.1669C37.1419 18.1669 37.4172 17.8917 37.4172 17.5521C37.4172 17.2125 37.1419 16.9373 36.8023 16.9373C36.4628 16.9373 36.1875 17.2125 36.1875 17.5521C36.1875 17.8917 36.4628 18.1669 36.8023 18.1669Z" fill="#2D3C58"/>
<path id="Vector_10" d="M33.1129 16.3231C33.4525 16.3231 33.7277 16.0479 33.7277 15.7084C33.7277 15.3688 33.4525 15.0935 33.1129 15.0935C32.7733 15.0935 32.498 15.3688 32.498 15.7084C32.498 16.0479 32.7733 16.3231 33.1129 16.3231Z" fill="#2D3C58"/>
<path id="Vector_11" d="M34.3424 18.1671C34.6819 18.1671 34.9571 17.8919 34.9571 17.5523C34.9571 17.2128 34.6819 16.9375 34.3424 16.9375C34.0028 16.9375 33.7275 17.2128 33.7275 17.5523C33.7275 17.8919 34.0028 18.1671 34.3424 18.1671Z" fill="#2D3C58"/>
<path id="Vector_12" d="M30.6539 16.3231C30.9935 16.3231 31.2687 16.0479 31.2687 15.7084C31.2687 15.3688 30.9935 15.0935 30.6539 15.0935C30.3143 15.0935 30.0391 15.3688 30.0391 15.7084C30.0391 16.0479 30.3143 16.3231 30.6539 16.3231Z" fill="#2D3C58"/>
<path id="Vector_13" d="M31.8833 18.1671C32.2229 18.1671 32.4982 17.8919 32.4982 17.5523C32.4982 17.2128 32.2229 16.9375 31.8833 16.9375C31.5438 16.9375 31.2686 17.2128 31.2686 17.5523C31.2686 17.8919 31.5438 18.1671 31.8833 18.1671Z" fill="#2D3C58"/>
<path id="Vector_14" d="M46.6389 20.2526V13.0076C46.6389 11.4454 45.3681 10.1746 43.8058 10.1746H12.5831C11.0208 10.1746 9.75 11.4454 9.75 13.0076V20.252C9.75 21.1551 10.1822 21.9513 10.8426 22.4702C10.1822 22.9898 9.75 23.7866 9.75 24.689V31.9334C9.75 32.8366 10.1822 33.6328 10.8426 34.1517C10.1822 34.6712 9.75 35.468 9.75 36.3706V43.6149C9.75 45.1778 11.0208 46.4486 12.5831 46.4486H43.8052C45.3674 46.4486 46.6382 45.1778 46.6382 43.6155V36.3706C46.6382 35.4674 46.2061 34.6712 45.5458 34.1523C46.2066 33.6334 46.6389 32.8366 46.6389 31.934V24.689C46.6389 23.7859 46.2066 22.9898 45.5463 22.4708C46.2066 21.9519 46.6389 21.1551 46.6389 20.2526ZM45.4093 36.3706V43.6149C45.4093 44.499 44.69 45.2184 43.8058 45.2184H12.5831C11.6989 45.219 10.9796 44.4996 10.9796 43.6155V36.3706C10.9796 35.4864 11.6989 34.7671 12.5831 34.7671H43.8052C44.69 34.7671 45.4093 35.4864 45.4093 36.3706ZM45.4093 24.689V31.9334C45.4093 32.8175 44.69 33.5368 43.8058 33.5368H12.5831C11.6989 33.5375 10.9796 32.8182 10.9796 31.934V24.689C10.9796 23.805 11.6989 23.0857 12.5831 23.0857H43.8052C44.69 23.0857 45.4093 23.805 45.4093 24.689ZM12.5831 21.856C11.6989 21.856 10.9796 21.1366 10.9796 20.2526V13.0076C10.9796 12.1235 11.6989 11.4042 12.5831 11.4042H43.8052C44.69 11.4042 45.4093 12.1235 45.4093 13.0076V20.252C45.4093 21.1361 44.69 21.8554 43.8058 21.8554L12.5831 21.856Z" fill="#2D3C58"/>
<path id="Vector_15" d="M16.2051 31.078C17.7305 31.078 18.9718 29.8367 18.9718 28.3113C18.9718 26.786 17.7305 25.5447 16.2051 25.5447C14.6798 25.5447 13.4385 26.786 13.4385 28.3113C13.4385 29.8367 14.6798 31.078 16.2051 31.078ZM16.2051 26.7743C17.0524 26.7743 17.7422 27.4635 17.7422 28.3113C17.7422 29.1591 17.0524 29.8484 16.2051 29.8484C15.3579 29.8484 14.6681 29.1591 14.6681 28.3113C14.6681 27.4635 15.3579 26.7743 16.2051 26.7743Z" fill="#2D3C58"/>
<path id="Vector_16" d="M40.4908 28.0038C40.8304 28.0038 41.1057 27.7285 41.1057 27.3889C41.1057 27.0494 40.8304 26.7742 40.4908 26.7742C40.1513 26.7742 39.876 27.0494 39.876 27.3889C39.876 27.7285 40.1513 28.0038 40.4908 28.0038Z" fill="#2D3C58"/>
<path id="Vector_17" d="M38.0318 28.0038C38.3714 28.0038 38.6466 27.7285 38.6466 27.3889C38.6466 27.0494 38.3714 26.7742 38.0318 26.7742C37.6923 26.7742 37.417 27.0494 37.417 27.3889C37.417 27.7285 37.6923 28.0038 38.0318 28.0038Z" fill="#2D3C58"/>
<path id="Vector_18" d="M41.7203 29.8485C42.0599 29.8485 42.3351 29.5732 42.3351 29.2337C42.3351 28.8941 42.0599 28.6189 41.7203 28.6189C41.3808 28.6189 41.1055 28.8941 41.1055 29.2337C41.1055 29.5732 41.3808 29.8485 41.7203 29.8485Z" fill="#2D3C58"/>
<path id="Vector_19" d="M39.2612 29.8485C39.6008 29.8485 39.8761 29.5732 39.8761 29.2337C39.8761 28.8941 39.6008 28.6189 39.2612 28.6189C38.9218 28.6189 38.6465 28.8941 38.6465 29.2337C38.6465 29.5732 38.9218 29.8485 39.2612 29.8485Z" fill="#2D3C58"/>
<path id="Vector_20" d="M35.5718 28.0038C35.9113 28.0038 36.1866 27.7285 36.1866 27.3889C36.1866 27.0494 35.9113 26.7742 35.5718 26.7742C35.2323 26.7742 34.957 27.0494 34.957 27.3889C34.957 27.7285 35.2323 28.0038 35.5718 28.0038Z" fill="#2D3C58"/>
<path id="Vector_21" d="M36.8023 29.8485C37.1419 29.8485 37.4172 29.5732 37.4172 29.2337C37.4172 28.8941 37.1419 28.6189 36.8023 28.6189C36.4628 28.6189 36.1875 28.8941 36.1875 29.2337C36.1875 29.5732 36.4628 29.8485 36.8023 29.8485Z" fill="#2D3C58"/>
<path id="Vector_22" d="M33.1129 28.0038C33.4525 28.0038 33.7277 27.7285 33.7277 27.3889C33.7277 27.0494 33.4525 26.7742 33.1129 26.7742C32.7733 26.7742 32.498 27.0494 32.498 27.3889C32.498 27.7285 32.7733 28.0038 33.1129 28.0038Z" fill="#2D3C58"/>
<path id="Vector_23" d="M34.3424 29.8485C34.6819 29.8485 34.9571 29.5732 34.9571 29.2337C34.9571 28.8941 34.6819 28.6189 34.3424 28.6189C34.0028 28.6189 33.7275 28.8941 33.7275 29.2337C33.7275 29.5732 34.0028 29.8485 34.3424 29.8485Z" fill="#2D3C58"/>
<path id="Vector_24" d="M30.6539 28.0038C30.9935 28.0038 31.2687 27.7285 31.2687 27.3889C31.2687 27.0494 30.9935 26.7742 30.6539 26.7742C30.3143 26.7742 30.0391 27.0494 30.0391 27.3889C30.0391 27.7285 30.3143 28.0038 30.6539 28.0038Z" fill="#2D3C58"/>
<path id="Vector_25" d="M31.8833 29.8485C32.2229 29.8485 32.4982 29.5732 32.4982 29.2337C32.4982 28.8941 32.2229 28.6189 31.8833 28.6189C31.5438 28.6189 31.2686 28.8941 31.2686 29.2337C31.2686 29.5732 31.5438 29.8485 31.8833 29.8485Z" fill="#2D3C58"/>
<path id="Vector_26" d="M16.2051 42.7597C17.7305 42.7597 18.9718 41.5183 18.9718 39.993C18.9718 38.4676 17.7305 37.2263 16.2051 37.2263C14.6798 37.2263 13.4385 38.4676 13.4385 39.993C13.4385 41.5183 14.6798 42.7597 16.2051 42.7597ZM16.2051 38.4559C17.0524 38.4559 17.7422 39.1452 17.7422 39.993C17.7422 40.8408 17.0524 41.5301 16.2051 41.5301C15.3579 41.5301 14.6681 40.8408 14.6681 39.993C14.6681 39.1452 15.3579 38.4559 16.2051 38.4559Z" fill="#2D3C58"/>
<path id="Vector_27" d="M40.4908 39.6857C40.8304 39.6857 41.1057 39.4105 41.1057 39.0709C41.1057 38.7313 40.8304 38.4561 40.4908 38.4561C40.1513 38.4561 39.876 38.7313 39.876 39.0709C39.876 39.4105 40.1513 39.6857 40.4908 39.6857Z" fill="#2D3C58"/>
<path id="Vector_28" d="M38.0318 39.6854C38.3714 39.6854 38.6466 39.4102 38.6466 39.0707C38.6466 38.7311 38.3714 38.4558 38.0318 38.4558C37.6923 38.4558 37.417 38.7311 37.417 39.0707C37.417 39.4102 37.6923 39.6854 38.0318 39.6854Z" fill="#2D3C58"/>
<path id="Vector_29" d="M41.7203 41.5301C42.0599 41.5301 42.3351 41.2549 42.3351 40.9154C42.3351 40.5758 42.0599 40.3005 41.7203 40.3005C41.3808 40.3005 41.1055 40.5758 41.1055 40.9154C41.1055 41.2549 41.3808 41.5301 41.7203 41.5301Z" fill="#2D3C58"/>
<path id="Vector_30" d="M39.2612 41.5301C39.6008 41.5301 39.8761 41.2549 39.8761 40.9154C39.8761 40.5758 39.6008 40.3005 39.2612 40.3005C38.9218 40.3005 38.6465 40.5758 38.6465 40.9154C38.6465 41.2549 38.9218 41.5301 39.2612 41.5301Z" fill="#2D3C58"/>
<path id="Vector_31" d="M35.5718 39.6854C35.9113 39.6854 36.1866 39.4102 36.1866 39.0707C36.1866 38.7311 35.9113 38.4558 35.5718 38.4558C35.2323 38.4558 34.957 38.7311 34.957 39.0707C34.957 39.4102 35.2323 39.6854 35.5718 39.6854Z" fill="#2D3C58"/>
<path id="Vector_32" d="M36.8023 41.5301C37.1419 41.5301 37.4172 41.2549 37.4172 40.9154C37.4172 40.5758 37.1419 40.3005 36.8023 40.3005C36.4628 40.3005 36.1875 40.5758 36.1875 40.9154C36.1875 41.2549 36.4628 41.5301 36.8023 41.5301Z" fill="#2D3C58"/>
<path id="Vector_33" d="M33.1129 39.6857C33.4525 39.6857 33.7277 39.4105 33.7277 39.0709C33.7277 38.7313 33.4525 38.4561 33.1129 38.4561C32.7733 38.4561 32.498 38.7313 32.498 39.0709C32.498 39.4105 32.7733 39.6857 33.1129 39.6857Z" fill="#2D3C58"/>
<path id="Vector_34" d="M34.3424 41.5301C34.6819 41.5301 34.9571 41.2549 34.9571 40.9154C34.9571 40.5758 34.6819 40.3005 34.3424 40.3005C34.0028 40.3005 33.7275 40.5758 33.7275 40.9154C33.7275 41.2549 34.0028 41.5301 34.3424 41.5301Z" fill="#2D3C58"/>
<path id="Vector_35" d="M30.6539 39.6857C30.9935 39.6857 31.2687 39.4105 31.2687 39.0709C31.2687 38.7313 30.9935 38.4561 30.6539 38.4561C30.3143 38.4561 30.0391 38.7313 30.0391 39.0709C30.0391 39.4105 30.3143 39.6857 30.6539 39.6857Z" fill="#2D3C58"/>
<path id="Vector_36" d="M31.8833 41.5301C32.2229 41.5301 32.4982 41.2549 32.4982 40.9154C32.4982 40.5758 32.2229 40.3005 31.8833 40.3005C31.5438 40.3005 31.2686 40.5758 31.2686 40.9154C31.2686 41.2549 31.5438 41.5301 31.8833 41.5301Z" fill="#2D3C58"/>
</g>
</g>
</g>
</g>
<defs>
<linearGradient id="paint0_linear_1_610" x1="0.527344" y1="13.5559" x2="28.194" y2="55.9781" gradientUnits="userSpaceOnUse">
<stop stop-color="#E8ECFF"/>
<stop offset="1" stop-color="#E3D1FF"/>
</linearGradient>
<clipPath id="clip0_1_610">
<rect width="55.3333" height="55.3333" fill="white" transform="translate(0.527344 0.644775)"/>
</clipPath>
</defs>
</svg>
