<svg width="56" height="56" viewBox="0 0 56 56" fill="none" xmlns="http://www.w3.org/2000/svg">
<g id="Frame" clip-path="url(#clip0_1_516)">
<path id="Vector" d="M50.3273 0.277344H6.06068C3.0047 0.277344 0.527344 2.7547 0.527344 5.81068V50.0773C0.527344 53.1333 3.0047 55.6107 6.06068 55.6107H50.3273C53.3833 55.6107 55.8607 53.1333 55.8607 50.0773V5.81068C55.8607 2.7547 53.3833 0.277344 50.3273 0.277344Z" fill="url(#paint0_linear_1_516)"/>
<path id="Vector_2" d="M32.2447 17.2327C33.7088 17.2327 34.8997 16.0418 34.8997 14.5778C34.8997 13.1138 33.7088 11.9229 32.2447 11.9229C30.7808 11.9229 29.5898 13.1138 29.5898 14.5778C29.5898 16.0418 30.7808 17.2327 32.2447 17.2327ZM32.2447 12.7943C33.2265 12.7943 34.0282 13.5959 34.0282 14.5778C34.0282 15.5596 33.2265 16.3613 32.2447 16.3613C31.2629 16.3613 30.4613 15.5596 30.4613 14.5778C30.4613 13.5959 31.2629 12.7943 32.2447 12.7943Z" fill="#2D3C58"/>
<path id="Vector_3" d="M13.1424 23.2213L12.393 23.9708C12.2245 24.1392 12.2245 24.4181 12.393 24.5866C12.4801 24.6737 12.5904 24.7144 12.7008 24.7144C12.8112 24.7144 12.9216 24.6737 13.0087 24.5866L13.7581 23.8372C13.9266 23.6687 13.9266 23.3898 13.7581 23.2213C13.5896 23.0528 13.3109 23.047 13.1424 23.2213Z" fill="#2D3C58"/>
<path id="Vector_4" d="M15.6238 23.2213L14.8744 23.9708C14.7059 24.1392 14.7059 24.4181 14.8744 24.5866C14.9616 24.6737 15.072 24.7144 15.1823 24.7144C15.2926 24.7144 15.403 24.6737 15.4902 24.5866L16.2396 23.8372C16.4081 23.6687 16.4081 23.3898 16.2396 23.2213C16.0712 23.0528 15.7981 23.047 15.6238 23.2213Z" fill="#2D3C58"/>
<path id="Vector_5" d="M18.1043 23.2213L17.3549 23.9708C17.1864 24.1392 17.1864 24.4181 17.3549 24.5866C17.442 24.6737 17.5524 24.7144 17.6628 24.7144C17.7732 24.7144 17.8836 24.6737 17.9707 24.5866L18.7201 23.8372C18.8886 23.6687 18.8886 23.3898 18.7201 23.2213C18.5517 23.0528 18.2786 23.047 18.1043 23.2213Z" fill="#2D3C58"/>
<path id="Vector_6" d="M20.5896 23.2213L19.8402 23.9708C19.6717 24.1392 19.6717 24.4181 19.8402 24.5866C19.9274 24.6737 20.0378 24.7144 20.1482 24.7144C20.2585 24.7144 20.3689 24.6737 20.456 24.5866L21.2055 23.8372C21.3739 23.6687 21.3739 23.3898 21.2055 23.2213C21.037 23.0528 20.7581 23.047 20.5896 23.2213Z" fill="#2D3C58"/>
<path id="Vector_7" d="M23.0711 23.2213L22.3217 23.9708C22.1532 24.1392 22.1532 24.4181 22.3217 24.5866C22.4088 24.6737 22.5192 24.7144 22.6296 24.7144C22.74 24.7144 22.8504 24.6737 22.9374 24.5866L23.6869 23.8372C23.8554 23.6687 23.8554 23.3898 23.6869 23.2213C23.5184 23.0528 23.2396 23.047 23.0711 23.2213Z" fill="#2D3C58"/>
<path id="Vector_8" d="M25.5516 23.2213L24.8021 23.9708C24.6337 24.1392 24.6337 24.4181 24.8021 24.5866C24.8893 24.6737 24.9997 24.7144 25.1101 24.7144C25.2205 24.7144 25.3309 24.6737 25.418 24.5866L26.1674 23.8372C26.3359 23.6687 26.3359 23.3898 26.1674 23.2213C25.9989 23.0528 25.7258 23.047 25.5516 23.2213Z" fill="#2D3C58"/>
<path id="Vector_9" d="M13.1424 26.0516L12.393 26.801C12.2245 26.9695 12.2245 27.2484 12.393 27.4169C12.4801 27.504 12.5904 27.5447 12.7008 27.5447C12.8112 27.5447 12.9216 27.504 13.0087 27.4169L13.7581 26.6675C13.9266 26.499 13.9266 26.2201 13.7581 26.0516C13.5838 25.8773 13.3109 25.8773 13.1424 26.0516Z" fill="#2D3C58"/>
<path id="Vector_10" d="M15.6238 26.0514L14.8744 26.8008C14.7059 26.9693 14.7059 27.2482 14.8744 27.4167C14.9616 27.5038 15.072 27.5445 15.1823 27.5445C15.2926 27.5445 15.403 27.5038 15.4902 27.4167L16.2396 26.6672C16.4081 26.4988 16.4081 26.2199 16.2396 26.0514C16.0712 25.8829 15.7923 25.8771 15.6238 26.0514Z" fill="#2D3C58"/>
<path id="Vector_11" d="M18.1043 26.0516L17.3549 26.801C17.1864 26.9695 17.1864 27.2484 17.3549 27.4169C17.442 27.504 17.5524 27.5447 17.6628 27.5447C17.7732 27.5447 17.8836 27.504 17.9707 27.4169L18.7201 26.6675C18.8886 26.499 18.8886 26.2201 18.7201 26.0516C18.5517 25.8773 18.2786 25.8773 18.1043 26.0516Z" fill="#2D3C58"/>
<path id="Vector_12" d="M20.5896 26.0516L19.8402 26.801C19.6717 26.9695 19.6717 27.2484 19.8402 27.4169C19.9274 27.504 20.0378 27.5447 20.1482 27.5447C20.2585 27.5447 20.3689 27.504 20.456 27.4169L21.2055 26.6675C21.3739 26.499 21.3739 26.2201 21.2055 26.0516C21.0312 25.8773 20.7581 25.8773 20.5896 26.0516Z" fill="#2D3C58"/>
<path id="Vector_13" d="M23.0711 26.0514L22.3217 26.8008C22.1532 26.9693 22.1532 27.2482 22.3217 27.4167C22.4088 27.5038 22.5192 27.5445 22.6296 27.5445C22.74 27.5445 22.8504 27.5038 22.9374 27.4167L23.6869 26.6672C23.8554 26.4988 23.8554 26.2199 23.6869 26.0514C23.5184 25.8829 23.2396 25.8771 23.0711 26.0514Z" fill="#2D3C58"/>
<path id="Vector_14" d="M25.5516 26.0516L24.8021 26.801C24.6337 26.9695 24.6337 27.2484 24.8021 27.4169C24.8893 27.504 24.9997 27.5447 25.1101 27.5447C25.2205 27.5447 25.3309 27.504 25.418 27.4169L26.1674 26.6675C26.3359 26.499 26.3359 26.2201 26.1674 26.0516C25.9989 25.8773 25.7258 25.8773 25.5516 26.0516Z" fill="#2D3C58"/>
<path id="Vector_15" d="M13.1419 34.2143L12.3924 34.9637C12.2181 35.1321 12.2181 35.411 12.3924 35.5795C12.4796 35.6667 12.59 35.7073 12.7004 35.7073C12.8108 35.7073 12.9212 35.6667 13.0083 35.5795L13.7577 34.83C13.9262 34.6616 13.9262 34.3827 13.7577 34.2143C13.5892 34.0458 13.3103 34.0458 13.1419 34.2143Z" fill="#2D3C58"/>
<path id="Vector_16" d="M15.6238 34.2143L14.8744 34.9637C14.7059 35.1321 14.7059 35.411 14.8744 35.5795C14.9616 35.6667 15.072 35.7073 15.1823 35.7073C15.2926 35.7073 15.403 35.6667 15.4902 35.5795L16.2396 34.83C16.4081 34.6616 16.4081 34.3827 16.2396 34.2143C16.0712 34.0458 15.7981 34.0458 15.6238 34.2143Z" fill="#2D3C58"/>
<path id="Vector_17" d="M18.1043 34.2143L17.3549 34.9637C17.1864 35.1321 17.1864 35.411 17.3549 35.5795C17.442 35.6667 17.5524 35.7073 17.6628 35.7073C17.7732 35.7073 17.8836 35.6667 17.9707 35.5795L18.7201 34.83C18.8886 34.6616 18.8886 34.3827 18.7201 34.2143C18.5517 34.0458 18.2786 34.0458 18.1043 34.2143Z" fill="#2D3C58"/>
<path id="Vector_18" d="M20.5896 34.2143L19.8402 34.9637C19.6717 35.1321 19.6717 35.411 19.8402 35.5795C19.9274 35.6667 20.0378 35.7073 20.1482 35.7073C20.2585 35.7073 20.3689 35.6667 20.456 35.5795L21.2055 34.83C21.3739 34.6616 21.3739 34.3827 21.2055 34.2143C21.037 34.0458 20.7581 34.0458 20.5896 34.2143Z" fill="#2D3C58"/>
<path id="Vector_19" d="M23.0711 34.2143L22.3217 34.9637C22.1532 35.1321 22.1532 35.411 22.3217 35.5795C22.4088 35.6667 22.5192 35.7073 22.6296 35.7073C22.74 35.7073 22.8504 35.6667 22.9374 35.5795L23.6869 34.83C23.8554 34.6616 23.8554 34.3827 23.6869 34.2143C23.5184 34.0458 23.2396 34.0458 23.0711 34.2143Z" fill="#2D3C58"/>
<path id="Vector_20" d="M25.5516 34.2143L24.8021 34.9637C24.6337 35.1321 24.6337 35.411 24.8021 35.5795C24.8893 35.6667 24.9997 35.7073 25.1101 35.7073C25.2205 35.7073 25.3309 35.6667 25.418 35.5795L26.1674 34.83C26.3359 34.6616 26.3359 34.3827 26.1674 34.2143C25.9989 34.0458 25.7258 34.0458 25.5516 34.2143Z" fill="#2D3C58"/>
<path id="Vector_21" d="M13.1424 37.0434L12.393 37.7928C12.2245 37.9612 12.2245 38.2401 12.393 38.4086C12.4801 38.4958 12.5904 38.5364 12.7008 38.5364C12.8112 38.5364 12.9216 38.4958 13.0087 38.4086L13.7581 37.6592C13.9266 37.4907 13.9266 37.2118 13.7581 37.0434C13.5896 36.8749 13.3109 36.8749 13.1424 37.0434Z" fill="#2D3C58"/>
<path id="Vector_22" d="M15.6238 37.0434L14.8744 37.7928C14.7059 37.9612 14.7059 38.2401 14.8744 38.4086C14.9616 38.4958 15.072 38.5364 15.1823 38.5364C15.2926 38.5364 15.403 38.4958 15.4902 38.4086L16.2396 37.6592C16.4081 37.4907 16.4081 37.2118 16.2396 37.0434C16.0712 36.8749 15.7981 36.8749 15.6238 37.0434Z" fill="#2D3C58"/>
<path id="Vector_23" d="M18.1043 37.0434L17.3549 37.7928C17.1864 37.9612 17.1864 38.2401 17.3549 38.4086C17.442 38.4958 17.5524 38.5364 17.6628 38.5364C17.7732 38.5364 17.8836 38.4958 17.9707 38.4086L18.7201 37.6592C18.8886 37.4907 18.8886 37.2118 18.7201 37.0434C18.5517 36.8749 18.2786 36.8749 18.1043 37.0434Z" fill="#2D3C58"/>
<path id="Vector_24" d="M20.5896 37.0434L19.8402 37.7928C19.6717 37.9612 19.6717 38.2401 19.8402 38.4086C19.9274 38.4958 20.0378 38.5364 20.1482 38.5364C20.2585 38.5364 20.3689 38.4958 20.456 38.4086L21.2055 37.6592C21.3739 37.4907 21.3739 37.2118 21.2055 37.0434C21.037 36.8749 20.7581 36.8749 20.5896 37.0434Z" fill="#2D3C58"/>
<path id="Vector_25" d="M23.0711 37.0434L22.3217 37.7928C22.1532 37.9612 22.1532 38.2401 22.3217 38.4086C22.4088 38.4958 22.5192 38.5364 22.6296 38.5364C22.74 38.5364 22.8504 38.4958 22.9374 38.4086L23.6869 37.6592C23.8554 37.4907 23.8554 37.2118 23.6869 37.0434C23.5184 36.8749 23.2396 36.8749 23.0711 37.0434Z" fill="#2D3C58"/>
<path id="Vector_26" d="M25.5516 37.0434L24.8021 37.7928C24.6337 37.9612 24.6337 38.2401 24.8021 38.4086C24.8893 38.4958 24.9997 38.5364 25.1101 38.5364C25.2205 38.5364 25.3309 38.4958 25.418 38.4086L26.1674 37.6592C26.3359 37.4907 26.3359 37.2118 26.1674 37.0434C25.9989 36.8749 25.7258 36.8749 25.5516 37.0434Z" fill="#2D3C58"/>
<path id="Vector_27" d="M12.7008 13.7239C12.8112 13.7239 12.9216 13.6832 13.0087 13.596L13.7581 12.8467C13.9266 12.6782 13.9266 12.3993 13.7581 12.2308C13.5896 12.0624 13.3109 12.0624 13.1424 12.2308L12.393 12.9803C12.2245 13.1488 12.2245 13.4276 12.393 13.596C12.4743 13.6774 12.5846 13.7239 12.7008 13.7239Z" fill="#2D3C58"/>
<path id="Vector_28" d="M15.1823 13.7239C15.2926 13.7239 15.403 13.6832 15.4902 13.596L16.2396 12.8467C16.4081 12.6782 16.4081 12.3993 16.2396 12.2308C16.0712 12.0624 15.7923 12.0624 15.6238 12.2308L14.8744 12.9803C14.7059 13.1488 14.7059 13.4276 14.8744 13.596C14.9558 13.6774 15.072 13.7239 15.1823 13.7239Z" fill="#2D3C58"/>
<path id="Vector_29" d="M17.6628 13.7236C17.7732 13.7236 17.8836 13.683 17.9707 13.5958L18.7201 12.8464C18.8886 12.6779 18.8886 12.399 18.7201 12.2305C18.5517 12.0621 18.2728 12.0621 18.1043 12.2305L17.3549 12.98C17.1864 13.1485 17.1864 13.4273 17.3549 13.5958C17.442 13.6771 17.5524 13.7236 17.6628 13.7236Z" fill="#2D3C58"/>
<path id="Vector_30" d="M20.1482 13.7239C20.2585 13.7239 20.3689 13.6832 20.456 13.596L21.2055 12.8467C21.3739 12.6782 21.3739 12.3993 21.2055 12.2308C21.037 12.0624 20.7581 12.0624 20.5896 12.2308L19.8402 12.9803C19.6717 13.1488 19.6717 13.4276 19.8402 13.596C19.9216 13.6774 20.032 13.7239 20.1482 13.7239Z" fill="#2D3C58"/>
<path id="Vector_31" d="M22.6296 13.7236C22.74 13.7236 22.8504 13.683 22.9374 13.5958L23.6869 12.8464C23.8554 12.6779 23.8554 12.399 23.6869 12.2305C23.5184 12.0621 23.2396 12.0621 23.0711 12.2305L22.3217 12.98C22.1532 13.1485 22.1532 13.4273 22.3217 13.5958C22.403 13.6771 22.5192 13.7236 22.6296 13.7236Z" fill="#2D3C58"/>
<path id="Vector_32" d="M25.1101 13.7239C25.2205 13.7239 25.3309 13.6832 25.418 13.596L26.1674 12.8467C26.3359 12.6782 26.3359 12.3993 26.1674 12.2308C25.9989 12.0624 25.72 12.0624 25.5516 12.2308L24.8021 12.9803C24.6337 13.1488 24.6337 13.4276 24.8021 13.596C24.8893 13.6774 24.9997 13.7239 25.1101 13.7239Z" fill="#2D3C58"/>
<path id="Vector_33" d="M13.7581 15.0541C13.5896 14.8856 13.3109 14.8856 13.1424 15.0541L12.393 15.8093C12.2245 15.9778 12.2245 16.2567 12.393 16.4251C12.4801 16.5122 12.5904 16.5529 12.7008 16.5529C12.8112 16.5529 12.9216 16.5122 13.0087 16.4251L13.7581 15.6757C13.9266 15.5014 13.9266 15.2283 13.7581 15.0541Z" fill="#2D3C58"/>
<path id="Vector_34" d="M15.1823 16.553C15.2926 16.553 15.403 16.5124 15.4902 16.4252L16.2396 15.6758C16.4081 15.5073 16.4081 15.2285 16.2396 15.06C16.0712 14.8915 15.7923 14.8915 15.6238 15.06L14.8744 15.8094C14.7059 15.9778 14.7059 16.2567 14.8744 16.4252C14.9558 16.5066 15.072 16.553 15.1823 16.553Z" fill="#2D3C58"/>
<path id="Vector_35" d="M17.6628 16.5528C17.7732 16.5528 17.8836 16.5121 17.9707 16.425L18.7201 15.6756C18.8886 15.5071 18.8886 15.2282 18.7201 15.0597C18.5517 14.8912 18.2728 14.8912 18.1043 15.0597L17.3549 15.8091C17.1864 15.9776 17.1864 16.2565 17.3549 16.425C17.442 16.5063 17.5524 16.5528 17.6628 16.5528Z" fill="#2D3C58"/>
<path id="Vector_36" d="M20.1482 16.553C20.2585 16.553 20.3689 16.5124 20.456 16.4252L21.2055 15.6758C21.3739 15.5073 21.3739 15.2285 21.2055 15.06C21.037 14.8915 20.7581 14.8915 20.5896 15.06L19.8402 15.8094C19.6717 15.9778 19.6717 16.2567 19.8402 16.4252C19.9216 16.5066 20.032 16.553 20.1482 16.553Z" fill="#2D3C58"/>
<path id="Vector_37" d="M22.6296 16.5528C22.74 16.5528 22.8504 16.5121 22.9374 16.425L23.6869 15.6756C23.8554 15.5071 23.8554 15.2282 23.6869 15.0597C23.5184 14.8912 23.2396 14.8912 23.0711 15.0597L22.3217 15.8091C22.1532 15.9776 22.1532 16.2565 22.3217 16.425C22.403 16.5063 22.5192 16.5528 22.6296 16.5528Z" fill="#2D3C58"/>
<path id="Vector_38" d="M25.1101 16.553C25.2205 16.553 25.3309 16.5124 25.418 16.4252L26.1674 15.6758C26.3359 15.5073 26.3359 15.2285 26.1674 15.06C25.9989 14.8915 25.72 14.8915 25.5516 15.06L24.8021 15.8094C24.6337 15.9778 24.6337 16.2567 24.8021 16.4252C24.8893 16.5066 24.9997 16.553 25.1101 16.553Z" fill="#2D3C58"/>
<path id="Vector_39" d="M32.2447 28.2239C33.7088 28.2239 34.8997 27.033 34.8997 25.569C34.8997 24.105 33.7088 22.9141 32.2447 22.9141C30.7808 22.9141 29.5898 24.105 29.5898 25.569C29.5898 27.033 30.7808 28.2239 32.2447 28.2239ZM32.2447 23.7855C33.2265 23.7855 34.0282 24.5872 34.0282 25.569C34.0282 26.5508 33.2265 27.3525 32.2447 27.3525C31.2629 27.3525 30.4613 26.5508 30.4613 25.569C30.4613 24.5872 31.2629 23.7855 32.2447 23.7855Z" fill="#2D3C58"/>
<path id="Vector_40" d="M44.0492 30.6988C44.0376 30.6872 44.0318 30.6756 44.0201 30.6698C42.4515 28.8281 40.2324 27.7069 37.8389 27.5094V21.9323C37.8389 21.1422 37.194 20.4973 36.3981 20.4973H34.9225V19.1554H36.3981C37.194 19.1554 37.8389 18.5105 37.8389 17.7146V10.9408C37.8389 10.1448 37.194 9.5 36.3981 9.5H11.1908C10.3948 9.5 9.75 10.1448 9.75 10.9408V17.7088C9.75 18.5047 10.3948 19.1496 11.1908 19.1496H12.6663V20.4915H11.1908C10.3948 20.4915 9.75 21.1364 9.75 21.9265V28.7003C9.75 29.4963 10.3948 30.1411 11.1908 30.1411H12.6663V31.4889H11.1908C10.3948 31.4889 9.75 32.1337 9.75 32.9296V39.6977C9.75 40.4936 10.3948 41.1442 11.1908 41.1442H29.2466C30.1761 42.7361 31.5762 44.0432 33.3132 44.8391C33.6386 44.9902 33.9872 45.1296 34.3415 45.24C35.2304 45.5188 36.1541 45.664 37.0953 45.664C38.1177 45.664 39.117 45.4955 40.0697 45.1645H40.0755C40.546 45.0018 41.0167 44.7926 41.4697 44.5486C41.4814 44.5428 41.4988 44.5312 41.5104 44.5254C44.392 42.9162 46.1871 39.8778 46.1871 36.578C46.1871 34.8468 45.6991 33.162 44.7754 31.7097C44.5662 31.3553 44.3165 31.0183 44.0492 30.6988ZM40.9063 43.8457C40.6739 43.9677 40.4357 44.0781 40.1917 44.171L36.3632 33.4699H38.0771L40.3079 40.8248C40.3659 41.0107 40.5344 41.1327 40.7262 41.1327H40.732C40.9237 41.1327 41.0922 41.0049 41.1445 40.8189L42.7014 35.3929C42.7362 35.265 42.713 35.1256 42.6375 35.0152C42.2889 34.5331 41.4407 33.0865 41.7079 32.2093C41.8416 31.7736 42.1147 31.4482 42.4864 31.2972C42.7943 31.1694 43.1371 31.1868 43.445 31.3262C43.6483 31.5703 43.8342 31.8258 44.0027 32.0873C44.2642 33.3421 43.5437 35.4393 43.5321 35.4742L40.9063 43.8457ZM34.2021 44.2466C34.086 44.2001 33.964 44.1594 33.8478 44.1071L30.2691 32.8366H31.797L34.8993 42.0912L34.2021 44.2466ZM35.3407 40.6621L32.7207 32.8366H32.9357C33.1738 32.8366 33.3713 32.6392 33.3713 32.401C33.3713 32.1628 33.1738 31.9652 32.9357 31.9652H32.1165H30.2807C31.8028 29.7112 34.3473 28.3402 37.0953 28.3402C39.1112 28.3402 41.0283 29.0838 42.5154 30.3967C42.3935 30.42 42.2715 30.4548 42.1495 30.5013C41.5336 30.7511 41.0806 31.2739 40.8714 31.9652C40.4879 33.2143 41.4407 34.8061 41.8067 35.358L40.7145 39.1632L38.9891 33.4699H39.1925C39.4306 33.4699 39.6282 33.2724 39.6282 33.0342C39.6282 32.7961 39.4306 32.5985 39.1925 32.5985H35.0213C34.7831 32.5985 34.5855 32.7961 34.5855 33.0342C34.5855 33.2724 34.7831 33.4699 35.0213 33.4699H35.4453L36.5782 36.6361L35.3407 40.6621ZM10.6214 17.7088V10.9408C10.6214 10.627 10.877 10.3714 11.1908 10.3714H36.4039C36.7176 10.3714 36.9733 10.627 36.9733 10.9408V17.7088C36.9733 18.0225 36.7176 18.2782 36.4039 18.2782H11.1908C10.877 18.2782 10.6214 18.0225 10.6214 17.7088ZM13.5319 19.1496H34.0511V20.4915H13.5319V19.1496ZM10.6214 28.7061V21.9323C10.6214 21.6186 10.877 21.3688 11.1908 21.3688H13.0905H13.0963H13.1021H34.481H34.4868H34.4926H36.3981C36.7118 21.3688 36.9675 21.6244 36.9675 21.9323V27.4746C35.0213 27.5036 33.1796 28.1484 31.6692 29.2755H11.1908C10.877 29.2697 10.6214 29.014 10.6214 28.7061ZM13.5319 30.1411H30.6525C30.2458 30.5478 29.8741 31.0009 29.5429 31.4889H13.5319V30.1411ZM11.1908 40.267C10.877 40.267 10.6214 40.0114 10.6214 39.6919V32.9296C10.6214 32.616 10.877 32.3603 11.1908 32.3603H29.0316C28.3578 33.65 28.0034 35.0966 28.0034 36.5606C28.0034 37.8619 28.288 39.1167 28.7993 40.267H11.1908ZM28.8691 36.5606C28.8691 35.4568 29.1014 34.3704 29.5255 33.3654L32.7556 43.5436C30.3678 42.0564 28.8691 39.4188 28.8691 36.5606ZM35.0271 44.5195L35.7707 42.2248V42.219L37.0546 38.0188L39.3609 44.4614C37.9609 44.8623 36.4446 44.8798 35.0271 44.5195ZM42.0449 43.1253L44.3571 35.7531C44.3804 35.695 44.6824 34.8061 44.8393 33.7837C45.1588 34.6667 45.3215 35.602 45.3215 36.5606C45.3215 39.1632 44.0899 41.5858 42.0449 43.1253Z" fill="#2D3C58"/>
<path id="Vector_41" d="M46.5987 30.0593C45.3728 27.3404 43.049 26.1087 41.3236 25.5569C41.0912 25.4813 40.8472 25.6092 40.7776 25.8416C40.7021 26.0681 40.8298 26.3179 41.0622 26.3876C42.625 26.8873 44.7164 27.9911 45.8086 30.4194C45.8841 30.5821 46.0409 30.675 46.2036 30.675C46.2617 30.675 46.3256 30.6634 46.3837 30.6344C46.6045 30.5356 46.6974 30.2799 46.5987 30.0593Z" fill="#2D3C58"/>
<path id="Vector_42" d="M39.2744 26.0052C39.286 26.0052 39.4662 26.0226 39.7683 26.0691C39.7915 26.0749 39.8147 26.0749 39.8437 26.0749C40.0529 26.0749 40.2388 25.9239 40.2736 25.7089C40.3143 25.4708 40.1516 25.2442 39.9134 25.2093C39.5475 25.1454 39.3325 25.1338 39.3325 25.1338C39.0943 25.1106 38.8851 25.2965 38.8677 25.5405C38.8561 25.7786 39.0362 25.9878 39.2744 26.0052Z" fill="#2D3C58"/>
</g>
<defs>
<linearGradient id="paint0_linear_1_516" x1="0.527344" y1="13.1885" x2="28.194" y2="55.6107" gradientUnits="userSpaceOnUse">
<stop stop-color="#E8ECFF"/>
<stop offset="1" stop-color="#E3D1FF"/>
</linearGradient>
<clipPath id="clip0_1_516">
<rect width="55.3333" height="55.3333" fill="white" transform="translate(0.527344 0.277344)"/>
</clipPath>
</defs>
</svg>
