<svg width="57" height="56" viewBox="0 0 57 56" fill="none" xmlns="http://www.w3.org/2000/svg">
<g id="Frame" clip-path="url(#clip0_1_582)">
<path id="Vector" d="M50.5773 0.644775H6.31068C3.2547 0.644775 0.777344 3.12213 0.777344 6.17811V50.4448C0.777344 53.5008 3.2547 55.9781 6.31068 55.9781H50.5773C53.6333 55.9781 56.1107 53.5008 56.1107 50.4448V6.17811C56.1107 3.12213 53.6333 0.644775 50.5773 0.644775Z" fill="url(#paint0_linear_1_582)"/>
<g id="Clip path group">
<mask id="mask0_1_582" style="mask-type:luminance" maskUnits="userSpaceOnUse" x="7" y="9" width="44" height="38">
<g id="b">
<path id="Vector_2" d="M50.5375 9.86865H7.23315V46.7575H50.5375V9.86865Z" fill="white"/>
</g>
</mask>
<g mask="url(#mask0_1_582)">
<g id="Group">
<path id="Vector_3" d="M18.8293 42.804H17.4168C16.9516 42.804 16.571 42.4239 16.571 41.9593C16.571 41.4946 16.9516 41.1145 17.4168 41.1145H18.8293C19.2945 41.1145 19.6751 41.4946 19.6751 41.9593C19.6751 42.4239 19.2945 42.804 18.8293 42.804Z" fill="#2D3C58"/>
<path id="Vector_4" d="M30.5858 42.804H22.9569C22.4917 42.804 22.1111 42.4239 22.1111 41.9593C22.1111 41.4946 22.4917 41.1145 22.9569 41.1145H30.5858C31.051 41.1145 31.4316 41.4946 31.4316 41.9593C31.4316 42.4239 31.051 42.804 30.5858 42.804Z" fill="#2D3C58"/>
<path id="Vector_5" d="M18.8293 30.632H17.4168C16.9516 30.632 16.571 30.2519 16.571 29.7873C16.571 29.3228 16.9516 28.9426 17.4168 28.9426H18.8293C19.2945 28.9426 19.6751 29.3228 19.6751 29.7873C19.6751 30.2519 19.2945 30.632 18.8293 30.632Z" fill="#2D3C58"/>
<path id="Vector_6" d="M33.3765 34.585H10.0074C8.47647 34.585 7.23315 33.3432 7.23315 31.8142V27.6245C7.23315 26.0955 8.47647 24.8538 10.0074 24.8538H20.6558C20.9857 24.8538 21.2901 25.0481 21.4255 25.3437C22.3897 27.4302 24.4957 28.7817 26.7878 28.7817H35.3133C35.7785 28.7817 36.1591 29.1618 36.1591 29.6264V31.8142C36.1591 33.3432 34.9074 34.585 33.3765 34.585ZM10.0074 26.5432C9.40683 26.5432 8.92473 27.0332 8.92473 27.6245V31.8142C8.92473 32.414 9.41529 32.8955 10.0074 32.8955H33.3765C33.977 32.8955 34.4591 32.4056 34.4591 31.8142V30.4712H26.7878C24.0136 30.4712 21.4594 28.9422 20.1314 26.5432H10.0074Z" fill="#2D3C58"/>
<path id="Vector_7" d="M33.3765 46.7568H10.0074C8.47647 46.7568 7.23315 45.5151 7.23315 43.9861V39.7963C7.23315 38.2674 8.47647 37.0256 10.0074 37.0256H33.3765C34.9074 37.0256 36.1506 38.2674 36.1506 39.7963V43.9861C36.1591 45.5151 34.9074 46.7568 33.3765 46.7568ZM10.0074 38.7151C9.40683 38.7151 8.92473 39.205 8.92473 39.7963V43.9861C8.92473 44.5858 9.41529 45.0673 10.0074 45.0673H33.3765C33.977 45.0673 34.4591 44.5774 34.4591 43.9861V39.7963C34.4591 39.1965 33.9685 38.7151 33.3765 38.7151H10.0074Z" fill="#2D3C58"/>
<path id="Vector_8" d="M32.1511 38.7149H11.0994C10.6343 38.7149 10.2537 38.3348 10.2537 37.8702V33.7395C10.2537 33.2749 10.6343 32.8948 11.0994 32.8948H32.1511C32.6163 32.8948 32.9969 33.2749 32.9969 33.7395V37.8702C32.9969 38.3348 32.6163 38.7149 32.1511 38.7149ZM11.9452 37.0254H31.3053V34.5842H11.9452V37.0254Z" fill="#2D3C58"/>
<path id="Vector_9" d="M13.1955 42.7364C13.1448 42.7364 13.0856 42.7279 13.0348 42.7195C12.9841 42.711 12.9249 42.6941 12.8741 42.6688C12.8234 42.6434 12.7726 42.6181 12.7304 42.5928C12.6795 42.5589 12.6373 42.5252 12.6035 42.4829C12.5696 42.4407 12.5274 42.3985 12.5019 42.3562C12.4682 42.314 12.4428 42.2633 12.4258 42.2126C12.4005 42.1619 12.392 42.1113 12.3751 42.0522C12.3666 41.993 12.3582 41.9423 12.3582 41.8832C12.3582 41.8241 12.3666 41.7734 12.3751 41.7143C12.3836 41.6635 12.4005 41.6044 12.4258 41.5538C12.4512 41.5031 12.4766 41.4523 12.5019 41.4101C12.5358 41.3679 12.5696 41.3172 12.6035 41.2834C12.6373 41.2496 12.688 41.2074 12.7304 41.182C12.7726 41.1483 12.8234 41.1229 12.8741 41.1061C12.9249 41.0807 12.9756 41.0723 13.0348 41.0553C13.1448 41.0301 13.2547 41.0301 13.3647 41.0553C13.4154 41.0638 13.4746 41.0807 13.5254 41.1061C13.5761 41.1314 13.6269 41.1568 13.6692 41.182C13.7114 41.2159 13.7622 41.2496 13.796 41.2834C13.8383 41.3256 13.8722 41.3679 13.906 41.4101C13.9399 41.4523 13.9652 41.5031 13.9821 41.5538C14.0075 41.6044 14.0159 41.6551 14.0328 41.7143C14.0413 41.7649 14.0498 41.8241 14.0498 41.8832C14.0498 41.9423 14.0413 41.993 14.0328 42.0522C14.0244 42.1028 14.0075 42.1619 13.9821 42.2126C13.9567 42.2633 13.9314 42.314 13.906 42.3562C13.8722 42.3985 13.8383 42.4492 13.796 42.4829C13.7538 42.5252 13.7114 42.5589 13.6692 42.5928C13.6269 42.6265 13.5761 42.6519 13.5254 42.6688C13.4746 42.6941 13.4239 42.7026 13.3647 42.7195C13.3055 42.7364 13.2463 42.7364 13.1955 42.7364Z" fill="#2D3C58"/>
<path id="Vector_10" d="M13.1955 30.6312C13.1448 30.6312 13.0856 30.6228 13.0348 30.6143C12.9841 30.6059 12.9249 30.589 12.8741 30.5637C12.8234 30.5383 12.7726 30.513 12.7304 30.4876C12.6795 30.4538 12.6373 30.4201 12.6035 30.3779C12.5696 30.3356 12.5274 30.2934 12.5019 30.2511C12.4682 30.2089 12.4428 30.1582 12.4258 30.1075C12.4005 30.0568 12.392 30.0061 12.3751 29.947C12.3666 29.8964 12.3582 29.8372 12.3582 29.778C12.3582 29.7274 12.3666 29.6682 12.3751 29.6176C12.3836 29.5669 12.4005 29.5077 12.4258 29.4571C12.4512 29.4064 12.4766 29.3557 12.5019 29.3134C12.5358 29.2712 12.5696 29.2206 12.6035 29.1867C12.6373 29.153 12.688 29.1107 12.7304 29.0854C12.7726 29.0516 12.8234 29.0262 12.8741 29.0094C12.9249 28.984 12.9756 28.9756 13.0348 28.9586C13.1448 28.9334 13.2547 28.9334 13.3647 28.9586C13.4154 28.9671 13.4746 28.984 13.5254 29.0094C13.5761 29.0347 13.6269 29.0601 13.6692 29.0854C13.7114 29.1192 13.7622 29.153 13.796 29.1867C13.8383 29.229 13.8722 29.2712 13.906 29.3134C13.9399 29.3557 13.9652 29.4064 13.9821 29.4571C13.9991 29.5077 14.0159 29.5585 14.0328 29.6176C14.0413 29.6682 14.0498 29.7274 14.0498 29.778C14.0498 29.8372 14.0413 29.8879 14.0328 29.947C14.0244 29.9977 14.0075 30.0568 13.9821 30.1075C13.9567 30.1582 13.9399 30.2089 13.906 30.2511C13.8722 30.2934 13.8383 30.344 13.796 30.3779C13.7538 30.4201 13.7114 30.4538 13.6692 30.4876C13.6269 30.5214 13.5761 30.5467 13.5254 30.5637C13.4746 30.589 13.4239 30.5974 13.3647 30.6143C13.3055 30.6228 13.2463 30.6312 13.1955 30.6312Z" fill="#2D3C58"/>
<path id="Vector_11" d="M39.4319 34.5848C39.3135 34.5848 39.195 34.5594 39.0851 34.5088C38.7806 34.3736 38.5861 34.0696 38.5861 33.74V30.471H26.7874C22.6007 30.471 19.1921 27.0668 19.1921 22.8854C19.1921 18.704 22.6007 15.2998 26.7874 15.2998C26.9057 15.2998 27.0326 15.2998 27.1595 15.3083C28.2844 13.2134 30.0859 11.5662 32.2934 10.6455C32.7247 10.468 33.2237 10.6708 33.4014 11.1016C33.579 11.5324 33.376 12.0308 32.9447 12.2082C30.9401 13.0445 29.3332 14.5818 28.4282 16.5585C28.2759 16.8964 27.9207 17.0907 27.5486 17.04C27.2948 17.0062 27.0411 16.9893 26.7874 16.9893C23.531 16.9893 20.8838 19.6333 20.8838 22.8854C20.8838 26.1376 23.531 28.7815 26.7874 28.7815H39.4319C39.897 28.7815 40.2776 29.1617 40.2776 29.6263V31.8563L43.5001 28.9927C43.6523 28.8576 43.8553 28.7815 44.0668 28.7815H44.5573C46.9256 28.7815 48.8539 26.8557 48.8539 24.4904C48.8539 22.48 47.4838 20.7652 45.53 20.3175C45.1663 20.233 44.9041 19.9205 44.8787 19.5573C44.6504 16.3388 42.5697 13.45 39.5841 12.2167C39.1527 12.0392 38.9497 11.5409 39.1274 11.1101C39.305 10.6792 39.804 10.4765 40.2354 10.6539C41.9862 11.3804 43.5001 12.5715 44.6165 14.1004C45.6399 15.5026 46.2912 17.1329 46.5111 18.8392C47.5684 19.2025 48.5241 19.8613 49.2345 20.7483C50.0888 21.8042 50.5624 23.1388 50.5624 24.4988C50.5624 27.7933 47.8813 30.4794 44.5743 30.4794H44.405L40.0155 34.3821C39.8378 34.5172 39.6349 34.5848 39.4319 34.5848Z" fill="#2D3C58"/>
<path id="Vector_12" d="M41.1658 26.0773C40.244 26.0773 39.3812 25.7056 38.7976 25.0636C38.4847 24.7173 38.5101 24.1851 38.8569 23.8726C39.2036 23.56 39.7365 23.5854 40.0494 23.9317C40.3116 24.2189 40.726 24.3963 41.1658 24.3963C41.5464 24.3963 41.7917 24.1682 41.8256 24.0078C41.8509 23.8726 41.6395 23.6952 41.3096 23.5769C40.5315 23.2897 39.8295 22.9772 39.8042 22.9687C39.7618 22.9518 39.728 22.9265 39.6857 22.9012C39.0852 22.5126 38.7807 21.8284 38.8822 21.1103C38.9921 20.3585 39.5419 19.7419 40.3116 19.5138C41.4957 19.159 42.5953 19.725 43.0519 20.1136L41.9609 21.406L41.9694 21.4145C41.9609 21.406 41.3942 20.9583 40.7937 21.1357C40.6499 21.1779 40.5654 21.2539 40.5484 21.3553C40.5399 21.406 40.5569 21.4397 40.5738 21.4651C40.7767 21.5581 41.3181 21.7861 41.8932 21.9973C43.2803 22.5126 43.627 23.5263 43.4833 24.3118C43.2973 25.3339 42.3246 26.0773 41.1658 26.0773Z" fill="#2D3C58"/>
<path id="Vector_13" d="M28.9706 26.0788C28.5646 26.0788 28.2009 25.8253 28.0656 25.4452L26.3487 20.5205C26.1964 20.0813 26.4332 19.5998 26.8731 19.4477C27.3129 19.2957 27.7949 19.5322 27.9472 19.9714L28.9452 22.8519L29.901 19.9883C30.0448 19.5491 30.5268 19.3041 30.9666 19.4562C31.4064 19.5998 31.6517 20.0813 31.4995 20.5205L29.8671 25.4283C29.7402 25.8169 29.3765 26.0788 28.9706 26.0788Z" fill="#2D3C58"/>
<path id="Vector_14" d="M33.876 26.0787C33.4109 26.0787 33.0303 25.6986 33.0303 25.234V20.2417C33.0303 19.7771 33.4109 19.397 33.876 19.397C34.3412 19.397 34.7218 19.7771 34.7218 20.2417V25.234C34.7218 25.7071 34.3412 26.0787 33.876 26.0787Z" fill="#2D3C58"/>
<path id="Vector_15" d="M33.8845 23.916C33.6646 23.916 33.4447 23.8316 33.2925 23.6711C33.1317 23.5106 33.0387 23.2995 33.0387 23.0714C33.0387 23.0714 33.0303 22.0408 33.0303 21.6523C33.0303 21.3312 33.0303 20.25 33.0303 20.25C33.0303 20.022 33.1148 19.8108 33.2755 19.6502C33.4362 19.4897 33.6477 19.4053 33.876 19.4053H35.2716C36.5318 19.4053 37.5552 20.419 37.5552 21.6607C37.5552 22.9024 36.5318 23.916 35.2716 23.916C34.8826 23.9077 33.8929 23.916 33.8845 23.916C33.8929 23.916 33.8929 23.916 33.8845 23.916ZM34.7218 21.0863C34.7218 21.3144 34.7218 21.5339 34.7218 21.6523C34.7218 21.7874 34.7218 21.9986 34.7218 22.2182C34.9333 22.2182 35.1278 22.2182 35.2632 22.2182C35.5846 22.2182 35.8551 21.9563 35.8551 21.6523C35.8551 21.3481 35.5846 21.0863 35.2632 21.0863H34.7218Z" fill="#2D3C58"/>
<path id="Vector_16" d="M36.2608 11.5577C36.2016 11.5577 36.1509 11.5492 36.0917 11.5408C36.0409 11.5323 35.9817 11.5154 35.9309 11.4901C35.8802 11.4647 35.8295 11.4394 35.7872 11.4141C35.7364 11.3802 35.6941 11.3465 35.6603 11.3042C35.4996 11.1438 35.415 10.9326 35.415 10.7045C35.415 10.4765 35.5081 10.2653 35.6603 10.1047C35.7026 10.0625 35.7448 10.0287 35.7872 10.0034C35.8295 9.96961 35.8802 9.94424 35.9309 9.92737C35.9817 9.90201 36.0325 9.88513 36.0917 9.87665C36.2016 9.85134 36.3115 9.85134 36.4215 9.87665C36.4723 9.88513 36.5315 9.90201 36.5822 9.92737C36.6329 9.95273 36.6837 9.978 36.726 10.0034C36.7683 10.0372 36.8105 10.071 36.8529 10.1047C36.8951 10.1469 36.929 10.1892 36.9543 10.2314C36.9882 10.2737 37.0135 10.3244 37.0305 10.3751C37.0559 10.4257 37.0643 10.4765 37.0812 10.5356C37.0897 10.5862 37.0981 10.6454 37.0981 10.7045C37.0981 10.9241 37.0051 11.1438 36.8529 11.3042C36.8105 11.3465 36.7683 11.3802 36.726 11.4141C36.6837 11.4478 36.6329 11.4732 36.5822 11.4901C36.5315 11.5154 36.4807 11.5239 36.4215 11.5408C36.3707 11.5492 36.32 11.5577 36.2608 11.5577Z" fill="#2D3C58"/>
</g>
</g>
</g>
</g>
<defs>
<linearGradient id="paint0_linear_1_582" x1="0.777344" y1="13.5559" x2="28.444" y2="55.9781" gradientUnits="userSpaceOnUse">
<stop stop-color="#E8ECFF"/>
<stop offset="1" stop-color="#D1FFEF"/>
</linearGradient>
<clipPath id="clip0_1_582">
<rect width="55.3333" height="55.3333" fill="white" transform="translate(0.777344 0.644775)"/>
</clipPath>
</defs>
</svg>
