<svg width="57" height="56" viewBox="0 0 57 56" fill="none" xmlns="http://www.w3.org/2000/svg">
<g id="Frame" clip-path="url(#clip0_1_567)">
<path id="Vector" d="M50.5773 0.277344H6.31068C3.2547 0.277344 0.777344 2.7547 0.777344 5.81068V50.0773C0.777344 53.1333 3.2547 55.6107 6.31068 55.6107H50.5773C53.6333 55.6107 56.1107 53.1333 56.1107 50.0773V5.81068C56.1107 2.7547 53.6333 0.277344 50.5773 0.277344Z" fill="url(#paint0_linear_1_567)"/>
<path id="Vector_2" d="M22.7966 42.3323H15.2247C14.8512 42.3323 14.5486 42.6349 14.5486 43.0083C14.5486 43.3818 14.8512 43.6843 15.2247 43.6843H22.7966C23.17 43.6843 23.4727 43.3818 23.4727 43.0083C23.4727 42.6349 23.17 42.3323 22.7966 42.3323Z" fill="#293B42"/>
<path id="Vector_3" d="M17.3883 33.6797H15.2249C14.8514 33.6797 14.5488 33.9824 14.5488 34.3558C14.5488 34.7292 14.8514 35.0319 15.2249 35.0319H17.3883C17.7617 35.0319 18.0643 34.7292 18.0643 34.3558C18.0643 33.9824 17.7617 33.6797 17.3883 33.6797Z" fill="#293B42"/>
<path id="Vector_4" d="M22.7965 33.6797H20.6331C20.2597 33.6797 19.957 33.9824 19.957 34.3558C19.957 34.7292 20.2597 35.0319 20.6331 35.0319H22.7965C23.17 35.0319 23.4725 34.7292 23.4725 34.3558C23.4725 33.9824 23.17 33.6797 22.7965 33.6797Z" fill="#293B42"/>
<path id="Vector_5" d="M43.3494 30.9742H38.4817C38.3024 30.9742 38.1305 31.0455 38.0037 31.1723L35.4537 33.7224C35.3847 33.6987 35.3136 33.6786 35.2366 33.6786H30.5041V29.0813H40.1043C42.5645 29.0813 44.5663 27.0795 44.5663 24.6192C44.5663 22.3867 42.9178 20.5317 40.7705 20.2074C40.5902 16.9533 37.9501 14.3441 34.6833 14.2131C34.1359 12.0144 32.1451 10.4219 29.8281 10.4219C27.4914 10.4219 25.5147 12.0101 24.9715 14.2168C24.879 14.211 24.7851 14.2079 24.69 14.2079C22.4993 14.2079 20.6959 15.8969 20.5134 18.0408C18.5185 19.0116 17.2533 21.0165 17.2533 23.2671C17.2533 26.3643 19.6731 28.9155 22.7581 29.0749L22.7664 29.0751C22.7771 29.0756 22.7862 29.0813 22.7969 29.0813H29.152V33.6785H26.1774V33.2729C26.1774 32.0053 25.146 30.9742 23.8787 30.9742H14.1434C12.876 30.9742 11.8447 32.0053 11.8447 33.2729V35.4363C11.8447 36.6576 12.8048 37.6497 14.0082 37.7212V39.6416C12.8048 39.7131 11.8447 40.7052 11.8447 41.9266V44.0899C11.8447 45.3576 12.876 46.3885 14.1434 46.3885H23.8787C25.146 46.3885 26.1774 45.3576 26.1774 44.0899V41.9266C26.1774 40.7052 25.2173 39.7131 24.0139 39.6416V37.7212C25.2173 37.6497 26.1774 36.6576 26.1774 35.4363V35.0306H34.1454L33.6769 35.4991C33.5501 35.6259 33.4788 35.7981 33.4788 35.9771V44.0899C33.4788 45.3576 34.5101 46.3885 35.7774 46.3885H43.3494C44.6167 46.3885 45.6479 45.3576 45.6479 44.0899V33.2729C45.6479 32.0053 44.6167 30.9742 43.3494 30.9742ZM18.6054 23.2671C18.6054 21.4217 19.7132 19.7917 21.4279 19.1151C21.7314 18.9952 21.906 18.6762 21.8431 18.3561C21.8468 18.3741 21.85 18.3947 21.8505 18.3995C21.8505 16.8339 23.1242 15.5599 24.69 15.5599C24.9279 15.5599 25.1494 15.5869 25.3486 15.6403C25.539 15.6915 25.7439 15.6556 25.9071 15.5431C26.0701 15.4306 26.1754 15.252 26.1955 15.055C26.3854 13.1848 27.9469 11.774 29.8281 11.774C31.6677 11.774 33.2253 13.1489 33.4514 14.9721C33.4949 15.325 33.8065 15.58 34.1591 15.5642C34.2333 15.5599 34.3112 15.5599 34.3896 15.5599C37.1594 15.5552 39.4282 17.7921 39.4282 20.5629C39.4282 20.6416 39.4285 20.716 39.424 20.7948C39.4134 20.9801 39.4823 21.1624 39.6102 21.2976C39.7377 21.4327 39.9184 21.5094 40.1043 21.5094C41.819 21.5094 43.2141 22.9042 43.2141 24.6192C43.2141 26.3343 41.819 27.7291 40.1043 27.7291H32.6675V22.5911H34.4174C34.6752 22.5911 34.9104 22.4448 35.024 22.2134C35.1378 21.9821 35.1101 21.7064 34.9527 21.502L30.3633 15.5526C30.1072 15.2209 29.5489 15.2209 29.2927 15.5526L24.7035 21.502C24.546 21.7064 24.5183 21.9821 24.6321 22.2134C24.7457 22.4448 24.981 22.5911 25.2387 22.5911H26.9885V27.7291H23.0674C22.9952 27.7297 22.9251 27.729 22.8499 27.7253L22.8358 27.7249H22.8318C20.4619 27.6024 18.6054 25.6439 18.6054 23.2671ZM27.6646 21.2389H26.6141L29.8281 17.0727L33.042 21.2389H31.9915C31.6181 21.2389 31.3154 21.5416 31.3154 21.915V27.7291H28.3407V21.915C28.3407 21.5416 28.038 21.2389 27.6646 21.2389ZM22.6617 39.6279H15.3602V37.7349H22.6617V39.6279ZM24.8252 41.9266V44.0899C24.8252 44.6118 24.4005 45.0364 23.8787 45.0364H14.1434C13.6215 45.0364 13.1969 44.6118 13.1969 44.0899V41.9266C13.1969 41.4047 13.6215 40.98 14.1434 40.98H23.8787C24.4005 40.98 24.8252 41.4047 24.8252 41.9266ZM24.8252 35.4363C24.8252 35.9581 24.4005 36.3828 23.8787 36.3828H14.1434C13.6215 36.3828 13.1969 35.9581 13.1969 35.4363V33.2729C13.1969 32.7511 13.6215 32.3264 14.1434 32.3264H23.8787C24.4005 32.3264 24.8252 32.7511 24.8252 33.2729V35.4363ZM44.2959 44.0899C44.2959 44.6118 43.8712 45.0364 43.3494 45.0364H35.7774C35.2556 45.0364 34.8309 44.6118 34.8309 44.0899V36.2571L38.7616 32.3264H43.3494C43.8712 32.3264 44.2959 32.7511 44.2959 33.2729V44.0899Z" fill="#293B42"/>
<path id="Vector_6" d="M41.7265 41.792H37.3997C37.0263 41.792 36.7236 42.0947 36.7236 42.4681C36.7236 42.8415 37.0263 43.1442 37.3997 43.1442H41.7265C42.0999 43.1442 42.4026 42.8415 42.4026 42.4681C42.4026 42.0947 42.0999 41.792 41.7265 41.792Z" fill="#293B42"/>
<path id="Vector_7" d="M41.7265 38.5459H37.3997C37.0263 38.5459 36.7236 38.8486 36.7236 39.222C36.7236 39.5954 37.0263 39.8981 37.3997 39.8981H41.7265C42.0999 39.8981 42.4026 39.5954 42.4026 39.222C42.4026 38.8486 42.0999 38.5459 41.7265 38.5459Z" fill="#293B42"/>
</g>
<defs>
<linearGradient id="paint0_linear_1_567" x1="0.777344" y1="13.1885" x2="28.444" y2="55.6107" gradientUnits="userSpaceOnUse">
<stop stop-color="#E8ECFF"/>
<stop offset="1" stop-color="#E3D1FF"/>
</linearGradient>
<clipPath id="clip0_1_567">
<rect width="55.3333" height="55.3333" fill="white" transform="translate(0.777344 0.277344)"/>
</clipPath>
</defs>
</svg>
