<svg width="36" height="38" viewBox="0 0 36 38" fill="none" xmlns="http://www.w3.org/2000/svg">
<g clip-path="url(#clip0_228_1070)">
<path d="M12.8347 6.24511C13.8981 6.24511 14.7632 5.37998 14.7632 4.31665C14.7632 3.25332 13.8981 2.38818 12.8347 2.38818C11.7714 2.38818 10.9062 3.25332 10.9062 4.31665C10.9062 5.37998 11.7714 6.24511 12.8347 6.24511ZM12.8347 3.48689C13.2923 3.48689 13.6645 3.85918 13.6645 4.31673C13.6645 4.77426 13.2923 5.14656 12.8347 5.14656C12.3772 5.14656 12.0049 4.77426 12.0049 4.31673C12.0049 3.85918 12.3772 3.48689 12.8347 3.48689Z" fill="white"/>
<path d="M26.6472 25.1079C27.7105 25.1079 28.5756 24.2427 28.5756 23.1795C28.5756 22.1161 27.7104 21.251 26.6472 21.251C25.5838 21.251 24.7188 22.1161 24.7188 23.1795C24.7188 24.2427 25.5839 25.1079 26.6472 25.1079ZM26.6472 22.3497C27.1047 22.3497 27.477 22.7219 27.477 23.1795C27.477 23.637 27.1047 24.0093 26.6472 24.0093C26.1896 24.0093 25.8174 23.637 25.8174 23.1795C25.8174 22.7219 26.1896 22.3497 26.6472 22.3497Z" fill="white"/>
<path d="M31.7452 7.96095C30.4858 6.46212 28.9999 5.185 27.3287 4.16503C27.0698 4.00697 26.7317 4.08878 26.5736 4.34777C26.4156 4.60675 26.4974 4.94477 26.7564 5.10282C28.2181 5.99484 29.5288 7.0964 30.6574 8.38058C30.2724 8.9223 30.1246 9.81608 29.2262 9.88807C28.4627 9.94928 27.7878 10.3879 27.4237 11.0665L26.7752 12.2753C26.3276 13.1093 25.4473 12.8376 24.9649 12.8376C23.9299 12.8376 22.9349 13.275 22.2344 14.038C21.4993 14.8406 21.3415 15.6757 21.2024 16.4126C21.0953 16.9796 21.0022 17.4704 20.6782 17.9452C20.6221 18.0275 20.6808 17.9446 19.1313 20.0136C18.6073 20.7136 18.7479 21.7141 19.4678 22.2367L20.7497 23.1661C21.1376 23.4466 21.6203 23.5322 22.0671 23.4166C22.1572 23.3941 22.245 23.372 22.3316 23.3501C22.3327 23.3498 22.3339 23.3495 22.3349 23.3492C22.3361 23.4113 22.3384 23.4731 22.3421 23.5349C22.47 25.6786 23.7211 27.7034 25.1665 29.2935C25.9691 30.1765 27.3439 30.1572 28.1274 29.2956C28.1281 29.2948 28.1287 29.2941 28.1293 29.2934C29.1523 28.1685 30.0708 26.8415 30.5708 25.3932L32.9871 27.2517C30.3028 32.458 25.115 35.9046 19.2833 36.3513C19.2304 36.0826 18.4099 34.9923 19.3537 34.3189C19.9289 33.9109 20.2724 33.2455 20.2724 32.5388C20.2724 31.9615 20.31 31.4961 20.0074 30.9392C19.9254 30.7881 19.8201 30.6364 19.6814 30.4886L18.8279 29.5784C18.4828 29.2104 18.4387 28.6408 18.7229 28.2241L18.9522 27.8882C19.7687 26.6903 19.2155 25.0376 17.8289 24.5819L15.3512 23.7686C15.2518 23.7359 15.1681 23.6681 15.1154 23.5774L13.4163 20.6546C12.843 19.666 11.41 19.6318 10.8007 20.6198L10.3942 21.2786C10.3156 21.4057 10.1804 21.4816 10.0322 21.4816C9.74842 21.4816 9.54953 21.2142 9.61875 20.9481L10.499 17.5784C10.5292 17.4619 10.6084 17.3631 10.7161 17.3076L12.5084 16.3849C13.0177 16.1239 13.3203 15.613 13.3364 15.0775C13.3658 14.1273 12.5542 13.0382 11.341 12.8254C10.4255 12.6353 9.90585 12.6755 9.28763 12.2998L6.68576 10.7207C6.15644 10.3991 5.77228 9.89602 5.60046 9.3054L5.32273 8.3517C6.29692 7.24874 7.40558 6.28166 8.62883 5.46712C8.63692 5.50858 8.70442 5.89376 8.87025 6.40097C9.45757 8.19795 10.8955 10.0372 11.5032 10.5785C12.3353 11.3195 13.5887 11.2311 14.3147 10.4328C15.8453 8.75018 17.1504 6.59366 17.1516 4.31876C17.1516 4.31804 17.1516 4.31722 17.1516 4.3165C17.1516 3.75443 17.0401 3.19172 16.831 2.68099C17.2139 2.65514 17.5976 2.64211 17.9783 2.64211C20.3443 2.64211 22.6329 3.12235 24.7808 4.06937C25.0584 4.19184 25.3826 4.066 25.5049 3.78842C25.6273 3.51083 25.5016 3.18658 25.224 3.0642C22.9357 2.05514 20.4978 1.54348 17.9783 1.54348C17.3913 1.54348 16.7981 1.57431 16.21 1.63188C15.4212 0.642817 14.2091 0.00502529 12.8511 4.48197e-05C10.4753 -0.0107218 8.61855 1.91972 8.52547 4.22853C6.93265 5.21459 5.51 6.43524 4.29374 7.8612C4.29067 7.86487 4.28796 7.86877 4.28495 7.87245C1.52168 11.1172 0 15.2536 0 19.5217C0 24.1391 1.74792 28.528 4.92187 31.88C5.13047 32.1003 5.47814 32.1098 5.69845 31.9013C5.91877 31.6927 5.92822 31.345 5.71962 31.1247C2.73977 27.9776 1.0987 23.8569 1.0987 19.5218C1.0987 15.8582 2.2927 12.2979 4.47985 9.38655C4.5747 9.63217 4.77465 10.8445 6.11564 11.6599L8.71747 13.239C9.7584 13.8713 10.9498 13.7414 11.5252 14.0314C11.8805 14.2108 12.1392 14.54 12.2278 14.9384C12.2694 15.1224 12.1777 15.32 12.0065 15.4078L10.213 16.3309C9.82748 16.5296 9.54413 16.8839 9.43583 17.3018L8.5557 20.671C8.30513 21.636 9.03172 22.5801 10.0323 22.5801C10.5697 22.5801 11.0518 22.3045 11.3291 21.8558C11.8648 20.9876 11.6924 21.2669 11.7359 21.1965C11.9076 20.918 12.3071 20.9314 12.4664 21.2061C14.2607 24.2885 14.1691 24.1451 14.2411 24.2465C14.429 24.5114 14.697 24.7099 15.0084 24.8123L17.4864 25.6256C18.1721 25.8505 18.4525 26.6705 18.0447 27.2691C17.8394 27.5733 17.7901 27.6335 17.7144 27.7676C17.2488 28.5936 17.3637 29.6228 18.0267 30.3298L18.8802 31.2399C19.2887 31.6757 19.1399 32.1459 19.1736 32.562C19.166 32.9195 18.9785 33.238 18.7169 33.4236C17.1154 34.5665 18.114 36.3824 18.1156 36.4007C18.0698 36.4011 18.0242 36.4012 17.9784 36.4012C14.0837 36.4012 10.2836 35.0428 7.27799 32.5763C7.0434 32.3837 6.69734 32.4179 6.50492 32.6524C6.31244 32.8869 6.34658 33.233 6.5811 33.4256C9.7824 36.053 13.8299 37.5 17.9781 37.5C18.5055 37.5 18.8505 37.4778 18.955 37.4734C18.9624 37.471 29.324 37.3777 34.1749 27.3313C34.1748 27.3314 34.1749 27.3312 34.1749 27.3313C35.3563 24.8859 35.9557 22.2582 35.9557 19.5217C35.9556 15.2968 34.4603 11.191 31.7452 7.96095ZM12.8353 1.09868H12.847C14.6191 1.10513 16.0529 2.55283 16.0529 4.3165C16.0529 6.55419 14.4545 8.64592 13.5017 9.6936C13.1412 10.0901 12.523 10.0837 12.1666 9.69172C10.9177 8.31773 9.70372 6.41407 9.62407 4.55233L9.6231 4.51886C9.6231 4.51798 9.62295 4.51718 9.62295 4.5163C9.5631 2.68254 10.9886 1.09868 12.8353 1.09868ZM26.6436 19.9616C26.6451 19.9616 26.6466 19.9615 26.648 19.9615H26.6596C28.4274 19.968 29.8656 21.4114 29.8656 23.1793C29.8656 25.1327 28.6372 27.1014 27.3144 28.5565C26.9546 28.952 26.3372 28.9482 25.9792 28.5546C25.085 27.5708 23.5659 25.6021 23.4385 23.4694C23.3263 21.5833 24.7846 19.9643 26.6436 19.9616ZM33.4688 26.2364L30.871 24.2384C30.9252 23.931 30.9641 23.537 30.9641 23.1794C30.9641 20.808 29.0349 18.8717 26.6636 18.8629C26.6635 18.8629 26.6638 18.8629 26.6636 18.8629C26.6584 18.8629 26.653 18.8629 26.6478 18.8629C24.6511 18.8629 22.9491 20.2417 22.4681 22.1808C21.8035 22.3539 21.6218 22.4413 21.3939 22.2764L20.1125 21.3473C19.896 21.1903 19.8501 20.8864 20.0103 20.6722L21.4883 18.7C21.9853 18.0397 22.1362 17.3863 22.2817 16.6167C22.4099 15.9381 22.5205 15.3521 23.044 14.7807C23.5364 14.2441 24.2365 13.9364 24.9647 13.9364C25.4409 13.9364 26.947 14.2786 27.7431 12.7948L28.3916 11.5861C28.5789 11.2371 28.928 11.0143 29.3137 10.9834C30.7699 10.8666 31.2008 9.5925 31.304 9.47175L31.4044 9.29317C33.6361 12.2213 34.8568 15.8229 34.8568 19.5219C34.8569 21.8627 34.3904 24.1181 33.4688 26.2364Z" fill="white"/>
</g>
<defs>
<clipPath id="clip0_228_1070">
<rect width="36" height="37.5" fill="white"/>
</clipPath>
</defs>
</svg>
