<svg width="40" height="40" viewBox="0 0 40 40" fill="none" xmlns="http://www.w3.org/2000/svg">
<g id="Frame 16">
<rect x="0.5" y="0.5" width="39" height="39" rx="19.5" fill="url(#paint0_linear_1_340)"/>
<rect x="0.5" y="0.5" width="39" height="39" rx="19.5" stroke="url(#paint1_linear_1_340)"/>
<path id="Vector" d="M32 17.2324C32.1693 18.0449 32.2539 18.8574 32.2539 19.6699C32.2539 23.1569 31.0267 26.1276 28.5723 28.582C26.1178 31.0365 23.1471 32.2637 19.6602 32.2637C16.1732 32.2637 13.2025 31.0365 10.748 28.582C8.29362 26.1276 7.06641 23.1569 7.06641 19.6699C7.06641 16.1829 8.29362 13.2122 10.748 10.7578C13.2025 8.30338 16.1732 7.07617 19.6602 7.07617C20.2018 7.07617 20.7435 7.11003 21.2852 7.17773V10.7324C21.2852 10.9694 21.209 11.1641 21.0566 11.3164C20.9043 11.4688 20.7266 11.5449 20.5234 11.5449H19.2539C18.9831 11.5449 18.763 11.6634 18.5938 11.9004L18.1875 12.5098C18.0859 12.679 17.9336 12.7806 17.7305 12.8145L17.0195 13.0176C16.6133 13.1191 16.4102 13.373 16.4102 13.7793V13.9824C16.4102 14.1517 16.444 14.2956 16.5117 14.4141C16.5794 14.5326 16.6725 14.6257 16.791 14.6934C16.9095 14.7611 17.0365 14.7949 17.1719 14.7949H21.7422H21.793C21.9961 14.7949 22.1654 14.8796 22.3008 15.0488L22.6562 15.3535C22.8255 15.5228 23.0117 15.6074 23.2148 15.6074H23.7227C23.9596 15.6074 24.1543 15.6836 24.3066 15.8359C24.459 15.9883 24.5352 16.1829 24.5352 16.4199C24.5352 16.7923 24.349 17.0293 23.9766 17.1309L21.5898 17.9434C21.5221 17.9772 21.4375 17.9941 21.3359 17.9941C21.2344 17.9941 21.1159 17.9603 20.9805 17.8926L20.2695 17.5371C19.8633 17.334 19.4401 17.2324 19 17.2324H18.9492C18.3398 17.2324 17.7812 17.4186 17.2734 17.791L15.9023 18.8574C15.5977 19.0605 15.3353 19.3822 15.1152 19.8223C14.8952 20.2624 14.7852 20.6686 14.7852 21.041V21.752C14.7852 22.5306 15.056 23.1908 15.5977 23.7324C16.1393 24.2741 16.7995 24.5449 17.5781 24.5449H18.8477C19.0846 24.5449 19.2793 24.6211 19.4316 24.7734C19.584 24.9258 19.6602 25.1204 19.6602 25.3574V26.8301C19.6602 27.4733 19.7956 28.0827 20.0664 28.6582C20.3372 29.166 20.7604 29.4199 21.3359 29.4199C21.8438 29.4199 22.2331 29.2168 22.5039 28.8105L23.1641 27.7949C23.5365 27.2533 23.9596 26.7624 24.4336 26.3223C24.569 26.1868 24.6536 26.0345 24.6875 25.8652L24.8906 24.748C24.9245 24.6126 24.9753 24.4941 25.043 24.3926L26.0078 23.123C26.1094 22.9876 26.1602 22.8353 26.1602 22.666V22.1074C26.1602 21.8704 26.084 21.6758 25.9316 21.5234C25.7793 21.3711 25.5846 21.2949 25.3477 21.2949H24.9414C24.6706 21.2949 24.4505 21.1764 24.2812 20.9395L23.6211 19.9238C23.5534 19.7884 23.5195 19.653 23.5195 19.5176C23.5195 19.1113 23.6888 18.8574 24.0273 18.7559L24.1797 18.7051C24.2474 18.6712 24.332 18.6543 24.4336 18.6543C24.569 18.6543 24.7044 18.7051 24.8398 18.8066L25.7539 19.416C25.8893 19.5176 26.0417 19.5684 26.2109 19.5684C26.3464 19.5684 26.4648 19.5345 26.5664 19.4668L27.3281 19.0605C27.6328 18.9251 27.7852 18.6882 27.7852 18.3496V18.0449C27.7852 17.8079 27.8613 17.6133 28.0137 17.4609C28.166 17.3086 28.3607 17.2324 28.5977 17.2324H32Z" fill="url(#paint2_linear_1_340)"/>
</g>
<defs>
<linearGradient id="paint0_linear_1_340" x1="20" y1="0" x2="20" y2="40" gradientUnits="userSpaceOnUse">
<stop stop-color="white"/>
<stop offset="1" stop-color="#E1D9F3"/>
</linearGradient>
<linearGradient id="paint1_linear_1_340" x1="20" y1="0" x2="20" y2="40" gradientUnits="userSpaceOnUse">
<stop stop-opacity="0"/>
<stop offset="1" stop-opacity="0.24"/>
</linearGradient>
<linearGradient id="paint2_linear_1_340" x1="7.06641" y1="19.6699" x2="24.2231" y2="19.6699" gradientUnits="userSpaceOnUse">
<stop stop-color="#085BDF"/>
<stop offset="1" stop-color="#5D39D3"/>
</linearGradient>
</defs>
</svg>
