<svg width="35" height="38" viewBox="0 0 35 38" fill="none" xmlns="http://www.w3.org/2000/svg">
<g clip-path="url(#clip0_228_1103)">
<g clip-path="url(#clip1_228_1103)">
<path d="M11.9413 34.961C11.9413 35.2846 11.679 35.5469 11.3554 35.5469H11.3451C11.0215 35.5469 10.7591 35.2846 10.7591 34.961C10.7591 34.6374 11.0215 34.375 11.3451 34.375H11.3554C11.679 34.375 11.9413 34.6374 11.9413 34.961ZM23.03 34.375H15.5211C15.1975 34.375 14.9351 34.6374 14.9351 34.961C14.9351 35.2846 15.1975 35.5469 15.5211 35.5469H23.0299C23.3535 35.5469 23.6159 35.2846 23.6159 34.961C23.6159 34.6374 23.3536 34.375 23.03 34.375ZM12.7208 34.375H12.7105C12.3869 34.375 12.1245 34.6374 12.1245 34.961C12.1245 35.2846 12.3869 35.5469 12.7105 35.5469H12.7208C13.0444 35.5469 13.3068 35.2846 13.3068 34.961C13.3068 34.6374 13.0444 34.375 12.7208 34.375ZM14.0862 34.375H14.0759C13.7523 34.375 13.49 34.6374 13.49 34.961C13.49 35.2846 13.7523 35.5469 14.0759 35.5469H14.0862C14.4098 35.5469 14.6722 35.2846 14.6722 34.961C14.6722 34.6374 14.4098 34.375 14.0862 34.375ZM23.616 27.0028C23.616 26.6793 23.3536 26.417 23.03 26.417H23.0197C22.6961 26.417 22.4337 26.6793 22.4337 27.0028C22.4337 27.3265 22.6961 27.5888 23.0197 27.5888H23.03C23.3536 27.5888 23.616 27.3265 23.616 27.0028ZM18.8539 26.417H11.3451C11.0215 26.417 10.7591 26.6793 10.7591 27.0028C10.7591 27.3265 11.0215 27.5888 11.3451 27.5888H18.8539C19.1775 27.5888 19.4398 27.3265 19.4398 27.0028C19.4398 26.6793 19.1775 26.417 18.8539 26.417ZM21.6646 26.417H21.6542C21.3306 26.417 21.0682 26.6793 21.0682 27.0028C21.0682 27.3265 21.3306 27.5888 21.6542 27.5888H21.6646C21.9881 27.5888 22.2505 27.3265 22.2505 27.0028C22.2505 26.6793 21.9882 26.417 21.6646 26.417ZM20.2992 26.417H20.2888C19.9652 26.417 19.7029 26.6793 19.7029 27.0028C19.7029 27.3265 19.9652 27.5888 20.2888 27.5888H20.2992C20.6227 27.5888 20.8852 27.3265 20.8852 27.0028C20.8852 26.6793 20.6227 26.417 20.2992 26.417ZM23.0196 23.6828H23.0299C23.3535 23.6828 23.6159 23.4205 23.6159 23.0968C23.6159 22.7733 23.3535 22.511 23.0299 22.511H23.0196C22.696 22.511 22.4336 22.7733 22.4336 23.0968C22.4336 23.4205 22.696 23.6828 23.0196 23.6828ZM10.7591 23.0968C10.7591 23.4205 11.0215 23.6828 11.3451 23.6828H18.8539C19.1775 23.6828 19.4398 23.4205 19.4398 23.0968C19.4398 22.7733 19.1775 22.511 18.8539 22.511H11.3451C11.0214 22.511 10.7591 22.7733 10.7591 23.0968ZM21.6542 23.6828H21.6646C21.9881 23.6828 22.2505 23.4205 22.2505 23.0968C22.2505 22.7733 21.9881 22.511 21.6646 22.511H21.6542C21.3306 22.511 21.0682 22.7733 21.0682 23.0968C21.0682 23.4205 21.3306 23.6828 21.6542 23.6828ZM20.2888 23.6828H20.2992C20.6227 23.6828 20.8852 23.4205 20.8852 23.0968C20.8852 22.7733 20.6227 22.511 20.2992 22.511H20.2888C19.9652 22.511 19.7029 22.7733 19.7029 23.0968C19.7029 23.4205 19.9651 23.6828 20.2888 23.6828ZM23.0196 19.7767H23.0299C23.3535 19.7767 23.6159 19.5143 23.6159 19.1907C23.6159 18.8672 23.3535 18.6048 23.0299 18.6048H23.0196C22.696 18.6048 22.4336 18.8672 22.4336 19.1907C22.4336 19.5143 22.696 19.7767 23.0196 19.7767ZM18.8539 19.7767C19.1775 19.7767 19.4398 19.5143 19.4398 19.1907C19.4398 18.8672 19.1775 18.6048 18.8539 18.6048H11.3451C11.0215 18.6048 10.7591 18.8672 10.7591 19.1907C10.7591 19.5143 11.0215 19.7767 11.3451 19.7767H18.8539ZM21.6542 19.7767H21.6646C21.9881 19.7767 22.2505 19.5143 22.2505 19.1907C22.2505 18.8672 21.9881 18.6048 21.6646 18.6048H21.6542C21.3306 18.6048 21.0682 18.8672 21.0682 19.1907C21.0682 19.5143 21.3306 19.7767 21.6542 19.7767ZM20.2888 19.7767H20.2992C20.6227 19.7767 20.8852 19.5143 20.8852 19.1907C20.8852 18.8672 20.6227 18.6048 20.2992 18.6048H20.2888C19.9652 18.6048 19.7029 18.8672 19.7029 19.1907C19.7029 19.5143 19.9651 19.7767 20.2888 19.7767ZM34.375 34.961C34.375 35.2846 34.1126 35.5469 33.789 35.5469H25.5169C25.2516 36.6653 24.2452 37.5 23.0468 37.5H11.3281C10.1298 37.5 9.12337 36.6653 8.8581 35.5469H0.585968C0.262367 35.5469 0 35.2846 0 34.961C0 34.6374 0.262367 34.375 0.585968 34.375H8.8581C9.12337 33.2567 10.1298 32.4221 11.3281 32.4221H16.6015V29.5418H11.3281C9.92805 29.5418 8.78903 28.4028 8.78903 27.0028C8.78903 26.2183 9.14685 25.516 9.70762 25.0499C9.14685 24.5838 8.78903 23.8813 8.78903 23.0968C8.78903 22.3123 9.14685 21.61 9.70762 21.1438C9.14685 20.6778 8.78903 19.9753 8.78903 19.1908C8.78903 17.7908 9.92805 16.6519 11.3281 16.6519H23.0467C24.4468 16.6519 25.586 17.7908 25.586 19.1908C25.586 19.9753 25.2281 20.6778 24.6673 21.1438C25.2281 21.61 25.586 22.3123 25.586 23.0968C25.586 23.8813 25.2281 24.5838 24.6673 25.0499C25.2281 25.516 25.586 26.2183 25.586 27.0028C25.586 28.4028 24.4468 29.5418 23.0467 29.5418H17.7734V32.4221H23.0468C24.2452 32.4221 25.2516 33.2567 25.5169 34.375H33.7889C34.1126 34.375 34.375 34.6374 34.375 34.961ZM23.0468 21.7298H11.3281C10.5743 21.7298 9.96097 22.3431 9.96097 23.0968C9.96097 23.8507 10.5743 24.4639 11.3281 24.4639H23.0468C23.8007 24.4639 24.4141 23.8507 24.4141 23.0968C24.4141 22.3431 23.8008 21.7298 23.0468 21.7298ZM11.3281 20.558H23.0468C23.8007 20.558 24.4141 19.9446 24.4141 19.1908C24.4141 18.437 23.8008 17.8237 23.0468 17.8237H11.3281C10.5743 17.8237 9.96105 18.437 9.96105 19.1908C9.96105 19.9445 10.5743 20.558 11.3281 20.558ZM11.3281 28.3699H23.0468C23.8007 28.3699 24.4141 27.7567 24.4141 27.0028C24.4141 26.2491 23.8008 25.6358 23.0468 25.6358H11.3281C10.5743 25.6358 9.96105 26.2491 9.96105 27.0028C9.96105 27.7567 10.5743 28.3699 11.3281 28.3699ZM24.4141 34.961C24.4141 34.2072 23.8008 33.5939 23.0468 33.5939H11.3281C10.5743 33.5939 9.96097 34.2072 9.96097 34.961C9.96097 35.7148 10.5743 36.3281 11.3281 36.3281H23.0468C23.8008 36.3281 24.4141 35.7148 24.4141 34.961ZM7.35031 23.5205C7.67362 23.5291 7.94475 23.278 7.95578 22.9546C7.96665 22.6312 7.7133 22.3602 7.38986 22.3493C3.90314 22.2314 1.17193 19.4045 1.17193 15.9135C1.17193 12.3629 4.06075 9.47408 7.61168 9.47408C8.0043 9.47408 8.3988 9.51 8.78415 9.58088C8.95658 9.61245 9.13425 9.56542 9.2682 9.45218C9.40215 9.339 9.47843 9.17183 9.47595 8.99648L9.47542 8.9601C9.47505 8.9361 9.4746 8.91225 9.4746 8.88818C9.47468 4.63344 12.9364 1.17188 17.1914 1.17188C21.4465 1.17188 24.9082 4.63336 24.9082 8.88825C24.9082 8.91082 24.9078 8.93332 24.9074 8.95582L24.9067 8.9955C24.9044 9.1707 24.9806 9.33765 25.1144 9.45075C25.2482 9.56378 25.4256 9.6111 25.5979 9.57952C25.9807 9.50963 26.3728 9.47423 26.7633 9.47423C30.3142 9.47423 33.203 12.363 33.203 15.9137C33.203 19.4046 30.4717 22.2314 26.9851 22.3494C26.6616 22.3603 26.4083 22.6313 26.4193 22.9548C26.4299 23.2715 26.69 23.5209 27.0046 23.5209C27.0112 23.5209 27.0179 23.5208 27.0247 23.5205C29.0027 23.4536 30.8516 22.6327 32.2309 21.2089C33.6135 19.7816 34.3749 17.9011 34.3749 15.9137C34.3749 11.7167 30.9604 8.30235 26.7633 8.30235C26.5297 8.30235 26.2958 8.31308 26.063 8.33445C25.776 3.69045 21.9065 0 17.1914 0C12.476 0 8.60633 3.69074 8.31982 8.33512C8.0844 8.3133 7.8477 8.30227 7.61175 8.30227C3.41465 8.30227 7.32058e-05 11.7167 7.32058e-05 15.9136C7.32058e-05 17.9011 0.761535 19.7815 2.14413 21.2088C3.52342 22.6327 5.37237 23.4536 7.35031 23.5205ZM18.1079 13.4492C18.6154 13.9567 18.6153 14.7824 18.1079 15.2898C17.8621 15.5356 17.5352 15.671 17.1875 15.671C16.8398 15.671 16.5131 15.5356 16.2671 15.2897C15.7597 14.7823 15.7597 13.9567 16.2671 13.4492C16.7747 12.9416 17.6003 12.9416 18.1079 13.4492ZM17.0958 14.2778C17.0453 14.3283 17.0453 14.4106 17.0958 14.4611C17.1272 14.4925 17.163 14.4991 17.1875 14.4991C17.212 14.4991 17.2478 14.4926 17.2792 14.4612C17.3297 14.4106 17.3297 14.3284 17.2792 14.2778C17.2286 14.2272 17.1463 14.2272 17.0958 14.2778ZM19.7323 13.1219C19.8823 13.1219 20.0323 13.0646 20.1467 12.9503C20.3755 12.7214 20.3755 12.3505 20.1467 12.1217C18.5149 10.4901 15.86 10.4901 14.2284 12.1217C13.9996 12.3505 13.9996 12.7214 14.2284 12.9503C14.4572 13.179 14.8282 13.179 15.057 12.9503C16.2317 11.7756 18.1432 11.7756 19.318 12.9503C19.4324 13.0646 19.5823 13.1219 19.7323 13.1219ZM21.3122 11.542C21.4621 11.542 21.6121 11.4849 21.7265 11.3705C21.9554 11.1416 21.9554 10.7707 21.7265 10.5419C20.5141 9.32948 18.9021 8.6619 17.1875 8.6619C15.473 8.6619 13.8609 9.32955 12.6485 10.5419C12.4197 10.7707 12.4197 11.1416 12.6485 11.3705C12.8773 11.5993 13.2484 11.5993 13.4772 11.3705C14.4683 10.3794 15.786 9.8337 17.1875 9.8337C18.5891 9.8337 19.9068 10.3795 20.8979 11.3705C21.0122 11.4849 21.1622 11.542 21.3122 11.542ZM22.892 9.96233C23.042 9.96233 23.1919 9.9051 23.3063 9.79073C23.5352 9.5619 23.5352 9.19095 23.3063 8.96212C19.9324 5.58837 14.4426 5.58837 11.0687 8.96212C10.8399 9.19095 10.8399 9.5619 11.0687 9.79073C11.2976 10.0196 11.6685 10.0196 11.8973 9.79073C14.8144 6.87392 19.5606 6.87392 22.4776 9.79073C22.5921 9.9051 22.742 9.96233 22.892 9.96233Z" fill="white"/>
</g>
</g>
<defs>
<clipPath id="clip0_228_1103">
<rect width="34.5" height="37.5" fill="white"/>
</clipPath>
<clipPath id="clip1_228_1103">
<rect width="34.5" height="37.5" fill="white"/>
</clipPath>
</defs>
</svg>
