<svg width="38" height="38" viewBox="0 0 38 38" fill="none" xmlns="http://www.w3.org/2000/svg">
<g clip-path="url(#clip0_228_1094)">
<g clip-path="url(#clip1_228_1094)">
<g clip-path="url(#clip2_228_1094)">
<path d="M13.0194 8.80523C12.9117 9.1368 13.0177 9.49215 13.2895 9.71062L15.709 11.6554L14.8946 14.6509C14.8032 14.9873 14.9263 15.337 15.2085 15.5422C15.4907 15.7471 15.8613 15.7561 16.153 15.5652L18.7502 13.865L21.3474 15.5653C21.4875 15.6568 21.6456 15.7024 21.8034 15.7024C21.9746 15.7024 22.1453 15.6489 22.2918 15.5422C22.5742 15.3373 22.6973 14.9873 22.6057 14.6509L21.7913 11.6554L24.2107 9.71077C24.4826 9.49237 24.5887 9.13695 24.4809 8.80523C24.3731 8.47342 24.0784 8.2482 23.7302 8.2314L20.6297 8.0802L19.5278 5.17821C19.4042 4.85222 19.0988 4.6415 18.7501 4.6415C18.4014 4.6415 18.0961 4.85214 17.9725 5.17814L16.8705 8.08027L13.7703 8.2314C13.4218 8.2482 13.1272 8.47342 13.0194 8.80523ZM17.1499 9.23985C17.4803 9.22373 17.7697 9.01342 17.887 8.7042L18.75 6.43117L19.6131 8.70442C19.7306 9.01357 20.0201 9.22373 20.3502 9.23985L22.7786 9.35828L20.8834 10.8815C20.6256 11.0888 20.5151 11.429 20.6019 11.7481L21.2398 14.0943L19.2055 12.7626C19.0671 12.6721 18.9086 12.6268 18.7499 12.6268C18.5914 12.6268 18.4327 12.6721 18.2942 12.7627L16.2601 14.0943L16.8979 11.7482C16.9848 11.429 16.8743 11.0887 16.6163 10.8815L14.7212 9.35835L17.1499 9.23985ZM18.1641 2.73618V0.585937C18.1641 0.262353 18.4265 0 18.75 0C19.0736 0 19.336 0.262353 19.336 0.585937V2.73618C19.336 3.05976 19.0736 3.32211 18.75 3.32211C18.4265 3.32211 18.1641 3.05976 18.1641 2.73618ZM21.7323 6.20771C21.5159 5.96725 21.5352 5.59672 21.7757 5.38022L24.1717 3.22265C24.4123 3.00608 24.7827 3.02549 24.9993 3.26601C25.2158 3.50646 25.1964 3.877 24.956 4.0935L22.5598 6.25106C22.4478 6.35192 22.3076 6.40157 22.1679 6.40157C22.0077 6.40157 21.848 6.33624 21.7323 6.20771ZM12.5008 3.26601C12.7173 3.02549 13.0877 3.00608 13.3283 3.22265L15.7245 5.38022C15.9649 5.59672 15.9843 5.96725 15.7678 6.20771C15.6521 6.33617 15.4924 6.40157 15.3322 6.40157C15.1925 6.40157 15.0524 6.35192 14.9403 6.25106L12.5441 4.0935C12.3036 3.877 12.2843 3.50646 12.5008 3.26601ZM26.267 9.71062L28.6865 11.6554L27.8722 14.6509C27.7807 14.9873 27.9038 15.337 28.1861 15.5422C28.4681 15.7471 28.8387 15.756 29.1305 15.5652L31.7278 13.865L34.325 15.5653C34.465 15.6568 34.6231 15.7024 34.781 15.7024C34.9521 15.7024 35.1228 15.6489 35.2693 15.5422C35.5516 15.3374 35.6747 14.9875 35.5833 14.6509L34.7689 11.6554L37.1883 9.71077C37.4601 9.49245 37.5662 9.13702 37.4584 8.80523C37.3506 8.47342 37.0559 8.2482 36.7077 8.2314L33.6073 8.0802L32.5054 5.17821C32.3818 4.85222 32.0765 4.6415 31.7278 4.6415C31.379 4.6415 31.0736 4.85214 30.95 5.17814L29.8482 8.0802L26.7479 8.23133C26.3994 8.24813 26.1047 8.47342 25.997 8.80523C25.8892 9.13695 25.9952 9.49238 26.267 9.71062ZM30.1273 9.23985C30.4579 9.22373 30.7474 9.01342 30.8647 8.70413L31.7277 6.43109L32.5906 8.70405C32.708 9.01342 32.9974 9.22373 33.3278 9.23977L35.7562 9.3582L33.8613 10.8813C33.6033 11.0885 33.4927 11.4288 33.5795 11.748L34.2174 14.0942L32.1831 12.7625C32.0447 12.672 31.8861 12.6267 31.7275 12.6267C31.5688 12.6267 31.4102 12.6721 31.2719 12.7626L29.2377 14.0942L29.8756 11.7481C29.9623 11.429 29.8519 11.0888 29.5939 10.8815L27.6989 9.3582L30.1273 9.23985ZM0.311734 9.71062L2.73124 11.6554L1.91687 14.6509C1.82547 14.9873 1.94858 15.337 2.23078 15.5422C2.51305 15.7471 2.88358 15.7561 3.17529 15.5652L5.77247 13.865L8.3697 15.5653C8.5098 15.6568 8.6679 15.7024 8.8257 15.7024C8.99685 15.7024 9.16755 15.6489 9.3141 15.5422C9.59632 15.3374 9.71947 14.9875 9.62798 14.6509L8.81363 11.6554L11.233 9.71077C11.5047 9.4926 11.6108 9.13725 11.5031 8.80485C11.3951 8.47328 11.1005 8.24813 10.7524 8.23133L7.65195 8.08013L6.55021 5.17821C6.42651 4.85222 6.12117 4.6415 5.77247 4.6415C5.4237 4.6415 5.11836 4.85214 4.99466 5.17814L3.8929 8.0802L0.79263 8.23133C0.444226 8.24813 0.149506 8.47342 0.0418421 8.80485C-0.0661877 9.13673 0.0397913 9.4923 0.311734 9.71062ZM4.17209 9.23985C4.50263 9.22373 4.79208 9.01342 4.90941 8.70413L5.7724 6.43109L6.63532 8.70405C6.75272 9.01342 7.04217 9.22373 7.37256 9.23977L9.801 9.3582L7.90605 10.8813C7.64805 11.0885 7.53743 11.4288 7.62428 11.748L8.26215 14.0942L6.22781 12.7625C6.08939 12.672 5.93082 12.6267 5.77225 12.6267C5.61362 12.6267 5.45498 12.6721 5.31662 12.7626L3.28244 14.0942L3.92029 11.7481C4.00708 11.429 3.89664 11.0888 3.63869 10.8815L1.74358 9.3582L4.17209 9.23985ZM37.4074 31.123C36.9951 29.7916 36.1507 28.5961 35.0296 27.7566C34.493 27.3547 33.9085 27.0417 33.292 26.8201C34.1468 26.1492 34.6975 25.1077 34.6975 23.9393C34.6975 21.9202 33.0549 20.2778 31.0361 20.2778C29.0171 20.2778 27.3745 21.9202 27.3745 23.9393C27.3745 25.1063 27.924 26.1467 28.7771 26.8177C27.6337 27.2258 26.6208 27.9429 25.8451 28.909C25.4826 28.4019 25.0644 27.9307 24.5943 27.5056C23.647 26.6489 22.5352 26.0198 21.3379 25.6479C22.6076 24.8062 23.4469 23.365 23.4469 21.7309C23.4469 19.1411 21.3399 17.0341 18.7501 17.0341C16.1603 17.0341 14.0533 19.1411 14.0533 21.7309C14.0533 23.365 14.8925 24.8062 16.1621 25.6479C14.9648 26.0197 13.8531 26.6489 12.9058 27.5056C12.4357 27.9307 12.0175 28.4019 11.655 28.909C10.8794 27.9427 9.86648 27.2257 8.72303 26.8175C9.57608 26.1465 10.1256 25.106 10.1256 23.939C10.1256 21.92 8.48303 20.2775 6.46416 20.2775C4.44521 20.2775 2.80264 21.92 2.80264 23.939C2.80264 25.1074 3.35342 26.149 4.20813 26.8199C3.59159 27.0415 3.00713 27.3545 2.47035 27.7564C1.34926 28.5958 0.504868 29.7913 0.0925979 31.1227C-0.0979006 31.7376 0.00763866 32.3617 0.389734 32.8801C0.771757 33.3984 1.33673 33.6837 1.98052 33.6837H10.0804V34.7412C10.0804 36.2624 11.318 37.5 12.8392 37.5H24.6609C26.182 37.5 27.4196 36.2624 27.4197 34.7412V33.684H35.5196C36.1634 33.684 36.7284 33.3986 37.1103 32.8804C37.4924 32.362 37.5979 31.7378 37.4074 31.123ZM31.0361 21.4496C32.4088 21.4496 33.5257 22.5665 33.5257 23.9393C33.5257 25.312 32.4088 26.429 31.0361 26.429C29.6632 26.429 28.5464 25.312 28.5464 23.9393C28.5464 22.5665 29.6632 21.4496 31.0361 21.4496ZM15.2251 21.7309C15.2251 19.7873 16.8064 18.2059 18.7501 18.2059C20.6938 18.2059 22.2751 19.7873 22.2751 21.7309C22.2751 23.674 20.6948 25.2549 18.752 25.2559H18.75H18.7481C16.8053 25.2548 15.2251 23.674 15.2251 21.7309ZM6.46416 21.4493C7.8369 21.4493 8.95372 22.5662 8.95372 23.9389C8.95372 25.3118 7.8369 26.4286 6.46416 26.4286C5.09134 26.4286 3.97449 25.3118 3.97449 23.9389C3.97449 22.5662 5.09134 21.4493 6.46416 21.4493ZM10.1565 32.5117H1.98059C1.71092 32.5117 1.4931 32.4018 1.33307 32.1847C1.17297 31.9676 1.13232 31.7269 1.21208 31.4693C1.92866 29.1553 4.03938 27.6005 6.46416 27.6005C8.2983 27.6005 9.96915 28.4867 10.9968 29.9869C10.5905 30.7763 10.306 31.627 10.1565 32.5117ZM26.2479 34.7411C26.2478 35.6161 25.5359 36.328 24.6609 36.328H12.8392C11.9642 36.328 11.2523 35.6161 11.2523 34.7411V33.1296C11.6764 29.3072 14.8935 26.4287 18.7481 26.4277L18.7501 26.4278L18.752 26.4277C22.6066 26.4288 25.8235 29.3072 26.2479 33.1296V34.7411ZM36.1671 32.1851C36.007 32.402 35.7893 32.5121 35.5196 32.5121H27.3437C27.1942 31.6271 26.9096 30.7765 26.5034 29.9871C27.5311 28.4869 29.2019 27.6008 31.036 27.6008C33.4607 27.6008 35.5715 29.1556 36.2881 31.4697C36.3678 31.7271 36.3271 31.9678 36.1671 32.1851Z" fill="white"/>
</g>
</g>
</g>
<defs>
<clipPath id="clip0_228_1094">
<rect width="37.5" height="37.5" fill="white"/>
</clipPath>
<clipPath id="clip1_228_1094">
<rect width="37.5" height="37.5" fill="white"/>
</clipPath>
<clipPath id="clip2_228_1094">
<rect width="37.5" height="37.5" fill="white"/>
</clipPath>
</defs>
</svg>
