<svg width="56" height="56" viewBox="0 0 56 56" fill="none" xmlns="http://www.w3.org/2000/svg">
<g id="icon-2.svg" clip-path="url(#clip0_1_660)">
<path id="Vector" d="M49.8273 0.644775H5.56068C2.5047 0.644775 0.0273438 3.12213 0.0273438 6.17811V50.4448C0.0273438 53.5008 2.5047 55.9781 5.56068 55.9781H49.8273C52.8833 55.9781 55.3607 53.5008 55.3607 50.4448V6.17811C55.3607 3.12213 52.8833 0.644775 49.8273 0.644775Z" fill="url(#paint0_linear_1_660)"/>
<g id="Clip path group">
<mask id="mask0_1_660" style="mask-type:luminance" maskUnits="userSpaceOnUse" x="9" y="9" width="38" height="38">
<g id="b">
<path id="Vector_2" d="M46.1389 9.86865H9.25V46.7575H46.1389V9.86865Z" fill="white"/>
</g>
</mask>
<g mask="url(#mask0_1_660)">
<g id="Group">
<path id="Vector_3" d="M31.3379 15.2866H16.2278C15.9294 15.2866 15.6875 15.5285 15.6875 15.827C15.6875 16.1255 15.9294 16.3674 16.2278 16.3674H31.338C31.6364 16.3674 31.8783 16.1255 31.8783 15.827C31.8783 15.5285 31.6364 15.2866 31.3379 15.2866Z" fill="#2D3C58"/>
<path id="Vector_4" d="M31.3379 17.9526H16.2278C15.9294 17.9526 15.6875 18.1945 15.6875 18.4931C15.6875 18.7915 15.9294 19.0334 16.2278 19.0334H31.338C31.6364 19.0334 31.8783 18.7915 31.8783 18.4931C31.8783 18.1945 31.6364 17.9526 31.3379 17.9526Z" fill="#2D3C58"/>
<path id="Vector_5" d="M31.3379 27.5578C31.6363 27.5578 31.8782 27.3159 31.8782 27.0174C31.8782 26.7189 31.6363 26.4771 31.3379 26.4771H16.2278C15.9294 26.4771 15.6875 26.7189 15.6875 27.0174C15.6875 27.3159 15.9294 27.5578 16.2278 27.5578H31.3379Z" fill="#2D3C58"/>
<path id="Vector_6" d="M43.9369 21.915C45.151 21.915 46.1389 20.9272 46.1389 19.713V14.6069C46.1389 13.3926 45.1511 12.4048 43.9369 12.4048H15.1698C13.9557 12.4048 12.9678 13.3926 12.9678 14.6069V19.713C12.9678 20.9272 13.9556 21.915 15.1698 21.915H15.687V23.5578H15.1698C13.9557 23.5578 12.9678 24.5456 12.9678 25.7599V27.1994C12.9678 27.498 13.2098 27.7398 13.5082 27.7398C13.8066 27.7398 14.0486 27.498 14.0486 27.1994V25.7599C14.0486 25.1416 14.5516 24.6385 15.1698 24.6385H43.9369C44.5552 24.6385 45.0581 25.1415 45.0581 25.7599V30.866C45.0581 31.4843 44.5552 31.9873 43.9369 31.9873H30.7934V31.2478C30.7934 30.089 29.8501 29.1348 28.6804 29.1348H11.363C10.197 29.1347 9.25 30.0851 9.25 31.2477V42.0971C9.25 43.2577 10.1955 44.2101 11.363 44.2101H28.6804C29.847 44.2101 30.7934 43.259 30.7934 42.0971V35.7914H43.9369C44.5552 35.7914 45.0582 36.2944 45.0582 36.9127V42.0189C45.0582 42.6372 44.5553 43.1401 43.9369 43.1401H32.0465C31.7481 43.1401 31.5061 43.382 31.5061 43.6806C31.5061 43.9791 31.7481 44.2209 32.0465 44.2209H43.9369C45.151 44.2209 46.1389 43.2331 46.1389 42.0189V36.9127C46.1389 35.6985 45.1511 34.7108 43.9369 34.7108H43.6382V33.0678H43.9369C45.151 33.0678 46.1389 32.0801 46.1389 30.8659V25.7597C46.1389 24.5455 45.1511 23.5577 43.9369 23.5577H43.6382V21.9149L43.9369 21.915ZM11.363 30.2155H28.6804C28.9287 30.2155 29.1568 30.3036 29.3351 30.4503L20.5246 37.1559C20.2286 37.3813 19.8149 37.3813 19.5188 37.1559L18.3334 36.2538C18.3331 36.2535 18.3325 36.2531 18.332 36.2527L10.7083 30.4503C10.8866 30.3036 11.1147 30.2155 11.363 30.2155ZM10.3308 42.0971V31.521L17.1347 36.6994L10.3759 42.3989C10.3467 42.3034 10.3308 42.2022 10.3308 42.0971ZM28.6804 43.1294H11.363C11.3083 43.1294 11.2549 43.1238 11.2025 43.1156L18.0159 37.3702L18.8642 38.0158C19.5456 38.5346 20.4976 38.5347 21.1792 38.0158L22.0826 37.3282L29.14 43.0201C29.0013 43.0894 28.8457 43.1294 28.6804 43.1294ZM29.7126 42.0936L22.9683 36.6542L29.7126 31.521V42.0936ZM42.5575 34.7108H30.7934V33.0678H42.5575V34.7108ZM42.5575 23.5578H16.7678V21.9149H42.5575V23.5578ZM15.1698 20.8343C14.5517 20.8343 14.0486 20.3313 14.0486 19.713V14.6069C14.0486 13.9886 14.5516 13.4855 15.1698 13.4855H43.9369C44.5552 13.4855 45.0581 13.9885 45.0581 14.6069V19.713C45.0581 20.3313 44.5552 20.8343 43.9369 20.8343H15.1698Z" fill="#2D3C58"/>
<path id="Vector_7" d="M40.8408 14.73C39.5005 14.73 38.4102 15.8203 38.4102 17.1605C38.4102 18.5007 39.5005 19.591 40.8408 19.591C42.1809 19.591 43.2713 18.5007 43.2713 17.1605C43.2713 15.8203 42.1809 14.73 40.8408 14.73ZM40.8408 18.5104C40.0964 18.5104 39.4909 17.9048 39.4909 17.1606C39.4909 16.4163 40.0964 15.8107 40.8408 15.8107C41.585 15.8107 42.1905 16.4163 42.1905 17.1606C42.1905 17.9048 41.585 18.5104 40.8408 18.5104Z" fill="#2D3C58"/>
<path id="Vector_8" d="M43.2713 28.3109C43.2713 26.9706 42.1809 25.8804 40.8408 25.8804C39.5005 25.8804 38.4102 26.9707 38.4102 28.3109C38.4102 29.6511 39.5005 30.7414 40.8408 30.7414C42.1809 30.7414 43.2713 29.6511 43.2713 28.3109ZM39.4909 28.3109C39.4909 27.5666 40.0964 26.9611 40.8408 26.9611C41.585 26.9611 42.1905 27.5666 42.1905 28.3109C42.1905 29.0552 41.585 29.6607 40.8408 29.6607C40.0964 29.6607 39.4909 29.0552 39.4909 28.3109Z" fill="#2D3C58"/>
<path id="Vector_9" d="M43.2713 39.4663C43.2713 38.126 42.1809 37.0356 40.8408 37.0356C39.5005 37.0356 38.4102 38.1261 38.4102 39.4663C38.4102 40.8064 39.5005 41.8967 40.8408 41.8967C42.1809 41.8968 43.2713 40.8064 43.2713 39.4663ZM39.4909 39.4663C39.4909 38.7218 40.0964 38.1164 40.8408 38.1164C41.585 38.1164 42.1905 38.7218 42.1905 39.4663C42.1905 40.2105 41.585 40.8159 40.8408 40.8159C40.0964 40.816 39.4909 40.2105 39.4909 39.4663Z" fill="#2D3C58"/>
</g>
</g>
</g>
</g>
<defs>
<linearGradient id="paint0_linear_1_660" x1="0.0273444" y1="13.5559" x2="27.694" y2="55.9781" gradientUnits="userSpaceOnUse">
<stop stop-color="#E8ECFF"/>
<stop offset="1" stop-color="#D1FFEF"/>
</linearGradient>
<clipPath id="clip0_1_660">
<rect width="55.3333" height="55.3333" fill="white" transform="translate(0.0273438 0.644775)"/>
</clipPath>
</defs>
</svg>
