<svg width="40" height="40" viewBox="0 0 40 40" fill="none" xmlns="http://www.w3.org/2000/svg">
<rect x="0.5" y="0.5" width="39" height="39" rx="19.5" fill="url(#paint0_linear_105_571)"/>
<rect x="0.5" y="0.5" width="39" height="39" rx="19.5" stroke="url(#paint1_linear_105_571)"/>
<g clip-path="url(#clip0_105_571)">
<path d="M28.5918 14.0142C29.0613 14.0142 29.4604 14.1786 29.789 14.5072C30.1177 14.8359 30.282 15.2349 30.282 15.7044V19.0847C30.282 19.5542 30.1177 19.9533 29.789 20.2819C29.4604 20.6106 29.0613 20.7749 28.5918 20.7749H11.6902C11.2207 20.7749 10.8216 20.6106 10.493 20.2819C10.1643 19.9533 10 19.5542 10 19.0847V15.7044C10 15.2349 10.1643 14.8359 10.493 14.5072C10.8216 14.1786 11.2207 14.0142 11.6902 14.0142H28.5918ZM22.7291 18.1868C22.7291 18.1868 22.7848 18.2426 22.8963 18.3541C23.0078 18.4656 23.2161 18.5213 23.5213 18.5213C23.8265 18.5213 24.0906 18.4098 24.3136 18.1868C24.5366 17.9638 24.6481 17.6997 24.6481 17.3946C24.6481 17.0894 24.5366 16.8253 24.3136 16.6023C24.0906 16.3793 23.8265 16.2678 23.5213 16.2678C23.2161 16.2678 22.9521 16.3793 22.7291 16.6023C22.506 16.8253 22.3945 17.0894 22.3945 17.3946C22.3945 17.6997 22.506 17.9638 22.7291 18.1868ZM26.1094 18.1868C26.1094 18.1868 26.1651 18.2426 26.2766 18.3541C26.3881 18.4656 26.5965 18.5213 26.9016 18.5213C27.2068 18.5213 27.4709 18.4098 27.6939 18.1868C27.9169 17.9638 28.0284 17.6997 28.0284 17.3946C28.0284 17.0894 27.9169 16.8253 27.6939 16.6023C27.4709 16.3793 27.2068 16.2678 26.9016 16.2678C26.5965 16.2678 26.3324 16.3793 26.1094 16.6023C25.8864 16.8253 25.7749 17.0894 25.7749 17.3946C25.7749 17.6997 25.8864 17.9638 26.1094 18.1868Z" fill="white"/>
</g>
<g opacity="0.4" clip-path="url(#clip1_105_571)">
<path d="M22.7291 24.9231C22.7291 24.9231 22.7848 24.8674 22.8963 24.7559C23.0078 24.6444 23.2161 24.5886 23.5213 24.5886C23.8265 24.5886 24.0906 24.7001 24.3136 24.9231C24.5366 25.1461 24.6481 25.4102 24.6481 25.7154C24.6481 26.0206 24.5366 26.2846 24.3136 26.5077C24.0906 26.7307 23.8265 26.8422 23.5213 26.8422C23.2161 26.8422 22.9521 26.7307 22.7291 26.5077C22.506 26.2846 22.3945 26.0206 22.3945 25.7154C22.3945 25.4102 22.506 25.1461 22.7291 24.9231ZM29.7186 21.49C30.0942 22.0534 30.282 22.6754 30.282 23.3562V24.0252C30.282 23.5557 30.1177 23.1567 29.789 22.828C29.4604 22.4994 29.0613 22.3351 28.5918 22.3351H11.6902C11.2207 22.3351 10.8216 22.4994 10.493 22.828C10.1643 23.1567 10 23.5557 10 24.0252V23.3562C10 22.6754 10.1878 22.0534 10.5634 21.49L14.0141 16.3138C14.155 16.126 14.3604 15.9559 14.6303 15.8033C14.9003 15.6507 15.1644 15.5744 15.4226 15.5744H24.8594C25.1176 15.5744 25.3817 15.6507 25.6516 15.8033C25.9216 15.9559 26.127 16.126 26.2678 16.3138L29.7186 21.49Z" fill="white"/>
</g>
<defs>
<linearGradient id="paint0_linear_105_571" x1="0" y1="20" x2="27.2464" y2="20" gradientUnits="userSpaceOnUse">
<stop stop-color="#085BDF"/>
<stop offset="1" stop-color="#5D39D3"/>
</linearGradient>
<linearGradient id="paint1_linear_105_571" x1="20" y1="0" x2="20" y2="40" gradientUnits="userSpaceOnUse">
<stop stop-color="white" stop-opacity="0"/>
<stop offset="1" stop-color="white" stop-opacity="0.24"/>
</linearGradient>
<clipPath id="clip0_105_571">
<rect width="20.282" height="18.0284" fill="white" transform="matrix(1 0 0 -1 10 23.0284)"/>
</clipPath>
<clipPath id="clip1_105_571">
<rect width="20.282" height="34.67" fill="white" transform="matrix(1 0 0 -1 10 39.67)"/>
</clipPath>
</defs>
</svg>
