<svg width="56" height="56" viewBox="0 0 56 56" fill="none" xmlns="http://www.w3.org/2000/svg">
<g id="icon-6.svg" clip-path="url(#clip0_1_501)">
<path id="Vector" d="M50.0778 0.277588H5.81117C2.75519 0.277588 0.277832 2.75495 0.277832 5.81092V50.0776C0.277832 53.1336 2.75519 55.6109 5.81117 55.6109H50.0778C53.1338 55.6109 55.6112 53.1336 55.6112 50.0776V5.81092C55.6112 2.75495 53.1338 0.277588 50.0778 0.277588Z" fill="url(#paint0_linear_1_501)"/>
<g id="Clip path group">
<mask id="mask0_1_501" style="mask-type:luminance" maskUnits="userSpaceOnUse" x="9" y="9" width="38" height="38">
<g id="b">
<path id="Vector_2" d="M46.3889 9.50122H9.5V46.3901H46.3889V9.50122Z" fill="white"/>
</g>
</mask>
<g mask="url(#mask0_1_501)">
<g id="Group">
<path id="Vector_3" d="M35.4555 18.7809C35.6806 19.006 35.6806 19.3709 35.4555 19.596C35.3429 19.7085 35.1954 19.7648 35.0479 19.7648C34.9004 19.7648 34.7529 19.7085 34.6403 19.596C30.9481 15.9038 24.9404 15.9038 21.2482 19.596C21.023 19.8211 20.6581 19.8211 20.433 19.596C20.2079 19.3709 20.2079 19.006 20.433 18.7809C24.5747 14.6392 31.3137 14.6392 35.4555 18.7809ZM27.9442 18.3486C25.8225 18.3486 23.8275 19.1749 22.3273 20.6752C22.1021 20.9003 22.1021 21.2652 22.3273 21.4903C22.5524 21.7155 22.9172 21.7155 23.1424 21.4903C24.425 20.2077 26.1303 19.5013 27.9441 19.5013C29.758 19.5013 31.4633 20.2077 32.7459 21.4903C32.8584 21.6028 33.0059 21.6591 33.1535 21.6591C33.301 21.6591 33.4485 21.6028 33.561 21.4903C33.7861 21.2652 33.7861 20.9003 33.561 20.6752C32.0608 19.1749 30.066 18.3486 27.9442 18.3486ZM27.9442 21.0276C26.5378 21.0276 25.2159 21.5752 24.2215 22.5695C23.9965 22.7946 23.9965 23.1596 24.2215 23.3846C24.4467 23.6098 24.8115 23.6096 25.0367 23.3846C25.8133 22.608 26.8459 22.1803 27.9441 22.1803C29.0424 22.1803 30.0749 22.608 30.8515 23.3846C30.9641 23.4972 31.1117 23.5534 31.2592 23.5534C31.4067 23.5534 31.5542 23.4972 31.6668 23.3846C31.8918 23.1596 31.8918 22.7946 31.6668 22.5695C30.6724 21.5752 29.3504 21.0276 27.9442 21.0276ZM29.928 25.6903C29.928 26.7843 29.0381 27.6742 27.9442 27.6742C26.8504 27.6742 25.9604 26.7843 25.9604 25.6903C25.9604 24.5964 26.8504 23.7064 27.9442 23.7064C29.0381 23.7064 29.928 24.5965 29.928 25.6903ZM28.7753 25.6903C28.7753 25.2321 28.4024 24.8592 27.9442 24.8592C27.486 24.8592 27.1131 25.232 27.1131 25.6903C27.1131 26.1486 27.486 26.5214 27.9442 26.5214C28.4024 26.5214 28.7753 26.1486 28.7753 25.6903ZM46.2379 39.2788V44.249C46.2379 44.9929 45.6328 45.598 44.889 45.598H35.9238C35.18 45.598 34.5748 44.9929 34.5748 44.249V38.0916C34.5748 37.3479 35.1799 36.7427 35.9238 36.7427H37.2619C37.3918 36.7427 37.5178 36.7865 37.6196 36.8671L38.9625 37.93H39.8301V34.3287H28.5206V37.93H32.4269C33.1707 37.93 33.7758 38.535 33.7758 39.2789V44.2491C33.7758 44.9929 33.1707 45.5981 32.4269 45.5981H23.4616C22.7178 45.5981 22.1127 44.9929 22.1127 44.2491V38.0917C22.1127 37.3479 22.7177 36.7428 23.4616 36.7428H24.7997C24.9296 36.7428 25.0557 36.7866 25.1575 36.8672L26.5003 37.93H27.3678V34.3287H16.0584V37.93H19.9646C20.7084 37.93 21.3136 38.5351 21.3136 39.279V44.2491C21.3136 44.993 20.7085 45.5981 19.9646 45.5981H10.9993C10.2556 45.5981 9.65039 44.993 9.65039 44.2491V38.0917C9.65039 37.3479 10.2555 36.7429 10.9993 36.7429H12.3375C12.4673 36.7429 12.5934 36.7867 12.6952 36.8673L14.038 37.9301H14.9056V33.7524C14.9056 33.4341 15.1636 33.176 15.482 33.176H27.3678V30.4382H20.1948C16.5238 30.4382 13.5372 27.4516 13.5372 23.7807C13.5372 22.2073 14.1033 20.6762 15.1312 19.4694C16.053 18.3873 17.2916 17.6299 18.658 17.3038C18.8645 13.4038 22.1023 10.2942 26.0528 10.2942C28.2314 10.2942 30.3091 11.2675 31.7096 12.9212C32.3041 12.6175 32.962 12.4588 33.6391 12.4588C35.9828 12.4588 37.8896 14.3655 37.8896 16.7093C37.8896 16.9672 37.8665 17.223 37.8207 17.4744C39.0211 17.8833 40.0985 18.6384 40.898 19.6401C41.8351 20.8143 42.3512 22.2848 42.3512 23.7807C42.3512 27.4516 39.3647 30.4382 35.6936 30.4382H28.5206V33.176H40.4065C40.7248 33.176 40.9829 33.4341 40.9829 33.7524V37.9301H44.8891C45.6328 37.93 46.2379 38.535 46.2379 39.2788ZM20.1948 29.2852H35.6936C38.729 29.2852 41.1983 26.8159 41.1983 23.7805C41.1983 21.235 39.4674 19.0353 36.9889 18.4312C36.8323 18.3931 36.699 18.2912 36.6211 18.1502C36.543 18.0092 36.5276 17.842 36.5785 17.6891C36.6836 17.374 36.7367 17.0443 36.7367 16.7093C36.7367 15.0012 35.3471 13.6116 33.639 13.6116C33.0126 13.6116 32.4092 13.7977 31.894 14.1496C31.6373 14.3251 31.2873 14.2652 31.1036 14.0139C29.9286 12.4065 28.0404 11.447 26.0528 11.447C22.6051 11.447 19.8004 14.2518 19.8004 17.6994L19.8013 17.7714C19.8043 18.0564 19.5986 18.301 19.3171 18.3466C16.6793 18.774 14.69 21.11 14.69 23.7804C14.69 26.8159 17.1594 29.2852 20.1948 29.2852ZM19.9646 39.0827H13.8376C13.7077 39.0827 13.5816 39.0389 13.4798 38.9582L12.137 37.8955H10.9993C10.893 37.8955 10.8032 37.9853 10.8032 38.0916V44.249C10.8032 44.3554 10.893 44.4452 10.9993 44.4452H19.9646C20.0709 44.4452 20.1608 44.3554 20.1608 44.249V39.2788C20.1608 39.1725 20.0709 39.0827 19.9646 39.0827ZM32.4269 39.0827H26.2997C26.17 39.0827 26.0438 39.0389 25.9421 38.9582L24.5992 37.8955H23.4616C23.3553 37.8955 23.2654 37.9853 23.2654 38.0916V44.249C23.2654 44.3554 23.3553 44.4452 23.4616 44.4452H32.4269C32.5332 44.4452 32.623 44.3554 32.623 44.249V39.2788C32.6229 39.1725 32.5331 39.0827 32.4269 39.0827ZM45.0851 39.2788C45.0851 39.1725 44.9953 39.0826 44.889 39.0826H38.7619C38.6321 39.0826 38.506 39.0388 38.4042 38.9582L37.0613 37.8954H35.9237C35.8173 37.8954 35.7275 37.9853 35.7275 38.0915V44.2489C35.7275 44.3553 35.8173 44.4451 35.9237 44.4451H44.889C44.9953 44.4451 45.0851 44.3553 45.0851 44.2489V39.2788Z" fill="#2D3C58"/>
</g>
</g>
</g>
</g>
<defs>
<linearGradient id="paint0_linear_1_501" x1="0.277833" y1="13.1887" x2="27.9445" y2="55.6109" gradientUnits="userSpaceOnUse">
<stop stop-color="#E8ECFF"/>
<stop offset="1" stop-color="#D1FFEF"/>
</linearGradient>
<clipPath id="clip0_1_501">
<rect width="55.3333" height="55.3333" fill="white" transform="translate(0.277832 0.277588)"/>
</clipPath>
</defs>
</svg>
