<svg width="140" height="128" viewBox="0 0 140 128" fill="none" xmlns="http://www.w3.org/2000/svg">
<g id="Frame" clip-path="url(#clip0_1_484)">
<g id="Group">
<path id="Vector" d="M128.318 84.6649H109.571C108.779 84.6649 108.02 84.9794 107.46 85.5392C106.9 86.0991 106.586 86.8584 106.586 87.6501C106.586 88.4418 106.9 89.2011 107.46 89.7609C108.02 90.3208 108.779 90.6353 109.571 90.6353H128.318C128.975 91.7735 129.99 92.6634 131.203 93.1658C132.417 93.6691 133.764 93.7573 135.033 93.4175C136.303 93.0767 137.425 92.3272 138.225 91.2846C139.025 90.242 139.459 88.9644 139.459 87.6501C139.459 86.3358 139.025 85.0582 138.225 84.0156C137.425 82.9729 136.303 82.2233 135.033 81.8832C133.764 81.5429 132.417 81.6312 131.203 82.1342C129.99 82.6372 128.975 83.5267 128.318 84.6649Z" fill="url(#paint0_linear_1_484)"/>
<path id="Vector_2" d="M127.483 115.353V102.577C127.483 101.785 127.168 101.025 126.609 100.466C126.049 99.9057 125.29 99.5916 124.498 99.5916H106.587C105.795 99.5916 105.036 99.9057 104.476 100.466C103.916 101.025 103.602 101.785 103.602 102.577C103.602 103.369 103.916 104.128 104.476 104.687C105.036 105.248 105.795 105.562 106.587 105.562H121.513V115.353C120.375 116.01 119.485 117.025 118.982 118.239C118.479 119.454 118.391 120.799 118.731 122.069C119.071 123.339 119.821 124.46 120.864 125.26C121.906 126.061 123.184 126.494 124.498 126.494C125.813 126.494 127.09 126.061 128.133 125.26C129.175 124.46 129.925 123.339 130.265 122.069C130.605 120.799 130.517 119.454 130.014 118.239C129.51 117.025 128.621 116.01 127.483 115.353Z" fill="url(#paint1_linear_1_484)"/>
<path id="Vector_3" d="M55.8386 21.9764H46.0471C45.3899 20.8382 44.3756 19.9487 43.1613 19.4457C41.9472 18.9427 40.6009 18.8545 39.3314 19.1947C38.0619 19.5348 36.9401 20.2844 36.14 21.3271C35.3399 22.3697 34.9062 23.6473 34.9062 24.9616C34.9062 26.2759 35.3399 27.5535 36.14 28.5962C36.9401 29.6388 38.0619 30.3884 39.3314 30.7285C40.6009 31.0687 41.9472 30.9805 43.1613 30.4775C44.3756 29.9745 45.3899 29.085 46.0471 27.9468H52.8534V42.8727C52.8534 43.6645 53.1679 44.4237 53.7277 44.9836C54.2875 45.5434 55.0468 45.8579 55.8386 45.8579C56.6302 45.8579 57.3896 45.5434 57.9494 44.9836C58.5092 44.4237 58.8237 43.6645 58.8237 42.8727V24.9616C58.8237 24.1698 58.5092 23.4106 57.9494 22.8508C57.3896 22.2909 56.6302 21.9764 55.8386 21.9764Z" fill="url(#paint2_linear_1_484)"/>
<path id="Vector_4" d="M139.423 42.8727V30.9319C139.423 30.1402 139.108 29.3809 138.549 28.8211C137.988 28.2613 137.23 27.9468 136.438 27.9468H134.169C133.583 27.9463 133.01 27.7733 132.521 27.4496C132.033 27.1258 131.651 26.6653 131.423 26.1258C131.423 25.7079 131.094 25.2899 130.915 24.872C130.686 24.3283 130.624 23.7292 130.736 23.1502C130.847 22.571 131.128 22.0379 131.542 21.6182L133.154 20.0062C133.71 19.4469 134.022 18.6903 134.022 17.9016C134.022 17.1129 133.71 16.3563 133.154 15.797L124.706 7.34897C124.146 6.79297 123.39 6.4809 122.601 6.4809C121.812 6.4809 121.056 6.79297 120.497 7.34897L118.885 8.96097C118.458 9.39345 117.909 9.68522 117.311 9.79719C116.714 9.90925 116.096 9.83623 115.541 9.58786L114.288 9.08038C113.765 8.83847 113.323 8.45046 113.016 7.96315C112.709 7.47583 112.549 6.91004 112.556 6.33401V4.06526C112.556 3.27355 112.241 2.51425 111.682 1.95442C111.122 1.39459 110.363 1.08008 109.571 1.08008H97.6304C96.8386 1.08008 96.079 1.39459 95.5196 1.95442C94.9593 2.51425 94.6452 3.27355 94.6452 4.06526V6.33401C94.6443 6.91997 94.4716 7.49284 94.1473 7.98121C93.824 8.46958 93.3638 8.85185 92.8238 9.08038L91.6598 9.58786C91.1161 9.81648 90.517 9.87894 89.9379 9.76734C89.3587 9.65583 88.8257 9.37519 88.406 8.96097L86.794 7.34897C86.2346 6.79297 85.478 6.4809 84.6894 6.4809C83.9007 6.4809 83.1441 6.79297 82.5848 7.34897L74.0472 15.797C73.4911 16.3563 73.1791 17.1129 73.1791 17.9016C73.1791 18.6903 73.4911 19.4469 74.0472 20.0062L75.6592 21.6182C76.0917 22.0454 76.3834 22.5944 76.4954 23.1919C76.6075 23.7893 76.5344 24.4067 76.2861 24.9616C76.107 25.3795 75.9279 25.7974 75.7786 26.2153C75.5501 26.7549 75.1678 27.2152 74.6794 27.5391C74.191 27.8629 73.6182 28.0359 73.0322 28.0363H70.7635C69.9717 28.0363 69.2124 28.3508 68.6527 28.9106C68.0928 29.4705 67.7783 30.2297 67.7783 31.0215V42.9622C67.7783 43.754 68.0928 44.5133 68.6527 45.0731C69.2124 45.6329 69.9717 45.9474 70.7635 45.9474H73.0322C73.6182 45.9479 74.191 46.1208 74.6794 46.4446C75.1678 46.7684 75.5501 47.2289 75.7786 47.7684C75.9279 48.1863 76.107 48.6042 76.2861 49.0222C76.5146 49.5658 76.5771 50.165 76.4656 50.744C76.354 51.3232 76.0734 51.8563 75.6592 52.276L74.0472 53.888C73.4911 54.4473 73.1791 55.2039 73.1791 55.9926C73.1791 56.7813 73.4911 57.5378 74.0472 58.0971L82.4953 66.5452C83.0546 67.1012 83.8112 67.4133 84.5998 67.4133C85.3884 67.4133 86.145 67.1012 86.7044 66.5452L88.3164 64.9332C88.7331 64.4857 89.2774 64.177 89.8753 64.0489C90.4733 63.9207 91.0962 63.9793 91.6598 64.2168L92.9138 64.7243C93.4529 64.9528 93.9131 65.3351 94.2374 65.8234C94.5607 66.3118 94.7343 66.8847 94.7343 67.4706V69.7394C94.7343 70.5311 95.0493 71.2904 95.6087 71.8502C96.169 72.41 96.9277 72.7245 97.7195 72.7245H109.66C110.452 72.7245 111.212 72.41 111.771 71.8502C112.331 71.2904 112.645 70.5311 112.645 69.7394V67.4706C112.646 66.8847 112.819 66.3118 113.143 65.8234C113.467 65.3351 113.927 64.9528 114.467 64.7243L115.721 64.2168C116.264 63.9882 116.863 63.9257 117.442 64.0373C118.021 64.1489 118.554 64.4294 118.974 64.8437L120.586 66.4557C121.145 67.0116 121.902 67.3238 122.691 67.3238C123.479 67.3238 124.236 67.0116 124.796 66.4557L133.243 58.0076C133.8 57.4483 134.111 56.6917 134.111 55.903C134.111 55.1143 133.8 54.3578 133.243 53.7985L131.631 52.1865C131.184 51.7696 130.875 51.2255 130.747 50.6275C130.619 50.0295 130.678 49.4067 130.915 48.8431C131.094 48.4251 131.273 48.0072 131.423 47.5893C131.651 47.0497 132.033 46.5893 132.521 46.2655C133.01 45.9417 133.583 45.7688 134.169 45.7683H136.438C137.214 45.7687 137.96 45.4665 138.517 44.9258C139.075 44.3853 139.399 43.6487 139.423 42.8727Z" fill="url(#paint3_linear_1_484)"/>
<path id="Vector_5" d="M103.602 51.8284C111.845 51.8284 118.528 45.1458 118.528 36.9025C118.528 28.6592 111.845 21.9766 103.602 21.9766C95.3582 21.9766 88.6758 28.6592 88.6758 36.9025C88.6758 45.1458 95.3582 51.8284 103.602 51.8284Z" fill="white"/>
<path id="Vector_6" d="M115.542 87.6503C115.542 94.7762 112.711 101.609 107.673 106.648C102.634 111.686 95.8005 114.517 88.6755 114.517H28.9717C21.8462 114.75 14.9198 112.144 9.71617 107.271C4.51254 102.397 1.45796 95.6561 1.22441 88.5309C0.990848 81.4055 3.59745 74.479 8.47077 69.2755C13.3441 64.0718 20.085 61.0172 27.2105 60.7836C29.1472 53.8899 33.2843 47.8182 38.9914 43.4935C44.6986 39.1688 51.6629 36.8281 58.8236 36.8281C65.9842 36.8281 72.9486 39.1688 78.6557 43.4935C84.3628 47.8182 88.4999 53.8899 90.4367 60.7836C97.2527 61.2314 103.642 64.2585 108.305 69.2493C112.969 74.24 115.557 80.8198 115.542 87.6503Z" fill="url(#paint4_linear_1_484)"/>
</g>
<g id="Group_2">
<path id="Vector_7" d="M64.7934 72.7246H58.8231C58.0313 72.7246 57.272 73.0391 56.7122 73.5989C56.1524 74.1588 55.8379 74.918 55.8379 75.7098V93.6209C55.8379 94.4127 56.1524 95.1723 56.7122 95.7317C57.272 96.292 58.0313 96.6061 58.8231 96.6061C59.6147 96.6061 60.3741 96.292 60.9339 95.7317C61.4937 95.1723 61.8083 94.4127 61.8083 93.6209V90.6357H64.7934C67.1686 90.6357 69.4465 89.6922 71.1259 88.0127C72.8054 86.3332 73.749 84.0554 73.749 81.6802C73.749 79.305 72.8054 77.0271 71.1259 75.3476C69.4465 73.6681 67.1686 72.7246 64.7934 72.7246ZM64.7934 84.6654H61.8083V78.695H64.7934C65.5851 78.695 66.3445 79.0095 66.9043 79.5693C67.464 80.1292 67.7786 80.8884 67.7786 81.6802C67.7786 82.4719 67.464 83.2312 66.9043 83.791C66.3445 84.3509 65.5851 84.6654 64.7934 84.6654Z" fill="#4F60E6"/>
<path id="Vector_8" d="M40.9126 72.7246C38.5374 72.7246 36.2595 73.6681 34.58 75.3476C32.9005 77.0271 31.957 79.305 31.957 81.6802V93.6209C31.957 94.4127 32.2715 95.1723 32.8314 95.7317C33.3912 96.292 34.1505 96.6061 34.9422 96.6061C35.7339 96.6061 36.4932 96.292 37.0531 95.7317C37.6128 95.1723 37.9274 94.4127 37.9274 93.6209V90.6357H43.8978V93.6209C43.8978 94.4127 44.2123 95.1723 44.7721 95.7317C45.3319 96.292 46.0912 96.6061 46.883 96.6061C47.6746 96.6061 48.434 96.292 48.9938 95.7317C49.5536 95.1723 49.8681 94.4127 49.8681 93.6209V81.6802C49.8681 79.305 48.9246 77.0271 47.245 75.3476C45.5656 73.6681 43.2877 72.7246 40.9126 72.7246ZM37.9274 84.6654V81.6802C37.9274 80.8884 38.2419 80.1292 38.8017 79.5693C39.3616 79.0095 40.1208 78.695 40.9126 78.695C41.7043 78.695 42.4636 79.0095 43.0234 79.5693C43.5832 80.1292 43.8978 80.8884 43.8978 81.6802V84.6654H37.9274Z" fill="#4F60E6"/>
<path id="Vector_9" d="M82.7049 96.6061C81.9131 96.6061 81.1538 96.292 80.5941 95.7317C80.0342 95.1723 79.7197 94.4127 79.7197 93.6209V75.7098C79.7197 74.918 80.0342 74.1588 80.5941 73.5989C81.1538 73.0391 81.9131 72.7246 82.7049 72.7246C83.4966 72.7246 84.2559 73.0391 84.8158 73.5989C85.3755 74.1588 85.6901 74.918 85.6901 75.7098V93.6209C85.6901 94.4127 85.3755 95.1723 84.8158 95.7317C84.2559 96.292 83.4966 96.6061 82.7049 96.6061Z" fill="#4F60E6"/>
</g>
</g>
<defs>
<linearGradient id="paint0_linear_1_484" x1="106.586" y1="87.6501" x2="139.423" y2="87.6501" gradientUnits="userSpaceOnUse">
<stop stop-color="#FE9661"/>
<stop offset="1" stop-color="#FFB369"/>
</linearGradient>
<linearGradient id="paint1_linear_1_484" x1="103.602" y1="113.025" x2="130.468" y2="113.025" gradientUnits="userSpaceOnUse">
<stop stop-color="#FE9661"/>
<stop offset="1" stop-color="#FFB369"/>
</linearGradient>
<linearGradient id="paint2_linear_1_484" x1="46.883" y1="45.8579" x2="46.883" y2="18.9912" gradientUnits="userSpaceOnUse">
<stop stop-color="#FE9661"/>
<stop offset="1" stop-color="#FFB369"/>
</linearGradient>
<linearGradient id="paint3_linear_1_484" x1="78.2563" y1="62.2465" x2="128.945" y2="11.5581" gradientUnits="userSpaceOnUse">
<stop stop-color="#54A5FF"/>
<stop offset="1" stop-color="#8AD3FE"/>
</linearGradient>
<linearGradient id="paint4_linear_1_484" x1="2.10504" y1="75.7096" x2="115.542" y2="75.7096" gradientUnits="userSpaceOnUse">
<stop stop-color="#D3E6F5"/>
<stop offset="1" stop-color="#F0F7FC"/>
</linearGradient>
<clipPath id="clip0_1_484">
<rect width="138.696" height="126.756" fill="white" transform="translate(0.957031 0.391602)"/>
</clipPath>
</defs>
</svg>
