<svg width="40" height="40" viewBox="0 0 40 40" fill="none" xmlns="http://www.w3.org/2000/svg">
<g clip-path="url(#clip0_105_643)">
<rect width="40" height="40" rx="20" fill="url(#paint0_linear_105_643)"/>
<path d="M10.0977 15.8828L15.2773 30C11.6719 28.2227 9.18359 24.5664 9.18359 20.25C9.18359 18.7266 9.48828 17.2031 10.0977 15.8828ZM27.2617 19.7422C27.2617 20.6562 26.9062 21.7227 26.4492 23.1953L25.3828 26.8008L21.4727 15.2227C22.1328 15.1719 22.6914 15.1211 22.6914 15.1211C23.3008 15.0195 23.1992 14.1562 22.6406 14.207C22.6406 14.207 20.8633 14.3594 19.7461 14.3594C18.6797 14.3594 16.9023 14.207 16.9023 14.207C16.3438 14.1562 16.2422 15.0703 16.8516 15.1211C16.8516 15.1211 17.4102 15.1719 17.9688 15.2227L19.6445 19.793L17.3086 26.9023L13.3477 15.2227C14.0078 15.1719 14.6172 15.1211 14.6172 15.1211C15.1758 15.0195 15.125 14.1562 14.5156 14.207C14.5156 14.207 12.7891 14.3594 11.6211 14.3594C11.418 14.3594 11.2148 14.3594 10.9609 14.3594C12.8906 11.4141 16.1914 9.48438 20 9.48438C22.793 9.48438 25.332 10.5508 27.2617 12.3281C27.2109 12.2773 27.1602 12.2773 27.1094 12.2773C26.0938 12.2773 25.332 13.2422 25.332 14.207C25.332 15.1211 25.8398 15.8828 26.3984 16.7461C26.8047 17.457 27.2617 18.3711 27.2617 19.7422ZM20.1523 21.2148L23.5039 30.3047C23.5039 30.3555 23.5547 30.4062 23.5547 30.457C22.4375 30.8633 21.2188 31.0664 20 31.0664C18.9336 31.0664 17.918 30.9141 16.9023 30.6602L20.1523 21.2148ZM29.4453 15.0703C30.3086 16.6445 30.7656 18.3711 30.7656 20.25C30.7656 24.2617 28.6328 27.7148 25.3828 29.5938L28.6836 20.0469C29.3438 18.5234 29.5469 17.3047 29.5469 16.1875C29.5469 15.7812 29.4961 15.4258 29.4453 15.0703ZM32.5938 20.25C32.5938 27.207 26.9062 32.8438 20 32.8438C13.043 32.8438 7.40625 27.207 7.40625 20.25C7.40625 13.3438 13.043 7.65625 20 7.65625C26.9062 7.65625 32.5938 13.3438 32.5938 20.25ZM31.9844 20.25C31.9844 13.6484 26.6016 8.26562 20 8.26562C13.3477 8.26562 7.96484 13.6484 7.96484 20.25C7.96484 26.9023 13.3477 32.2852 20 32.2852C26.6016 32.2852 31.9844 26.9023 31.9844 20.25Z" fill="white"/>
</g>
<rect x="0.5" y="0.5" width="39" height="39" rx="19.5" stroke="url(#paint1_linear_105_643)"/>
<defs>
<linearGradient id="paint0_linear_105_643" x1="0" y1="20" x2="27.2464" y2="20" gradientUnits="userSpaceOnUse">
<stop stop-color="#085BDF"/>
<stop offset="1" stop-color="#5D39D3"/>
</linearGradient>
<linearGradient id="paint1_linear_105_643" x1="20" y1="0" x2="20" y2="40" gradientUnits="userSpaceOnUse">
<stop stop-color="white" stop-opacity="0"/>
<stop offset="1" stop-color="white" stop-opacity="0.24"/>
</linearGradient>
<clipPath id="clip0_105_643">
<rect width="40" height="40" rx="20" fill="white"/>
</clipPath>
</defs>
</svg>
