<?xml version="1.0" standalone="no"?>
<!DOCTYPE svg PUBLIC "-//W3C//DTD SVG 1.1//EN" "http://www.w3.org/Graphics/SVG/1.1/DTD/svg11.dtd" >
<svg xmlns="http://www.w3.org/2000/svg" xmlns:xlink="http://www.w3.org/1999/xlink" version="1.1">
<metadata>
Created by FontForge 20201107 at Mon Jan 20 21:22:41 2025
 By 
(c) 2022, Sharp Type Co. All rights reserved.
</metadata>
<defs>
<font id="BeatriceTrial-Medium" horiz-adv-x="1396" >
  <font-face 
    font-family="Beatrice Trial Medium"
    font-weight="500"
    font-stretch="normal"
    units-per-em="2048"
    panose-1="2 1 6 4 4 8 2 4 2 3"
    ascent="1495"
    descent="-553"
    x-height="1147"
    cap-height="1495"
    bbox="-74 -498 2066 1645"
    underline-thickness="102"
    underline-position="-153"
    unicode-range="U+0020-007A"
  />
<missing-glyph horiz-adv-x="1507" 
d="M160 0v1495h1186v-1495h-1186zM350 1321v-1147h807v1147h-807z" />
    <glyph glyph-name=".notdef" horiz-adv-x="1507" 
d="M160 0v1495h1186v-1495h-1186zM350 1321v-1147h807v1147h-807z" />
    <glyph glyph-name=".null" horiz-adv-x="0" 
 />
    <glyph glyph-name="nonmarkingreturn" horiz-adv-x="682" 
 />
    <glyph glyph-name="space" unicode=" " horiz-adv-x="528" 
 />
    <glyph glyph-name="period" unicode="." horiz-adv-x="579" 
d="M289 -18q-78 0 -127 48t-49 124q0 75 49 123.5t127 48.5q79 0 128.5 -48.5t49.5 -123.5q0 -77 -49.5 -124.5t-128.5 -47.5z" />
    <glyph glyph-name="zero" unicode="0" horiz-adv-x="1404" 
d="M702 -20q-132 0 -240.5 48t-190 142t-126.5 244.5t-45 343.5q0 190 47.5 337.5t131 238t190.5 136.5t233 46q128 0 236 -46.5t190 -138t128.5 -238.5t46.5 -335q0 -191 -45.5 -341t-127 -244.5t-190 -143.5t-238.5 -49zM702 209q167 0 261 130.5t94 414.5q0 144 -26 249
t-74.5 166t-110.5 90t-141 29q-165 0 -261 -130t-96 -404q0 -279 94 -412t260 -133z" />
    <glyph glyph-name="one" unicode="1" horiz-adv-x="804" 
d="M645 1495v-1495h-242v1190q-48 -120 -140.5 -188t-211.5 -68h-22v240h10q181 0 279 81t102 240h225z" />
    <glyph glyph-name="two" unicode="2" horiz-adv-x="1224" 
d="M88 217q274 199 404 299q165 128 253.5 220t119 161.5t30.5 153.5q0 118 -68 188t-192 70q-258 0 -326 -305l-239 79q71 210 217 321.5t352 111.5q120 0 215 -34.5t155.5 -95t92 -139t31.5 -168.5q0 -92 -27.5 -170.5t-93 -158t-154.5 -155.5t-229 -177
q-31 -22 -123 -86.5t-148 -104.5h801v-227h-1071v217z" />
    <glyph glyph-name="three" unicode="3" horiz-adv-x="1271" 
d="M47 274l193 136q63 -104 166.5 -158.5t234.5 -54.5q143 0 222 65.5t79 175.5q0 230 -350 230h-186v184h165q148 0 236 58.5t88 166.5q0 111 -72 170.5t-202 59.5q-123 0 -206 -59.5t-139 -184.5l-206 119q96 158 237.5 246t323.5 88q223 0 359 -103t136 -287
q0 -138 -80 -226.5t-223 -123.5q344 -64 344 -368q0 -191 -137.5 -311t-378.5 -120q-201 0 -357 77t-247 220z" />
    <glyph glyph-name="four" unicode="4" horiz-adv-x="1284" 
d="M35 498l694 997h277v-6l-684 -979h485v330h242v-330h215v-176h-215v-334l-242 -4v338h-772v164z" />
    <glyph glyph-name="five" unicode="5" horiz-adv-x="1251" 
d="M1171 508q0 -236 -155 -382t-398 -146q-193 0 -334.5 80t-217.5 219l227 145q108 -217 338 -217q140 0 221.5 85t81.5 232q0 139 -84 220t-221 81q-195 0 -307 -182l-222 39l97 813h897v-227h-707l-51 -453q136 189 377 189q207 0 332.5 -132.5t125.5 -363.5z" />
    <glyph glyph-name="six" unicode="6" horiz-adv-x="1335" 
d="M100 709q0 193 52.5 348t143 254.5t210 152t256.5 52.5q319 0 498 -201l-168 -174q-67 83 -142.5 119t-193.5 36q-190 0 -303 -146t-113 -425q75 127 190 194.5t254 67.5q210 0 346 -126.5t136 -344.5q0 -108 -39 -205.5t-108.5 -171t-174.5 -116.5t-229 -43
q-125 0 -227.5 38t-173.5 104.5t-120 158.5t-71.5 199.5t-22.5 228.5zM733 807q-131 0 -229 -66.5t-148 -197.5q32 -168 124 -253t235 -85q153 0 238 84.5t85 226.5q0 144 -86.5 217.5t-218.5 73.5z" />
    <glyph glyph-name="seven" unicode="7" horiz-adv-x="1132" 
d="M225 0l621 1270h-799v225h1038v-211l-589 -1284h-271z" />
    <glyph glyph-name="eight" unicode="8" horiz-adv-x="1290" 
d="M61 389q0 141 91.5 247.5t248.5 147.5q-131 32 -206.5 116.5t-75.5 219.5q0 178 145 287t385 109q236 0 381.5 -108t145.5 -280q0 -132 -75 -218.5t-204 -123.5q153 -39 242.5 -138t89.5 -238q0 -197 -159.5 -313.5t-424.5 -116.5q-279 0 -431.5 106.5t-152.5 302.5z
M950 1077q0 107 -79.5 171.5t-221.5 64.5t-223.5 -65.5t-81.5 -170.5q0 -106 82.5 -164.5t222.5 -58.5q138 0 219.5 59t81.5 164zM991 449q0 121 -94 186t-248 65q-153 0 -248.5 -67.5t-95.5 -188.5q0 -113 89.5 -182t254.5 -69q162 0 252 70.5t90 185.5z" />
    <glyph glyph-name="nine" unicode="9" horiz-adv-x="1337" 
d="M80 180l170 174q66 -81 144.5 -118t195.5 -37q190 0 298.5 143.5t108.5 419.5q-73 -123 -187 -187.5t-255 -64.5q-210 0 -344.5 126t-134.5 343q0 109 38.5 206.5t108 171t174 116.5t228.5 43q126 0 228.5 -38t173 -104.5t118.5 -159t70 -200t22 -228.5
q0 -193 -50.5 -348t-139.5 -254t-207 -151.5t-256 -52.5q-323 0 -504 200zM301 979q0 -144 86.5 -217.5t220.5 -73.5q132 0 229.5 64t145.5 194q-59 346 -358 346q-153 0 -238.5 -85.5t-85.5 -227.5z" />
    <glyph glyph-name="A" unicode="A" horiz-adv-x="1503" 
d="M27 0l581 1495h287l582 -1495h-263l-116 311h-692l-115 -311h-264zM696 1104l-223 -606h555l-227 606l-51 162z" />
    <glyph glyph-name="B" unicode="B" horiz-adv-x="1470" 
d="M160 0v1495h690q258 0 382 -99t124 -278q0 -137 -82 -227.5t-234 -118.5q169 -22 263 -114.5t94 -251.5q0 -201 -143 -303.5t-414 -102.5h-680zM795 1278h-385v-432h374q166 0 249 60t83 165q0 100 -74.5 153.5t-246.5 53.5zM811 666h-401v-447h403q186 0 263 63.5
t77 174.5q0 106 -82 157.5t-260 51.5z" />
    <glyph glyph-name="C" unicode="C" horiz-adv-x="1593" 
d="M100 748q0 155 49.5 293.5t140 244.5t231 168t310.5 62q282 0 454 -144t233 -399l-252 -72q-39 185 -142.5 285t-294.5 100q-147 0 -256 -72t-163 -193t-54 -273q0 -116 27.5 -212t82.5 -170t146 -115.5t211 -41.5q383 0 451 418l254 -47q-26 -135 -80 -242t-139 -188.5
t-208 -125.5t-278 -44q-150 0 -271.5 40.5t-204.5 110.5t-139.5 168t-82 210t-25.5 239z" />
    <glyph glyph-name="D" unicode="D" horiz-adv-x="1550" 
d="M160 1495h497q386 0 589.5 -186.5t203.5 -542.5q0 -168 -50.5 -307.5t-147 -242t-245.5 -159.5t-337 -57h-510v1495zM653 1268h-243v-1041h260q263 0 393.5 142.5t130.5 396.5q0 255 -133 378.5t-408 123.5z" />
    <glyph glyph-name="E" unicode="E" horiz-adv-x="1363" 
d="M160 0v1495h1100v-225h-850v-418h663v-193h-663v-434h852v-225h-1102z" />
    <glyph glyph-name="F" unicode="F" horiz-adv-x="1304" 
d="M160 0v1495h1050v-225h-800v-482h690v-190h-690v-598h-250z" />
    <glyph glyph-name="G" unicode="G" horiz-adv-x="1656" 
d="M100 709q0 176 53 325.5t149.5 256t239 166t314.5 59.5q240 0 399.5 -97t268.5 -276l-228 -146q-72 151 -176.5 220t-275.5 69q-222 0 -355 -148.5t-133 -408.5q0 -241 123 -385.5t340 -144.5q187 0 306 104t145 311h-492v187h742v-801h-246v205l4 172
q-55 -196 -188 -296.5t-334 -100.5q-124 0 -230.5 38t-184 106t-132.5 159.5t-82 199.5t-27 226z" />
    <glyph glyph-name="H" unicode="H" horiz-adv-x="1558" 
d="M160 0v1495h250v-643h737v643h250v-1495h-250v659h-737v-659h-250z" />
    <glyph glyph-name="I" unicode="I" horiz-adv-x="581" 
d="M166 0v1495h250v-1495h-250z" />
    <glyph glyph-name="J" unicode="J" horiz-adv-x="1284" 
d="M604 -20q-477 0 -553 442l240 72q25 -153 101 -225t210 -72q152 0 219.5 98.5t67.5 300.5v899h250v-926q0 -270 -140 -429.5t-395 -159.5z" />
    <glyph glyph-name="K" unicode="K" horiz-adv-x="1456" 
d="M160 1495h250v-647h292l420 647h283l-490 -725l535 -770h-293l-446 664h-301v-664h-250v1495z" />
    <glyph glyph-name="L" unicode="L" horiz-adv-x="1255" 
d="M160 0v1495h250v-1266h772v-229h-1022z" />
    <glyph glyph-name="M" unicode="M" horiz-adv-x="1898" 
d="M160 1495h340l422 -1159l28 -107l31 105l428 1159l328 2v-1495h-242v1067l12 225l-61 -223l-399 -1069h-199l-395 1069l-62 213l12 -215v-1067h-243v1495z" />
    <glyph glyph-name="N" unicode="N" horiz-adv-x="1562" 
d="M160 1495h297l649 -1089l63 -138l-8 148v1079h242v-1495h-279l-671 1133l-66 122l14 -141v-1114h-241v1495z" />
    <glyph glyph-name="O" unicode="O" horiz-adv-x="1644" 
d="M817 -20q-179 0 -318.5 60.5t-225.5 167t-129.5 244t-43.5 298.5q0 124 30.5 238t91 210t146 167t202 111t251.5 40q142 0 261 -39.5t203.5 -109.5t143.5 -166.5t87 -210t28 -240.5q0 -126 -29 -240.5t-88.5 -211.5t-144.5 -167.5t-204.5 -110.5t-260.5 -40zM819 209
q117 0 207.5 41t147 114.5t85.5 171t29 214.5q0 157 -50 276t-157 190.5t-260 71.5q-145 0 -252 -72.5t-160 -193t-53 -272.5q0 -116 28 -213t83.5 -171t145.5 -115.5t206 -41.5z" />
    <glyph glyph-name="P" unicode="P" horiz-adv-x="1454" 
d="M764 455h-354v-455h-250v1495h592q298 0 457 -134t161 -370q0 -251 -164.5 -393.5t-441.5 -142.5zM743 1266h-333v-619h331q383 0 383 311q0 160 -95.5 234t-285.5 74z" />
    <glyph glyph-name="Q" unicode="Q" horiz-adv-x="1644" 
d="M1534 82l-131 -131l-172 164q-182 -135 -412 -135q-152 0 -274.5 40.5t-204.5 111t-137 169t-79 210t-24 239.5q0 124 30.5 238t91 210t146 167t202 111t251.5 40q177 0 318.5 -60.5t230 -166t134 -243.5t40.5 -296q-9 -294 -180 -508zM356 750q0 -117 26 -213t80 -171.5
t145.5 -117t213.5 -41.5q146 0 246 65l-217 209l131 129l217 -209q90 140 90 349q0 157 -50 276t-157 190.5t-260 71.5q-145 0 -252 -72.5t-160 -193t-53 -272.5z" />
    <glyph glyph-name="R" unicode="R" horiz-adv-x="1458" 
d="M160 1495h671q261 0 398 -114t137 -312q0 -162 -106.5 -272.5t-282.5 -143.5q108 -15 168 -57q60 -39 99.5 -115t78.5 -213l76 -268h-266l-70 264q-20 78 -40 127t-47.5 85.5t-69 54.5t-95 26t-135.5 8h-266v-565h-250v1495zM770 1278h-360v-530h350q171 0 264.5 72
t93.5 200q0 258 -348 258z" />
    <glyph glyph-name="S" unicode="S" horiz-adv-x="1353" 
d="M33 285l209 174q96 -131 208 -189.5t271 -58.5q139 0 216 61.5t77 159.5q0 49 -23 86t-58.5 60t-91.5 41t-108 29t-123 23q-5 1 -8 1q-64 11 -111 20.5t-104 27t-97.5 37.5t-80.5 51t-65 68.5t-40.5 90t-15.5 114.5q0 90 36.5 169t104 139.5t173 95.5t235.5 35
q209 0 360 -73t271 -233l-219 -163q-80 122 -181 179.5t-256 57.5q-139 0 -213.5 -60.5t-74.5 -150.5q0 -34 11 -62t27.5 -48t48.5 -37.5t59 -28t75 -21.5t82 -17.5t92 -16.5q8 -1 12 -2q64 -12 108 -21.5t102.5 -27t98.5 -37.5t82.5 -51.5t68 -69.5t42 -91.5t16.5 -117.5
q0 -202 -146.5 -326.5t-400.5 -124.5q-449 0 -669 308z" />
    <glyph glyph-name="T" unicode="T" horiz-adv-x="1351" 
d="M72 1276v219h1208v-219h-479v-1276h-250v1276h-479z" />
    <glyph glyph-name="U" unicode="U" horiz-adv-x="1509" 
d="M1116 1495h248v-870q0 -317 -164 -481t-448 -164q-607 0 -607 645v870h250v-852q0 -217 87.5 -324.5t269.5 -107.5q190 0 277 106.5t87 325.5v852z" />
    <glyph glyph-name="V" unicode="V" horiz-adv-x="1490" 
d="M1458 1495l-604 -1495h-254l-567 1495h272l359 -963l75 -253l78 253l371 963h270z" />
    <glyph glyph-name="W" unicode="W" horiz-adv-x="2125" 
d="M59 1495h275l233 -1034l37 -180l35 180l291 1034h237l281 -1034l39 -193l39 193l270 1034h270l-407 -1495h-299l-301 1085l-27 142l-26 -142l-304 -1085h-276z" />
    <glyph glyph-name="X" unicode="X" horiz-adv-x="1413" 
d="M18 0l543 780l-500 715h279l332 -483l41 -68l39 68l325 483h279l-502 -715l541 -780h-277l-375 553l-41 65l-36 -65l-373 -553h-275z" />
    <glyph glyph-name="Y" unicode="Y" horiz-adv-x="1339" 
d="M6 1495h279l336 -631l49 -114l53 114l338 631h274l-547 -963v-532h-247v532z" />
    <glyph glyph-name="Z" unicode="Z" horiz-adv-x="1333" 
d="M82 207l768 926l127 141h-864v221h1122v-209l-713 -866l-178 -201h899v-219h-1161v207z" />
    <glyph glyph-name="a" unicode="a" horiz-adv-x="1343" 
d="M84 266q0 93 37 155.5t108 106.5q59 37 144 62.5t241 58.5q157 33 216 67t59 97q0 71 -57.5 115.5t-178.5 44.5q-236 0 -319 -234l-223 72q71 176 215 267t338 91q218 0 340 -105.5t122 -303.5v-434q0 -85 27 -118.5t88 -33.5q42 0 82 16v-165q-73 -43 -172 -43
q-138 0 -199 67t-61 217v10q-54 -139 -173.5 -217.5t-273.5 -78.5q-172 0 -266 76.5t-94 209.5zM897 537v84q-26 -35 -85 -59.5t-175 -49.5q-166 -36 -234.5 -78.5t-68.5 -126.5q0 -68 52.5 -104.5t152.5 -36.5q98 0 180.5 52.5t129 137.5t48.5 181z" />
    <glyph glyph-name="b" unicode="b" 
d="M1305 582q0 -141 -40 -255t-109 -188t-160 -113.5t-195 -39.5q-140 0 -240.5 66.5t-157.5 187.5v-240h-245v1630h248v-727q59 128 166 193t247 65q100 0 186.5 -35.5t154.5 -104.5t106.5 -182t38.5 -257zM1053 575q0 184 -85.5 286t-246.5 102q-162 0 -249 -109t-87 -281
q0 -176 84.5 -279.5t255.5 -103.5q161 0 244.5 103t83.5 282z" />
    <glyph glyph-name="c" unicode="c" horiz-adv-x="1294" 
d="M92 573q0 170 69 304t203.5 213t313.5 79q123 0 218 -31t159 -89.5t104.5 -133.5t63.5 -172l-254 -55q-46 275 -297 275q-159 0 -243.5 -107.5t-84.5 -282.5q0 -178 81 -280.5t247 -102.5q132 0 201.5 69.5t99.5 205.5l252 -53q-45 -197 -185.5 -314.5t-367.5 -117.5
q-186 0 -318.5 77.5t-197 210t-64.5 305.5z" />
    <glyph glyph-name="d" unicode="d" 
d="M92 567q0 115 28.5 213t77.5 167t114.5 118t140.5 72.5t155 23.5q277 0 385 -243v712h248v-1630h-248v248q-57 -126 -161.5 -194t-243.5 -68q-103 0 -192.5 37t-157.5 107.5t-107 183t-39 253.5zM1012 575q0 176 -83 282t-251 106q-159 0 -245.5 -106t-86.5 -286
q0 -181 84 -281t246 -100q167 0 251.5 105.5t84.5 279.5z" />
    <glyph glyph-name="e" unicode="e" horiz-adv-x="1312" 
d="M92 567q0 122 41 231.5t115 192t186 130.5t246 48q136 0 242.5 -46t172.5 -126t100 -183t34 -222v-86h-895q14 -152 103.5 -236t246.5 -84q112 0 184 45t125 138l207 -115q-166 -274 -512 -274q-145 0 -259.5 44.5t-187.5 123.5t-111 185.5t-38 233.5zM678 965
q-144 0 -232 -80t-110 -223h649q-8 139 -84 221t-223 82z" />
    <glyph glyph-name="f" unicode="f" horiz-adv-x="907" 
d="M285 0v942h-248v205h248v96q0 212 93.5 299.5t287.5 87.5h184v-196h-178q-87 0 -119.5 -39.5t-32.5 -139.5v-108h332v-205h-332v-942h-235z" />
    <glyph glyph-name="g" unicode="g" 
d="M111 -233l225 129q58 -90 134 -133.5t194 -43.5q329 0 329 392v139q-57 -124 -161 -191t-242 -67q-103 0 -192.5 36.5t-158 107t-108 182t-39.5 251.5q0 115 28.5 212.5t77 166.5t114 117.5t140 72t154.5 23.5q284 0 389 -250v236h248v-1018q0 -312 -156 -469.5
t-440 -157.5q-374 0 -536 265zM1012 575q0 176 -83 282t-251 106q-158 0 -245 -105.5t-87 -282.5q0 -180 85.5 -279t248.5 -99q166 0 249 103t83 275z" />
    <glyph glyph-name="h" unicode="h" horiz-adv-x="1376" 
d="M158 1630h245v-758q58 147 163.5 222t248.5 75q197 0 306.5 -127.5t109.5 -341.5v-700h-248v637q0 157 -64.5 241.5t-209.5 84.5q-141 0 -222 -105t-81 -293v-565h-248v1630z" />
    <glyph glyph-name="i" unicode="i" horiz-adv-x="563" 
d="M125 1481q0 74 43 119t119 45q74 0 118 -45.5t44 -118.5q0 -71 -44 -115.5t-118 -44.5q-76 0 -119 44t-43 116zM156 1147h250v-1147h-250v1147z" />
    <glyph glyph-name="j" unicode="j" horiz-adv-x="563" 
d="M125 1481q0 74 43 119t119 45q74 0 118 -45.5t44 -118.5q0 -71 -44 -115.5t-118 -44.5q-76 0 -119 44t-43 116zM-74 -217h35q110 0 153.5 46.5t43.5 166.5v1151h250v-1127q0 -125 -19.5 -207.5t-69 -142t-135 -86t-215.5 -26.5h-43v225z" />
    <glyph glyph-name="k" unicode="k" horiz-adv-x="1259" 
d="M158 1630h248v-954h155l395 471h293l-477 -561l485 -586h-299l-399 494h-153v-494h-248v1630z" />
    <glyph glyph-name="l" unicode="l" horiz-adv-x="561" 
d="M406 1630v-1630h-248v1630h248z" />
    <glyph glyph-name="m" unicode="m" horiz-adv-x="2088" 
d="M154 1147h247v-268q107 290 385 290q144 0 237.5 -75t127.5 -211q58 140 161 213t240 73q188 0 291 -126.5t103 -340.5v-702h-248v639q0 158 -56 241t-190 83q-135 0 -206.5 -102t-71.5 -292v-569h-248v641q0 159 -56 240.5t-190 81.5t-206.5 -104t-72.5 -294v-565h-247
v1147z" />
    <glyph glyph-name="n" unicode="n" horiz-adv-x="1372" 
d="M154 0v1147h247v-273q56 147 160.5 221t247.5 74q197 0 308.5 -127.5t111.5 -341.5v-700h-250v637q0 157 -65.5 241.5t-211.5 84.5q-139 0 -220 -105.5t-81 -292.5v-565h-247z" />
    <glyph glyph-name="o" unicode="o" horiz-adv-x="1357" 
d="M680 -20q-185 0 -319.5 77.5t-201.5 210t-67 305.5q0 170 69 304t204 213t315 79q137 0 249 -46t185 -126.5t112.5 -189t39.5 -234.5q0 -167 -69 -300.5t-203.5 -213t-313.5 -79.5zM680 190q167 0 249.5 103t82.5 280q0 181 -83 285.5t-249 104.5q-163 0 -248.5 -107
t-85.5 -283q0 -179 82 -281t252 -102z" />
    <glyph glyph-name="p" unicode="p" 
d="M799 -14q-140 0 -240.5 66.5t-157.5 187.5v-682h-247v1589h247v-250q59 131 168 197.5t250 66.5q100 0 186.5 -35.5t154.5 -104.5t106.5 -182t38.5 -257q0 -141 -39.5 -255t-109 -188t-161 -113.5t-196.5 -39.5zM1051 575q0 184 -85.5 286t-246.5 102q-162 0 -248 -109
t-86 -281q0 -176 83.5 -279.5t254.5 -103.5q161 0 244.5 103t83.5 282z" />
    <glyph glyph-name="q" unicode="q" horiz-adv-x="1392" 
d="M92 567q0 143 43 258.5t116 187.5t164 110t191 38q278 0 387 -248v234h246v-1589h-248v682q-59 -123 -162.5 -188.5t-242.5 -65.5q-103 0 -192 37t-157 107.5t-106.5 183t-38.5 253.5zM1012 575q0 176 -84 282t-252 106q-157 0 -244.5 -106t-87.5 -286q0 -181 85 -281
t247 -100q167 0 251.5 105.5t84.5 279.5z" />
    <glyph glyph-name="r" unicode="r" horiz-adv-x="950" 
d="M719 1163q120 0 199 -45l-70 -227q-80 51 -195 51q-112 0 -182 -92.5t-70 -267.5v-582h-247v1147h247v-277q38 151 115 222t203 71z" />
    <glyph glyph-name="s" unicode="s" horiz-adv-x="1150" 
d="M43 205l180 170q72 -96 164 -143.5t217 -47.5q114 0 172 46.5t58 113.5q0 19 -6 35.5t-19.5 29.5t-27.5 22.5t-39.5 18t-46 14.5t-55.5 12.5t-59 10.5t-66.5 10.5t-68.5 10.5q-84 13 -145 33.5t-112 55t-77 89t-26 129.5q0 155 122.5 257t332.5 102q175 0 303 -56.5
t231 -179.5l-190 -162q-67 96 -153.5 142.5t-205.5 46.5q-113 0 -168 -43t-55 -109q0 -25 9.5 -45t33.5 -35t46.5 -25t68 -19.5t77.5 -15t93 -14.5q77 -11 131 -23.5t113.5 -36t95.5 -55t60 -83t24 -117.5q0 -162 -123 -264.5t-334 -102.5q-372 0 -555 228z" />
    <glyph glyph-name="t" unicode="t" horiz-adv-x="937" 
d="M856 225v-200q-92 -45 -209 -45q-183 0 -265.5 95.5t-82.5 289.5v577h-262v205h264v293l231 139v-432h324v-205h-324v-549q0 -107 42.5 -153.5t130.5 -46.5q77 0 151 32z" />
    <glyph glyph-name="u" unicode="u" horiz-adv-x="1345" 
d="M1192 1147v-1147h-248v272q-58 -146 -159.5 -220.5t-235.5 -74.5q-204 0 -308 125t-104 342v703h248v-635q0 -158 61.5 -242t204.5 -84q134 0 212.5 107.5t78.5 292.5v561h250z" />
    <glyph glyph-name="v" unicode="v" horiz-adv-x="1230" 
d="M739 0h-260l-463 1147h258l285 -750l55 -174l56 174l295 750h249z" />
    <glyph glyph-name="w" unicode="w" horiz-adv-x="1804" 
d="M870 797l-233 -797h-307l-291 1147h256l197 -844l24 -149l33 149l250 844h200l244 -842l29 -155l26 153l215 844h252l-319 -1147h-297l-223 799l-29 123z" />
    <glyph glyph-name="x" unicode="x" horiz-adv-x="1202" 
d="M8 0l449 590l-422 557h280l291 -395l291 395h274l-423 -557l446 -590h-274l-318 428l-315 -428h-279z" />
    <glyph glyph-name="y" unicode="y" horiz-adv-x="1230" 
d="M10 1147h256l305 -737l47 -152l52 152l299 737h252l-676 -1589h-258l202 460z" />
    <glyph glyph-name="z" unicode="z" horiz-adv-x="1159" 
d="M84 209l723 723h-711v215h967v-207l-725 -725h735v-215h-989v209z" />
    <glyph glyph-name="IJ" horiz-adv-x="1333" 
d="M133 301l227 145q103 -249 324 -249q122 0 190 87.5t68 264.5v946h250v-954q0 -261 -126.5 -411t-367.5 -150q-394 0 -565 321zM141 1495h250v-887h-250v887z" />
    <glyph glyph-name="i.TRK" horiz-adv-x="563" 
d="M125 1481q0 74 43 119t119 45q74 0 118 -45.5t44 -118.5q0 -71 -44 -115.5t-118 -44.5q-76 0 -119 44t-43 116zM156 1147h250v-1147h-250v1147z" />
    <glyph glyph-name="ij" horiz-adv-x="1116" 
d="M125 1481q0 74 43 119t119 45q74 0 118 -45.5t44 -118.5q0 -71 -44 -115.5t-118 -44.5q-76 0 -119 44t-43 116zM676 1481q0 74 43 119t119 45q75 0 118 -45.5t43 -118.5q0 -72 -43 -116t-118 -44q-76 0 -119 44t-43 116zM477 -217h35q110 0 153.5 46.5t43.5 166.5v1151
h249v-1127q0 -125 -19.5 -207.5t-69 -142t-134.5 -86t-215 -26.5h-43v225zM156 1147h250v-1147h-250v1147z" />
    <glyph glyph-name="zero.num" horiz-adv-x="864" 
d="M424 596q-169 0 -270 115t-101 344q0 115 29 203t80.5 141.5t117.5 80.5t144 27q166 0 269.5 -114t103.5 -338q0 -226 -102 -342.5t-271 -116.5zM424 772q89 0 134.5 63t45.5 218q0 154 -46 217t-132 63q-87 0 -133.5 -64.5t-46.5 -215.5q0 -152 45 -216.5t133 -64.5z
" />
    <glyph glyph-name="one.num" horiz-adv-x="581" 
d="M449 1495v-887h-193v695q-56 -177 -229 -177h-13v195h6q238 0 238 174h191z" />
    <glyph glyph-name="two.num" horiz-adv-x="776" 
d="M61 782q185 109 316 219q81 71 108 119t27 99q0 59 -33 95t-94 36q-131 0 -174 -164l-170 78q47 121 141 182t207 61q145 0 223 -74t78 -186q0 -90 -53.5 -164.5t-183.5 -167.5q-119 -87 -193 -131h461v-176h-660v174z" />
    <glyph glyph-name="three.num" horiz-adv-x="804" 
d="M27 772l151 107q59 -115 217 -115q76 0 118 36t42 95q0 65 -46 93t-134 28h-142v92h121q170 0 170 123q0 58 -39.5 89.5t-103.5 31.5q-123 0 -180 -125l-152 73q48 102 138.5 155.5t203.5 53.5q132 0 217.5 -60.5t85.5 -170.5q0 -75 -46 -128.5t-126 -80.5
q195 -39 195 -219q0 -111 -87.5 -181.5t-232.5 -70.5q-129 0 -225 44t-145 130z" />
    <glyph glyph-name="four.num" horiz-adv-x="774" 
d="M18 901l388 596h190v-6l-393 -598h246v190h182v-190h121v-92h-121v-193h-182v193h-431v100z" />
    <glyph glyph-name="five.num" horiz-adv-x="798" 
d="M729 920q0 -139 -93.5 -231.5t-238.5 -92.5q-120 0 -210.5 45.5t-137.5 124.5l184 102q52 -102 166 -102q69 0 108.5 43t39.5 129q0 68 -39 111t-105 43q-112 0 -159 -131l-170 26l39 508h573v-170h-416l-16 -240q83 103 217 103q114 0 186 -71t72 -197z" />
    <glyph glyph-name="six.num" horiz-adv-x="837" 
d="M53 1028q0 228 114 353.5t302 125.5q152 0 274 -73l-90 -160q-71 61 -180 61q-114 0 -181.5 -77.5t-68.5 -225.5q2 -10 2 -24q33 74 102.5 118.5t157.5 44.5q120 0 195.5 -73t75.5 -201q0 -126 -88.5 -213.5t-239.5 -87.5q-189 0 -282 117.5t-93 314.5zM428 1079
q-65 0 -116 -50t-64 -140q25 -62 73 -93.5t107 -31.5q68 0 112 44t44 118t-43 113.5t-113 39.5z" />
    <glyph glyph-name="seven.num" horiz-adv-x="708" 
d="M123 608l364 715h-460v172h641v-160l-346 -727h-199z" />
    <glyph glyph-name="eight.num" horiz-adv-x="817" 
d="M37 836q0 105 75.5 164t186.5 69q-41 5 -79 18.5t-73 37.5t-56 62.5t-21 86.5q0 107 89 170t244 63q150 0 241 -64.5t91 -166.5q0 -48 -20.5 -86.5t-54.5 -63t-73 -38.5t-81 -19q112 -8 185 -65.5t73 -165.5q0 -112 -98.5 -177t-264.5 -65q-175 0 -269.5 63t-94.5 177z
M567 1231q0 58 -44 90.5t-120 32.5q-78 0 -121.5 -32t-43.5 -89q0 -55 45 -88t120 -33q74 0 119 31.5t45 87.5zM586 893q0 66 -52 100.5t-131 34.5q-80 0 -133 -34.5t-53 -100.5q0 -62 51.5 -99.5t134.5 -37.5q81 0 132 37.5t51 99.5z" />
    <glyph glyph-name="nine.num" horiz-adv-x="837" 
d="M47 717l131 139q75 -86 191 -86q196 0 196 295q-26 -63 -85.5 -98t-137.5 -35q-124 0 -206.5 70t-82.5 194q0 130 93 220.5t237 90.5q178 0 274.5 -116.5t96.5 -321.5q0 -231 -98.5 -352t-284.5 -121q-199 0 -324 121zM227 1178q0 -72 44 -112t116 -40q56 0 103.5 36
t68.5 103q-17 88 -62 131t-112 43q-70 0 -114 -42.5t-44 -118.5z" />
    <glyph glyph-name="zero.den" horiz-adv-x="864" 
d="M424 -12q-169 0 -270 114.5t-101 343.5q0 115 29 203.5t80.5 142t117.5 80.5t144 27q166 0 269.5 -114.5t103.5 -338.5q0 -226 -102 -342t-271 -116zM424 164q89 0 134.5 62.5t45.5 217.5q0 154 -46 217.5t-132 63.5q-87 0 -133.5 -65t-46.5 -216q0 -152 45 -216t133 -64
z" />
    <glyph glyph-name="one.den" horiz-adv-x="581" 
d="M449 887v-887h-193v694q-27 -85 -85 -130.5t-144 -45.5h-13v195h6q238 0 238 174h191z" />
    <glyph glyph-name="two.den" horiz-adv-x="776" 
d="M61 174q185 109 316 219q81 72 108 119t27 98q0 59 -33 95t-94 36q-131 0 -174 -163l-170 77q47 121 141 182.5t207 61.5q145 0 223 -74t78 -186q0 -90 -53.5 -164.5t-183.5 -167.5q-119 -87 -193 -131h461v-176h-660v174z" />
    <glyph glyph-name="three.den" horiz-adv-x="804" 
d="M27 164l151 106q58 -114 217 -114q76 0 118 36t42 95q0 65 -46 93t-134 28h-142v92h121q170 0 170 123q0 58 -39.5 89t-103.5 31q-123 0 -180 -125l-152 74q48 102 138.5 155.5t203.5 53.5q132 0 217.5 -60.5t85.5 -170.5q0 -75 -46 -128.5t-126 -80.5q195 -39 195 -219
q0 -111 -87.5 -181.5t-232.5 -70.5q-129 0 -225 44t-145 130z" />
    <glyph glyph-name="four.den" horiz-adv-x="774" 
d="M18 293l388 596h190v-6l-393 -598h246v190h182v-190h121v-92h-121v-193h-182v193h-431v100z" />
    <glyph glyph-name="five.den" horiz-adv-x="798" 
d="M729 311q0 -139 -93.5 -231t-238.5 -92q-120 0 -210.5 45.5t-137.5 124.5l184 102q52 -102 166 -102q69 0 108.5 43t39.5 129q0 67 -39 110t-105 43q-112 0 -159 -131l-170 27l39 508h573v-170h-416l-16 -240q83 103 217 103q114 0 186 -71.5t72 -197.5z" />
    <glyph glyph-name="six.den" horiz-adv-x="837" 
d="M53 420q0 228 114 353.5t302 125.5q150 0 274 -74l-90 -159q-71 61 -180 61q-114 0 -181.5 -77.5t-68.5 -225.5q2 -10 2 -25q33 75 102.5 119.5t157.5 44.5q120 0 195.5 -73t75.5 -201q0 -126 -88.5 -213.5t-239.5 -87.5q-189 0 -282 117.5t-93 314.5zM428 471
q-65 0 -116 -50t-64 -140q25 -62 73 -93.5t107 -31.5q68 0 112 44t44 117q0 74 -43 114t-113 40z" />
    <glyph glyph-name="seven.den" horiz-adv-x="708" 
d="M123 0l364 715h-460v172h641v-160l-346 -727h-199z" />
    <glyph glyph-name="eight.den" horiz-adv-x="817" 
d="M37 227q0 106 75.5 165t186.5 69q-41 5 -79 18.5t-73 37.5t-56 62.5t-21 86.5q0 107 89 170t244 63q150 0 241 -64.5t91 -166.5q0 -48 -20.5 -86.5t-54.5 -63t-73 -38.5t-81 -19q111 -8 184.5 -66t73.5 -166q0 -112 -98 -176.5t-265 -64.5q-176 0 -270 63t-94 176z
M567 623q0 58 -44 90t-120 32q-78 0 -121.5 -31.5t-43.5 -88.5q0 -55 45 -88t120 -33q74 0 119 31.5t45 87.5zM586 285q0 66 -52 100.5t-131 34.5q-80 0 -133 -34.5t-53 -100.5q0 -62 51.5 -100t134.5 -38q80 0 131.5 38t51.5 100z" />
    <glyph glyph-name="nine.den" horiz-adv-x="837" 
d="M47 109l131 139q75 -86 191 -86q196 0 196 295q-26 -63 -85.5 -98t-137.5 -35q-124 0 -206.5 70t-82.5 194q0 130 93 220.5t237 90.5q178 0 274.5 -116.5t96.5 -321.5q0 -231 -98.5 -352t-284.5 -121q-199 0 -324 121zM227 569q0 -72 44 -111.5t116 -39.5q56 0 103.5 36
t68.5 103q-17 88 -62 131t-112 43q-70 0 -114 -43t-44 -119z" />
    </font>
</defs>
</svg>
